<svg version="1.1" viewBox="0.0 0.0 960.0 540.0" fill="none" stroke="none" stroke-linecap="square" stroke-miterlimit="10" xmlns:xlink="http://www.w3.org/1999/xlink" xmlns="http://www.w3.org/2000/svg"><clipPath id="g63fdbc5693_0_418.0"><path d="m0 0l960.0 0l0 540.0l-960.0 0l0 -540.0z" clip-rule="nonzero"/></clipPath><g clip-path="url(#g63fdbc5693_0_418.0)"><path fill="#ffffff" d="m0 0l960.0 0l0 540.0l-960.0 0z" fill-rule="evenodd"/><path fill="#000000" fill-opacity="0.0" d="m127.338585 480.80316l0 -431.81104" fill-rule="evenodd"/><path stroke="#4285f4" stroke-width="2.0" stroke-linejoin="round" stroke-linecap="butt" d="m127.338585 480.80316l0 -431.81104" fill-rule="evenodd"/><path fill="#ffffff" d="m111.74803 482.8924l0 0c0 -8.601746 6.9801254 -15.574799 15.590553 -15.574799l0 0c4.134865 0 8.10038 1.6408997 11.024178 4.561737c2.9237976 2.9208374 4.5663757 6.8823547 4.5663757 11.013062l0 0c0 8.601715 -6.980133 15.574799 -15.590553 15.574799l0 0c-8.610428 0 -15.590553 -6.9730835 -15.590553 -15.574799z" fill-rule="evenodd"/><path stroke="#4285f4" stroke-width="2.0" stroke-linejoin="round" stroke-linecap="butt" d="m111.74803 482.8924l0 0c0 -8.601746 6.9801254 -15.574799 15.590553 -15.574799l0 0c4.134865 0 8.10038 1.6408997 11.024178 4.561737c2.9237976 2.9208374 4.5663757 6.8823547 4.5663757 11.013062l0 0c0 8.601715 -6.980133 15.574799 -15.590553 15.574799l0 0c-8.610428 0 -15.590553 -6.9730835 -15.590553 -15.574799z" fill-rule="evenodd"/><path fill="#000000" fill-opacity="0.0" d="m317.83466 41.97113l20.850372 0l0 22.83464l-20.850372 0z" fill-rule="evenodd"/><path fill="#ffffff" d="m111.74803 50.892387l0 0c0 -8.601727 6.9801254 -15.574802 15.590553 -15.574802l0 0c4.134865 0 8.10038 1.6409111 11.024178 4.5617523c2.9237976 2.9208412 4.5663757 6.8823547 4.5663757 11.01305l0 0c0 8.601727 -6.980133 15.574806 -15.590553 15.574806l0 0c-8.610428 0 -15.590553 -6.9730797 -15.590553 -15.574806z" fill-rule="evenodd"/><path stroke="#0b5394" stroke-width="8.0" stroke-linejoin="round" stroke-linecap="butt" d="m111.74803 50.892387l0 0c0 -8.601727 6.9801254 -15.574802 15.590553 -15.574802l0 0c4.134865 0 8.10038 1.6409111 11.024178 4.5617523c2.9237976 2.9208412 4.5663757 6.8823547 4.5663757 11.01305l0 0c0 8.601727 -6.980133 15.574806 -15.590553 15.574806l0 0c-8.610428 0 -15.590553 -6.9730797 -15.590553 -15.574806z" fill-rule="evenodd"/><path fill="#000000" fill-opacity="0.0" d="m159.43701 32.28609l268.50394 0l0 43.181103l-268.50394 0z" fill-rule="evenodd"/><path fill="#3c4043" d="m169.92139 53.653515l-6.0 0l0 6.203125l-3.125 0l0 -15.15625l9.859375 0l0 2.53125l-6.734375 0l0 3.90625l6.0 0l0 2.515625zm8.5336 6.203125q-0.203125 -0.40625 -0.296875 -1.015625q-1.09375 1.21875 -2.84375 1.21875q-1.65625 0 -2.75 -0.953125q-1.09375 -0.953125 -1.09375 -2.421875q0 -1.78125 1.328125 -2.734375q1.328125 -0.96875 3.84375 -0.984375l1.390625 0l0 -0.640625q0 -0.78125 -0.40625 -1.25q-0.40625 -0.46875 -1.265625 -0.46875q-0.765625 0 -1.203125 0.375q-0.421875 0.359375 -0.421875 0.984375l-3.015625 0q0 -0.96875 0.609375 -1.796875q0.609375 -0.84375 1.703125 -1.3125q1.109375 -0.46875 2.484375 -0.46875q2.078125 0 3.296875 1.046875q1.234375 1.03125 1.234375 2.9375l0 4.875q0.015625 1.609375 0.4375 2.4375l0 0.171875l-3.03125 0zm-2.484375 -2.09375q0.65625 0 1.21875 -0.296875q0.5625 -0.296875 0.84375 -0.796875l0 -1.9375l-1.125 0q-2.265625 0 -2.40625 1.5625l-0.015625 0.171875q0 0.5625 0.390625 0.9375q0.40625 0.359375 1.09375 0.359375zm13.497208 -1.015625q0 -0.5625 -0.546875 -0.875q-0.546875 -0.3125 -1.765625 -0.5625q-4.015625 -0.84375 -4.015625 -3.421875q0 -1.5 1.234375 -2.5q1.25 -1.0 3.265625 -1.0q2.140625 0 3.421875 1.015625q1.296875 1.0 1.296875 2.609375l-3.015625 0q0 -0.640625 -0.421875 -1.0625q-0.40625 -0.421875 -1.296875 -0.421875q-0.75 0 -1.171875 0.34375q-0.421875 0.34375 -0.421875 0.875q0 0.5 0.46875 0.8125q0.484375 0.296875 1.609375 0.53125q1.125 0.21875 1.890625 0.5q2.390625 0.875 2.390625 3.03125q0 1.53125 -1.328125 2.484375q-1.3125 0.953125 -3.40625 0.953125q-1.421875 0 -2.53125 -0.5q-1.09375 -0.5 -1.71875 -1.375q-0.625 -0.890625 -0.625 -1.90625l2.859375 0q0.046875 0.796875 0.59375 1.234375q0.546875 0.421875 1.484375 0.421875q0.859375 0 1.296875 -0.328125q0.453125 -0.328125 0.453125 -0.859375zm8.46608 -10.921875l0 2.765625l1.921875 0l0 2.203125l-1.921875 0l0 5.625q0 0.625 0.234375 0.90625q0.234375 0.265625 0.921875 0.265625q0.5 0 0.875 -0.078125l0 2.28125q-0.875 0.265625 -1.8125 0.265625q-3.171875 0 -3.234375 -3.1875l0 -6.078125l-1.640625 0l0 -2.203125l1.640625 0l0 -2.765625l3.015625 0zm14.0959015 14.234375q-2.484375 0 -4.046875 -1.515625q-1.546875 -1.515625 -1.546875 -4.046875l0 -0.296875q0 -1.703125 0.65625 -3.03125q0.65625 -1.34375 1.859375 -2.0625q1.203125 -0.71875 2.75 -0.71875q2.3125 0 3.625 1.453125q1.328125 1.453125 1.328125 4.125l0 1.234375l-7.171875 0q0.15625 1.109375 0.890625 1.78125q0.734375 0.65625 1.859375 0.65625q1.734375 0 2.71875 -1.265625l1.46875 1.65625q-0.671875 0.96875 -1.828125 1.5q-1.15625 0.53125 -2.5625 0.53125zm-0.34375 -9.25q-0.890625 0 -1.453125 0.609375q-0.5625 0.609375 -0.71875 1.734375l4.1875 0l0 -0.25q-0.015625 -1.0 -0.546875 -1.546875q-0.515625 -0.546875 -1.46875 -0.546875zm9.450317 -2.21875l0.09375 1.296875q1.21875 -1.5 3.25 -1.5q1.78125 0 2.65625 1.046875q0.875 1.046875 0.890625 3.140625l0 7.28125l-3.0 0l0 -7.203125q0 -0.96875 -0.421875 -1.390625q-0.40625 -0.4375 -1.375 -0.4375q-1.28125 0 -1.90625 1.078125l0 7.953125l-3.015625 0l0 -11.265625l2.828125 0zm8.710632 5.53125q0 -1.6875 0.640625 -3.0q0.65625 -1.3125 1.859375 -2.015625q1.21875 -0.71875 2.828125 -0.71875q2.28125 0 3.71875 1.390625q1.4375 1.390625 1.609375 3.78125l0.015625 0.78125q0 2.59375 -1.453125 4.15625q-1.4375 1.5625 -3.875 1.5625q-2.4375 0 -3.890625 -1.5625q-1.453125 -1.5625 -1.453125 -4.25l0 -0.125zm3.015625 0.21875q0 1.59375 0.59375 2.453125q0.609375 0.84375 1.734375 0.84375q1.09375 0 1.703125 -0.828125q0.625 -0.84375 0.625 -2.6875q0 -1.578125 -0.625 -2.4375q-0.609375 -0.875 -1.71875 -0.875q-1.109375 0 -1.71875 0.859375q-0.59375 0.859375 -0.59375 2.671875zm16.26268 4.375q-1.109375 1.34375 -3.078125 1.34375q-1.8125 0 -2.765625 -1.03125q-0.953125 -1.046875 -0.984375 -3.0625l0 -7.375l3.015625 0l0 7.28125q0 1.75 1.609375 1.75q1.53125 0 2.09375 -1.0625l0 -7.96875l3.015625 0l0 11.265625l-2.828125 0l-0.078125 -1.140625zm4.7470856 -4.578125q0 -2.59375 1.234375 -4.171875q1.2343597 -1.578125 3.3281097 -1.578125q1.859375 0 2.890625 1.265625l0.125 -1.0625l2.71875 0l0 10.890625q0 1.484375 -0.671875 2.578125q-0.671875 1.09375 -1.890625 1.65625q-1.21875 0.5781212 -2.84375 0.5781212q-1.25 0 -2.421875 -0.4999962q-1.1718597 -0.484375 -1.7812347 -1.265625l1.328125 -1.84375q1.1249847 1.265625 2.7343597 1.265625q1.203125 0 1.859375 -0.640625q0.671875 -0.640625 0.671875 -1.8125l0 -0.609375q-1.046875 1.171875 -2.734375 1.171875q-2.03125 0 -3.2968597 -1.578125q-1.25 -1.59375 -1.25 -4.21875l0 -0.125zm3.0156097 0.21875q0 1.53125 0.609375 2.40625q0.609375 0.859375 1.6875 0.859375q1.375 0 1.96875 -1.03125l0 -4.734375q-0.609375 -1.03125 -1.953125 -1.03125q-1.078125 0 -1.703125 0.890625q-0.609375 0.875 -0.609375 2.640625zm12.533508 -4.546875q1.203125 -1.421875 3.015625 -1.421875q3.65625 0 3.703125 4.25l0 7.21875l-3.0 0l0 -7.140625q0 -0.96875 -0.421875 -1.421875q-0.40625 -0.46875 -1.375 -0.46875q-1.328125 0 -1.921875 1.015625l0 8.015625l-3.015625 0l0 -16.0l3.015625 0l0 5.953125zm18.995789 7.828125q0.828125 0 1.34375 -0.453125q0.53125 -0.46875 0.546875 -1.21875l2.828125 0q-0.015625 1.140625 -0.625 2.09375q-0.609375 0.953125 -1.6875 1.484375q-1.0625 0.515625 -2.359375 0.515625q-2.40625 0 -3.8125 -1.53125q-1.390625 -1.53125 -1.390625 -4.25l0 -0.1875q0 -2.609375 1.375 -4.15625q1.390625 -1.546875 3.8125 -1.546875q2.109375 0 3.390625 1.203125q1.28125 1.1875 1.296875 3.1875l-2.828125 0q-0.015625 -0.875 -0.546875 -1.421875q-0.515625 -0.546875 -1.359375 -0.546875q-1.0625 0 -1.59375 0.765625q-0.53125 0.765625 -0.53125 2.484375l0 0.3125q0 1.75 0.53125 2.515625q0.53125 0.75 1.609375 0.75zm5.966034 -3.515625q0 -1.6875 0.640625 -3.0q0.65625 -1.3125 1.859375 -2.015625q1.21875 -0.71875 2.828125 -0.71875q2.28125 0 3.71875 1.390625q1.4375 1.390625 1.609375 3.78125l0.015625 0.78125q0 2.59375 -1.453125 4.15625q-1.4375 1.5625 -3.875 1.5625q-2.4375 0 -3.890625 -1.5625q-1.453125 -1.5625 -1.453125 -4.25l0 -0.125zm3.015625 0.21875q0 1.59375 0.59375 2.453125q0.609375 0.84375 1.734375 0.84375q1.09375 0 1.703125 -0.828125q0.625 -0.84375 0.625 -2.6875q0 -1.578125 -0.625 -2.4375q-0.609375 -0.875 -1.71875 -0.875q-1.109375 0 -1.71875 0.859375q-0.59375 0.859375 -0.59375 2.671875zm9.043915 -0.203125q0 -2.640625 1.171875 -4.1875q1.1875 -1.5625 3.25 -1.5625q1.640625 0 2.71875 1.21875l0 -5.75l3.015625 0l0 16.0l-2.71875 0l-0.140625 -1.203125q-1.125 1.40625 -2.90625 1.40625q-1.984375 0 -3.1875 -1.5625q-1.203125 -1.5625 -1.203125 -4.359375zm3.015625 0.21875q0 1.578125 0.546875 2.421875q0.546875 0.84375 1.609375 0.84375q1.390625 0 1.96875 -1.171875l0 -4.453125q-0.5625 -1.171875 -1.953125 -1.171875q-2.171875 0 -2.171875 3.53125zm14.658539 5.703125q-2.484375 0 -4.046875 -1.515625q-1.546875 -1.515625 -1.546875 -4.046875l0 -0.296875q0 -1.703125 0.65625 -3.03125q0.65625 -1.34375 1.859375 -2.0625q1.203125 -0.71875 2.75 -0.71875q2.3125 0 3.625 1.453125q1.328125 1.453125 1.328125 4.125l0 1.234375l-7.171875 0q0.15625 1.109375 0.890625 1.78125q0.734375 0.65625 1.859375 0.65625q1.734375 0 2.71875 -1.265625l1.46875 1.65625q-0.671875 0.96875 -1.828125 1.5q-1.15625 0.53125 -2.5625 0.53125zm-0.34375 -9.25q-0.890625 0 -1.453125 0.609375q-0.5625 0.609375 -0.71875 1.734375l4.1875 0l0 -0.25q-0.015625 -1.0 -0.546875 -1.546875q-0.515625 -0.546875 -1.46875 -0.546875z" fill-rule="nonzero"/><path fill="#000000" fill-opacity="0.0" d="m493.83466 89.97113l20.850403 0l0 22.83464l-20.850403 0z" fill-rule="evenodd"/><path fill="#ffffff" d="m111.74803 434.8924l0 0c0 -8.601746 6.9801254 -15.574799 15.590553 -15.574799l0 0c4.134865 0 8.10038 1.6408997 11.024178 4.561737c2.9237976 2.9208374 4.5663757 6.8823547 4.5663757 11.013062l0 0c0 8.601715 -6.980133 15.574799 -15.590553 15.574799l0 0c-8.610428 0 -15.590553 -6.9730835 -15.590553 -15.574799z" fill-rule="evenodd"/><path stroke="#4285f4" stroke-width="2.0" stroke-linejoin="round" stroke-linecap="butt" d="m111.74803 434.8924l0 0c0 -8.601746 6.9801254 -15.574799 15.590553 -15.574799l0 0c4.134865 0 8.10038 1.6408997 11.024178 4.561737c2.9237976 2.9208374 4.5663757 6.8823547 4.5663757 11.013062l0 0c0 8.601715 -6.980133 15.574799 -15.590553 15.574799l0 0c-8.610428 0 -15.590553 -6.9730835 -15.590553 -15.574799z" fill-rule="evenodd"/><path fill="#ffffff" d="m111.74803 386.8924l0 0c0 -8.601746 6.9801254 -15.574799 15.590553 -15.574799l0 0c4.134865 0 8.10038 1.6408997 11.024178 4.561737c2.9237976 2.9208374 4.5663757 6.8823547 4.5663757 11.013062l0 0c0 8.601715 -6.980133 15.574799 -15.590553 15.574799l0 0c-8.610428 0 -15.590553 -6.9730835 -15.590553 -15.574799z" fill-rule="evenodd"/><path stroke="#4285f4" stroke-width="2.0" stroke-linejoin="round" stroke-linecap="butt" d="m111.74803 386.8924l0 0c0 -8.601746 6.9801254 -15.574799 15.590553 -15.574799l0 0c4.134865 0 8.10038 1.6408997 11.024178 4.561737c2.9237976 2.9208374 4.5663757 6.8823547 4.5663757 11.013062l0 0c0 8.601715 -6.980133 15.574799 -15.590553 15.574799l0 0c-8.610428 0 -15.590553 -6.9730835 -15.590553 -15.574799z" fill-rule="evenodd"/><path fill="#ffffff" d="m111.74803 338.8924l0 0c0 -8.601746 6.9801254 -15.574799 15.590553 -15.574799l0 0c4.134865 0 8.10038 1.6408997 11.024178 4.561737c2.9237976 2.9208374 4.5663757 6.8823547 4.5663757 11.013062l0 0c0 8.601715 -6.980133 15.574799 -15.590553 15.574799l0 0c-8.610428 0 -15.590553 -6.9730835 -15.590553 -15.574799z" fill-rule="evenodd"/><path stroke="#4285f4" stroke-width="2.0" stroke-linejoin="round" stroke-linecap="butt" d="m111.74803 338.8924l0 0c0 -8.601746 6.9801254 -15.574799 15.590553 -15.574799l0 0c4.134865 0 8.10038 1.6408997 11.024178 4.561737c2.9237976 2.9208374 4.5663757 6.8823547 4.5663757 11.013062l0 0c0 8.601715 -6.980133 15.574799 -15.590553 15.574799l0 0c-8.610428 0 -15.590553 -6.9730835 -15.590553 -15.574799z" fill-rule="evenodd"/><path fill="#ffffff" d="m111.74803 290.8924l0 0c0 -8.601746 6.9801254 -15.574799 15.590553 -15.574799l0 0c4.134865 0 8.10038 1.6408997 11.024178 4.561737c2.9237976 2.9208374 4.5663757 6.8823547 4.5663757 11.013062l0 0c0 8.601715 -6.980133 15.574799 -15.590553 15.574799l0 0c-8.610428 0 -15.590553 -6.9730835 -15.590553 -15.574799z" fill-rule="evenodd"/><path stroke="#4285f4" stroke-width="2.0" stroke-linejoin="round" stroke-linecap="butt" d="m111.74803 290.8924l0 0c0 -8.601746 6.9801254 -15.574799 15.590553 -15.574799l0 0c4.134865 0 8.10038 1.6408997 11.024178 4.561737c2.9237976 2.9208374 4.5663757 6.8823547 4.5663757 11.013062l0 0c0 8.601715 -6.980133 15.574799 -15.590553 15.574799l0 0c-8.610428 0 -15.590553 -6.9730835 -15.590553 -15.574799z" fill-rule="evenodd"/><path fill="#ffffff" d="m111.74803 242.89238l0 0c0 -8.601715 6.9801254 -15.574799 15.590553 -15.574799l0 0c4.134865 0 8.10038 1.6409149 11.024178 4.5617523c2.9237976 2.9208527 4.5663757 6.8823547 4.5663757 11.013046l0 0c0 8.60173 -6.980133 15.574814 -15.590553 15.574814l0 0c-8.610428 0 -15.590553 -6.9730835 -15.590553 -15.574814z" fill-rule="evenodd"/><path stroke="#4285f4" stroke-width="2.0" stroke-linejoin="round" stroke-linecap="butt" d="m111.74803 242.89238l0 0c0 -8.601715 6.9801254 -15.574799 15.590553 -15.574799l0 0c4.134865 0 8.10038 1.6409149 11.024178 4.5617523c2.9237976 2.9208527 4.5663757 6.8823547 4.5663757 11.013046l0 0c0 8.60173 -6.980133 15.574814 -15.590553 15.574814l0 0c-8.610428 0 -15.590553 -6.9730835 -15.590553 -15.574814z" fill-rule="evenodd"/><path fill="#ffffff" d="m111.74803 194.89238l0 0c0 -8.601715 6.9801254 -15.574799 15.590553 -15.574799l0 0c4.134865 0 8.10038 1.6409149 11.024178 4.5617523c2.9237976 2.9208527 4.5663757 6.8823547 4.5663757 11.013046l0 0c0 8.60173 -6.980133 15.574814 -15.590553 15.574814l0 0c-8.610428 0 -15.590553 -6.9730835 -15.590553 -15.574814z" fill-rule="evenodd"/><path stroke="#4285f4" stroke-width="2.0" stroke-linejoin="round" stroke-linecap="butt" d="m111.74803 194.89238l0 0c0 -8.601715 6.9801254 -15.574799 15.590553 -15.574799l0 0c4.134865 0 8.10038 1.6409149 11.024178 4.5617523c2.9237976 2.9208527 4.5663757 6.8823547 4.5663757 11.013046l0 0c0 8.60173 -6.980133 15.574814 -15.590553 15.574814l0 0c-8.610428 0 -15.590553 -6.9730835 -15.590553 -15.574814z" fill-rule="evenodd"/><path fill="#ffffff" d="m111.74803 146.89238l0 0c0 -8.601715 6.9801254 -15.574799 15.590553 -15.574799l0 0c4.134865 0 8.10038 1.6409149 11.024178 4.5617523c2.9237976 2.9208527 4.5663757 6.8823547 4.5663757 11.013046l0 0c0 8.60173 -6.980133 15.574814 -15.590553 15.574814l0 0c-8.610428 0 -15.590553 -6.9730835 -15.590553 -15.574814z" fill-rule="evenodd"/><path stroke="#4285f4" stroke-width="2.0" stroke-linejoin="round" stroke-linecap="butt" d="m111.74803 146.89238l0 0c0 -8.601715 6.9801254 -15.574799 15.590553 -15.574799l0 0c4.134865 0 8.10038 1.6409149 11.024178 4.5617523c2.9237976 2.9208527 4.5663757 6.8823547 4.5663757 11.013046l0 0c0 8.60173 -6.980133 15.574814 -15.590553 15.574814l0 0c-8.610428 0 -15.590553 -6.9730835 -15.590553 -15.574814z" fill-rule="evenodd"/><path fill="#ffffff" d="m111.74803 98.89239l0 0c0 -8.601723 6.9801254 -15.574806 15.590553 -15.574806l0 0c4.134865 0 8.10038 1.6409149 11.024178 4.56176c2.9237976 2.9208374 4.5663757 6.8823547 4.5663757 11.013046l0 0c0 8.601723 -6.980133 15.574806 -15.590553 15.574806l0 0c-8.610428 0 -15.590553 -6.9730835 -15.590553 -15.574806z" fill-rule="evenodd"/><path stroke="#4285f4" stroke-width="2.0" stroke-linejoin="round" stroke-linecap="butt" d="m111.74803 98.89239l0 0c0 -8.601723 6.9801254 -15.574806 15.590553 -15.574806l0 0c4.134865 0 8.10038 1.6409149 11.024178 4.56176c2.9237976 2.9208374 4.5663757 6.8823547 4.5663757 11.013046l0 0c0 8.601723 -6.980133 15.574806 -15.590553 15.574806l0 0c-8.610428 0 -15.590553 -6.9730835 -15.590553 -15.574806z" fill-rule="evenodd"/></g></svg>