<svg version="1.1" viewBox="0.0 0.0 960.0 540.0" fill="none" stroke="none" stroke-linecap="square" stroke-miterlimit="10" xmlns:xlink="http://www.w3.org/1999/xlink" xmlns="http://www.w3.org/2000/svg"><clipPath id="g63fdbc5693_0_576.0"><path d="m0 0l960.0 0l0 540.0l-960.0 0l0 -540.0z" clip-rule="nonzero"/></clipPath><g clip-path="url(#g63fdbc5693_0_576.0)"><path fill="#ffffff" d="m0 0l960.0 0l0 540.0l-960.0 0z" fill-rule="evenodd"/><path fill="#000000" fill-opacity="0.0" d="m159.43701 173.30183l202.51968 0l0 43.181107l-202.51968 0z" fill-rule="evenodd"/><path fill="#3c4043" d="m172.84326 200.87239l-2.0 0l-7.640625 -11.6875l0 11.6875l-2.0 0l0 -15.15625l2.0 0l7.65625 11.734375l0 -11.734375l1.984375 0l0 15.15625zm7.9389954 0.203125q-2.296875 0 -3.734375 -1.5q-1.4375 -1.5 -1.4375 -4.03125l0 -0.34375q0 -1.6875 0.640625 -3.0q0.640625 -1.3125 1.78125 -2.046875q1.15625 -0.75 2.5 -0.75q2.203125 0 3.421875 1.453125q1.21875 1.4375 1.21875 4.125l0 0.8125l-7.640625 0q0.046875 1.65625 0.96875 2.6875q0.9375 1.03125 2.375 1.03125q1.03125 0 1.734375 -0.421875q0.703125 -0.421875 1.234375 -1.109375l1.1875 0.921875q-1.421875 2.171875 -4.25 2.171875zm-0.25 -10.09375q-1.15625 0 -1.953125 0.84375q-0.796875 0.84375 -0.984375 2.375l5.65625 0l0 -0.140625q-0.09375 -1.46875 -0.796875 -2.265625q-0.703125 -0.8125 -1.921875 -0.8125zm9.486832 -4.109375l0 2.734375l2.09375 0l0 1.484375l-2.09375 0l0 6.984375q0 0.6875 0.28125 1.03125q0.28125 0.328125 0.953125 0.328125q0.328125 0 0.921875 -0.125l0 1.5625q-0.765625 0.203125 -1.484375 0.203125q-1.296875 0 -1.953125 -0.78125q-0.65625 -0.78125 -0.65625 -2.21875l0 -6.984375l-2.046875 0l0 -1.484375l2.046875 0l0 -2.734375l1.9375 0zm14.326431 11.34375l2.15625 -8.609375l1.9375 0l-3.28125 11.265625l-1.5625 0l-2.734375 -8.546875l-2.671875 8.546875l-1.5625 0l-3.265625 -11.265625l1.90625 0l2.21875 8.4375l2.625 -8.4375l1.5625 0l2.671875 8.609375zm5.5429688 -3.078125q0 -1.65625 0.640625 -2.984375q0.65625 -1.328125 1.8125 -2.03125q1.171875 -0.71875 2.65625 -0.71875q2.296875 0 3.71875 1.59375q1.421875 1.578125 1.421875 4.234375l0 0.125q0 1.65625 -0.625 2.96875q-0.625 1.296875 -1.796875 2.03125q-1.171875 0.71875 -2.703125 0.71875q-2.28125 0 -3.703125 -1.59375q-1.421875 -1.59375 -1.421875 -4.21875l0 -0.125zm1.9375 0.21875q0 1.875 0.859375 3.015625q0.875 1.140625 2.328125 1.140625q1.46875 0 2.328125 -1.15625q0.875 -1.15625 0.875 -3.21875q0 -1.859375 -0.890625 -3.0q-0.875 -1.15625 -2.328125 -1.15625q-1.421875 0 -2.296875 1.140625q-0.875 1.125 -0.875 3.234375zm16.179321 -4.03125q-0.4375 -0.0625 -0.953125 -0.0625q-1.890625 0 -2.5625 1.609375l0 8.0l-1.9375 0l0 -11.265625l1.875 0l0.03125 1.296875q0.953125 -1.5 2.6875 -1.5q0.5625 0 0.859375 0.140625l0 1.78125zm4.9201202 4.328125l-1.21875 1.265625l0 3.953125l-1.921875 0l0 -16.0l1.921875 0l0 9.671875l1.03125 -1.234375l3.515625 -3.703125l2.34375 0l-4.390625 4.703125l4.890625 6.5625l-2.25 0l-3.921875 -5.21875zm18.386703 -4.328125q-0.4375 -0.0625 -0.953125 -0.0625q-1.890625 0 -2.5625 1.609375l0 8.0l-1.9375 0l0 -11.265625l1.875 0l0.03125 1.296875q0.953125 -1.5 2.6875 -1.5q0.5625 0 0.859375 0.140625l0 1.78125zm6.2534485 9.75q-2.296875 0 -3.734375 -1.5q-1.4375 -1.5 -1.4375 -4.03125l0 -0.34375q0 -1.6875 0.640625 -3.0q0.640625 -1.3125 1.78125 -2.046875q1.15625 -0.75 2.5 -0.75q2.203125 0 3.421875 1.453125q1.21875 1.4375 1.21875 4.125l0 0.8125l-7.640625 0q0.046875 1.65625 0.96875 2.6875q0.9375 1.03125 2.375 1.03125q1.03125 0 1.734375 -0.421875q0.703125 -0.421875 1.234375 -1.109375l1.1875 0.921875q-1.421875 2.171875 -4.25 2.171875zm-0.25 -10.09375q-1.15625 0 -1.953125 0.84375q-0.796875 0.84375 -0.984375 2.375l5.65625 0l0 -0.140625q-0.09375 -1.46875 -0.796875 -2.265625q-0.703125 -0.8125 -1.921875 -0.8125zm6.3930664 4.15625q0 -2.65625 1.21875 -4.1875q1.21875 -1.546875 3.28125 -1.546875q2.0 0 3.15625 1.328125l0.078125 -1.125l1.765625 0l0 15.59375l-1.921875 0l0 -5.375q-1.171875 1.25 -3.109375 1.25q-2.03125 0 -3.25 -1.578125q-1.21875 -1.59375 -1.21875 -4.21875l0 -0.140625zm1.9375 0.21875q0 1.9375 0.8125 3.046875q0.8125 1.109375 2.203125 1.109375q1.71875 0 2.625 -1.53125l0 -5.515625q-0.921875 -1.484375 -2.609375 -1.484375q-1.390625 0 -2.21875 1.109375q-0.8125 1.109375 -0.8125 3.265625zm17.62204 4.40625q-1.125 1.3125 -3.3125 1.3125q-1.796875 0 -2.75 -1.046875q-0.9375 -1.046875 -0.9375 -3.09375l0 -7.328125l1.921875 0l0 7.28125q0 2.5625 2.078125 2.5625q2.21875 0 2.9375 -1.65625l0 -8.1875l1.9375 0l0 11.265625l-1.84375 0l-0.03125 -1.109375zm9.476318 1.3125q-2.296875 0 -3.734375 -1.5q-1.4375 -1.5 -1.4375 -4.03125l0 -0.34375q0 -1.6875 0.640625 -3.0q0.640625 -1.3125 1.78125 -2.046875q1.15625 -0.75 2.5 -0.75q2.203125 0 3.421875 1.453125q1.21875 1.4375 1.21875 4.125l0 0.8125l-7.640625 0q0.046875 1.65625 0.96875 2.6875q0.9375 1.03125 2.375 1.03125q1.03125 0 1.734375 -0.421875q0.703125 -0.421875 1.234375 -1.109375l1.1875 0.921875q-1.421875 2.171875 -4.25 2.171875zm-0.25 -10.09375q-1.15625 0 -1.953125 0.84375q-0.796875 0.84375 -0.984375 2.375l5.65625 0l0 -0.140625q-0.09375 -1.46875 -0.796875 -2.265625q-0.703125 -0.8125 -1.921875 -0.8125zm13.424316 6.90625q0 -0.78125 -0.59375 -1.21875q-0.578125 -0.4375 -2.046875 -0.75q-1.453125 -0.3125 -2.3125 -0.75q-0.859375 -0.4375 -1.28125 -1.03125q-0.40625 -0.609375 -0.40625 -1.4375q0 -1.390625 1.171875 -2.34375q1.171875 -0.953125 3.0 -0.953125q1.90625 0 3.09375 0.984375q1.203125 0.984375 1.203125 2.53125l-1.9375 0q0 -0.796875 -0.671875 -1.359375q-0.671875 -0.578125 -1.6875 -0.578125q-1.0625 0 -1.65625 0.453125q-0.59375 0.453125 -0.59375 1.203125q0 0.6875 0.546875 1.046875q0.5625 0.359375 2.0 0.6875q1.453125 0.3125 2.34375 0.765625q0.890625 0.4375 1.328125 1.078125q0.4375 0.625 0.4375 1.53125q0 1.515625 -1.21875 2.421875q-1.203125 0.90625 -3.125 0.90625q-1.359375 0 -2.40625 -0.46875q-1.03125 -0.484375 -1.625 -1.34375q-0.59375 -0.859375 -0.59375 -1.859375l1.9375 0q0.046875 0.96875 0.765625 1.546875q0.734375 0.5625 1.921875 0.5625q1.09375 0 1.75 -0.4375q0.65625 -0.453125 0.65625 -1.1875zm7.0598145 -11.015625l0 2.734375l2.09375 0l0 1.484375l-2.09375 0l0 6.984375q0 0.6875 0.28125 1.03125q0.28125 0.328125 0.953125 0.328125q0.328125 0 0.921875 -0.125l0 1.5625q-0.765625 0.203125 -1.484375 0.203125q-1.296875 0 -1.953125 -0.78125q-0.65625 -0.78125 -0.65625 -2.21875l0 -6.984375l-2.046875 0l0 -1.484375l2.046875 0l0 -2.734375l1.9375 0zm10.904572 11.015625q0 -0.78125 -0.59375 -1.21875q-0.578125 -0.4375 -2.046875 -0.75q-1.453125 -0.3125 -2.3125 -0.75q-0.859375 -0.4375 -1.28125 -1.03125q-0.40625 -0.609375 -0.40625 -1.4375q0 -1.390625 1.171875 -2.34375q1.171875 -0.953125 3.0 -0.953125q1.90625 0 3.09375 0.984375q1.203125 0.984375 1.203125 2.53125l-1.9375 0q0 -0.796875 -0.671875 -1.359375q-0.671875 -0.578125 -1.6875 -0.578125q-1.0625 0 -1.65625 0.453125q-0.59375 0.453125 -0.59375 1.203125q0 0.6875 0.546875 1.046875q0.5625 0.359375 2.0 0.6875q1.453125 0.3125 2.34375 0.765625q0.890625 0.4375 1.328125 1.078125q0.4375 0.625 0.4375 1.53125q0 1.515625 -1.21875 2.421875q-1.203125 0.90625 -3.125 0.90625q-1.359375 0 -2.40625 -0.46875q-1.03125 -0.484375 -1.625 -1.34375q-0.59375 -0.859375 -0.59375 -1.859375l1.9375 0q0.046875 0.96875 0.765625 1.546875q0.734375 0.5625 1.921875 0.5625q1.09375 0 1.75 -0.4375q0.65625 -0.453125 0.65625 -1.1875z" fill-rule="nonzero"/><path fill="#000000" fill-opacity="0.0" d="m127.338585 480.80316l0 -431.81104" fill-rule="evenodd"/><path stroke="#4285f4" stroke-width="2.0" stroke-linejoin="round" stroke-linecap="butt" d="m127.338585 480.80316l0 -431.81104" fill-rule="evenodd"/><path fill="#ffffff" d="m111.74803 482.8924l0 0c0 -8.601746 6.9801254 -15.574799 15.590553 -15.574799l0 0c4.134865 0 8.10038 1.6408997 11.024178 4.561737c2.9237976 2.9208374 4.5663757 6.8823547 4.5663757 11.013062l0 0c0 8.601715 -6.980133 15.574799 -15.590553 15.574799l0 0c-8.610428 0 -15.590553 -6.9730835 -15.590553 -15.574799z" fill-rule="evenodd"/><path stroke="#4285f4" stroke-width="2.0" stroke-linejoin="round" stroke-linecap="butt" d="m111.74803 482.8924l0 0c0 -8.601746 6.9801254 -15.574799 15.590553 -15.574799l0 0c4.134865 0 8.10038 1.6408997 11.024178 4.561737c2.9237976 2.9208374 4.5663757 6.8823547 4.5663757 11.013062l0 0c0 8.601715 -6.980133 15.574799 -15.590553 15.574799l0 0c-8.610428 0 -15.590553 -6.9730835 -15.590553 -15.574799z" fill-rule="evenodd"/><path fill="#000000" fill-opacity="0.0" d="m159.43701 219.41733l111.433075 0l0 43.18109l-111.433075 0z" fill-rule="evenodd"/><path fill="#3c4043" d="m161.20264 246.98787l0 -15.15625l4.28125 0q1.96875 0 3.484375 0.875q1.53125 0.875 2.359375 2.484375q0.828125 1.609375 0.828125 3.703125l0 0.96875q0 2.140625 -0.828125 3.765625q-0.828125 1.609375 -2.359375 2.484375q-1.53125 0.859375 -3.578125 0.875l-4.1875 0zm2.0 -13.515625l0 11.875l2.09375 0q2.3125 0 3.59375 -1.4375q1.296875 -1.4375 1.296875 -4.09375l0 -0.875q0 -2.59375 -1.21875 -4.015625q-1.203125 -1.4375 -3.4375 -1.453125l-2.328125 0zm13.767426 13.515625l-1.921875 0l0 -11.265625l1.921875 0l0 11.265625zm-2.078125 -14.25q0 -0.46875 0.28125 -0.796875q0.296875 -0.328125 0.859375 -0.328125q0.5625 0 0.84375 0.328125q0.296875 0.328125 0.296875 0.796875q0 0.46875 -0.296875 0.78125q-0.28125 0.3125 -0.84375 0.3125q-0.5625 0 -0.859375 -0.3125q-0.28125 -0.3125 -0.28125 -0.78125zm11.722702 11.265625q0 -0.78125 -0.59375 -1.21875q-0.578125 -0.4375 -2.046875 -0.75q-1.453125 -0.3125 -2.3125 -0.75q-0.859375 -0.4375 -1.28125 -1.03125q-0.40625 -0.609375 -0.40625 -1.4375q0 -1.390625 1.171875 -2.34375q1.171875 -0.953125 3.0 -0.953125q1.90625 0 3.09375 0.984375q1.203125 0.984375 1.203125 2.53125l-1.9375 0q0 -0.796875 -0.671875 -1.359375q-0.671875 -0.578125 -1.6875 -0.578125q-1.0625 0 -1.65625 0.453125q-0.59375 0.453125 -0.59375 1.203125q0 0.6875 0.546875 1.046875q0.5625 0.359375 2.0 0.6875q1.453125 0.3125 2.34375 0.765625q0.890625 0.4375 1.328125 1.078125q0.4375 0.625 0.4375 1.53125q0 1.515625 -1.21875 2.421875q-1.203125 0.90625 -3.125 0.90625q-1.359375 0 -2.40625 -0.46875q-1.03125 -0.484375 -1.625 -1.34375q-0.59375 -0.859375 -0.59375 -1.859375l1.9375 0q0.046875 0.96875 0.765625 1.546875q0.734375 0.5625 1.921875 0.5625q1.09375 0 1.75 -0.4375q0.65625 -0.453125 0.65625 -1.1875zm7.5910645 -2.234375l-1.21875 1.265625l0 3.953125l-1.921875 0l0 -16.0l1.921875 0l0 9.671875l1.03125 -1.234375l3.515625 -3.703125l2.34375 0l-4.390625 4.703125l4.890625 6.5625l-2.25 0l-3.921875 -5.21875zm15.3867035 5.21875l-2.0 0l0 -15.15625l2.0 0l0 15.15625zm3.7381744 1.296875l-1.65625 0l6.328125 -16.453125l1.65625 0l-6.328125 16.453125zm20.367645 -8.390625q0 2.234375 -0.75 3.890625q-0.75 1.65625 -2.125 2.53125q-1.375 0.875 -3.203125 0.875q-1.796875 0 -3.1875 -0.875q-1.375 -0.875 -2.140625 -2.5q-0.765625 -1.640625 -0.78125 -3.78125l0 -1.09375q0 -2.1875 0.75 -3.859375q0.765625 -1.6875 2.15625 -2.578125q1.390625 -0.890625 3.1875 -0.890625q1.8125 0 3.203125 0.890625q1.390625 0.875 2.140625 2.546875q0.75 1.671875 0.75 3.890625l0 0.953125zm-1.984375 -0.984375q0 -2.6875 -1.09375 -4.125q-1.078125 -1.453125 -3.015625 -1.453125q-1.90625 0 -3.0 1.453125q-1.078125 1.4375 -1.109375 4.0l0 1.109375q0 2.609375 1.09375 4.109375q1.109375 1.5 3.03125 1.5q1.9375 0 3.0 -1.40625q1.0625 -1.421875 1.09375 -4.0625l0 -1.125z" fill-rule="nonzero"/><path fill="#000000" fill-opacity="0.0" d="m159.43701 316.99475l123.968506 0l0 43.18109l-123.968506 0z" fill-rule="evenodd"/><path fill="#3c4043" d="m164.87451 329.40906l3.890625 10.984375l3.875 -10.984375l4.109375 0l0 15.15625l-3.140625 0l0 -4.140625l0.3125 -7.15625l-4.09375 11.296875l-2.140625 0l-4.078125 -11.28125l0.3125 7.140625l0 4.140625l-3.125 0l0 -15.15625l4.078125 0zm20.932938 15.15625q-0.203125 -0.40625 -0.296875 -1.015625q-1.09375 1.21875 -2.84375 1.21875q-1.65625 0 -2.75 -0.953125q-1.09375 -0.953125 -1.09375 -2.421875q0 -1.78125 1.328125 -2.734375q1.328125 -0.96875 3.84375 -0.984375l1.390625 0l0 -0.640625q0 -0.78125 -0.40625 -1.25q-0.40625 -0.46875 -1.265625 -0.46875q-0.765625 0 -1.203125 0.375q-0.421875 0.359375 -0.421875 0.984375l-3.015625 0q0 -0.96875 0.609375 -1.796875q0.609375 -0.84375 1.703125 -1.3125q1.109375 -0.46875 2.484375 -0.46875q2.078125 0 3.296875 1.046875q1.234375 1.03125 1.234375 2.9375l0 4.875q0.015625 1.609375 0.4375 2.4375l0 0.171875l-3.03125 0zm-2.484375 -2.09375q0.65625 0 1.21875 -0.296875q0.5625 -0.296875 0.84375 -0.796875l0 -1.9375l-1.125 0q-2.265625 0 -2.40625 1.5625l-0.015625 0.171875q0 0.5625 0.390625 0.9375q0.40625 0.359375 1.09375 0.359375zm10.559708 2.09375l-3.015625 0l0 -16.0l3.015625 0l0 16.0zm5.6548767 0l-3.015625 0l0 -16.0l3.015625 0l0 16.0zm2.0142517 -5.734375q0 -1.6875 0.640625 -3.0q0.65625 -1.3125 1.859375 -2.015625q1.21875 -0.71875 2.828125 -0.71875q2.28125 0 3.71875 1.390625q1.4375 1.390625 1.609375 3.78125l0.015625 0.78125q0 2.59375 -1.453125 4.15625q-1.4375 1.5625 -3.875 1.5625q-2.4375 0 -3.890625 -1.5625q-1.453125 -1.5625 -1.453125 -4.25l0 -0.125zm3.015625 0.21875q0 1.59375 0.59375 2.453125q0.609375 0.84375 1.734375 0.84375q1.09375 0 1.703125 -0.828125q0.625 -0.84375 0.625 -2.6875q0 -1.578125 -0.625 -2.4375q-0.609375 -0.875 -1.71875 -0.875q-1.109375 0 -1.71875 0.859375q-0.59375 0.859375 -0.59375 2.671875zm14.20018 3.296875q0.828125 0 1.34375 -0.453125q0.53125 -0.46875 0.546875 -1.21875l2.828125 0q-0.015625 1.140625 -0.625 2.09375q-0.609375 0.953125 -1.6875 1.484375q-1.0625 0.515625 -2.359375 0.515625q-2.40625 0 -3.8125 -1.53125q-1.390625 -1.53125 -1.390625 -4.25l0 -0.1875q0 -2.609375 1.375 -4.15625q1.390625 -1.546875 3.8125 -1.546875q2.109375 0 3.390625 1.203125q1.28125 1.1875 1.296875 3.1875l-2.828125 0q-0.015625 -0.875 -0.546875 -1.421875q-0.515625 -0.546875 -1.359375 -0.546875q-1.0625 0 -1.59375 0.765625q-0.53125 0.765625 -0.53125 2.484375l0 0.3125q0 1.75 0.53125 2.515625q0.53125 0.75 1.609375 0.75z" fill-rule="nonzero"/><path fill="#000000" fill-opacity="0.0" d="m159.43701 269.30185l162.74014 0l0 43.18109l-162.74014 0z" fill-rule="evenodd"/><path fill="#3c4043" d="m172.34326 292.05988q-0.28125 2.40625 -1.78125 3.71875q-1.484375 1.296875 -3.953125 1.296875q-2.6875 0 -4.3125 -1.921875q-1.625 -1.921875 -1.625 -5.15625l0 -1.453125q0 -2.125 0.75 -3.71875q0.765625 -1.609375 2.140625 -2.46875q1.390625 -0.859375 3.21875 -0.859375q2.421875 0 3.875 1.359375q1.453125 1.34375 1.6875 3.71875l-2.0 0q-0.265625 -1.796875 -1.140625 -2.609375q-0.859375 -0.8125 -2.421875 -0.8125q-1.921875 0 -3.015625 1.421875q-1.078125 1.40625 -1.078125 4.015625l0 1.46875q0 2.46875 1.03125 3.9375q1.03125 1.453125 2.890625 1.453125q1.65625 0 2.546875 -0.75q0.890625 -0.765625 1.1875 -2.640625l2.0 0zm1.9289093 -0.921875q0 -1.65625 0.640625 -2.984375q0.65625 -1.328125 1.8125 -2.03125q1.171875 -0.71875 2.65625 -0.71875q2.296875 0 3.71875 1.59375q1.421875 1.578125 1.421875 4.234375l0 0.125q0 1.65625 -0.625 2.96875q-0.625 1.296875 -1.796875 2.03125q-1.171875 0.71875 -2.703125 0.71875q-2.28125 0 -3.703125 -1.59375q-1.421875 -1.59375 -1.421875 -4.21875l0 -0.125zm1.9375 0.21875q0 1.875 0.859375 3.015625q0.875 1.140625 2.328125 1.140625q1.46875 0 2.328125 -1.15625q0.875 -1.15625 0.875 -3.21875q0 -1.859375 -0.890625 -3.0q-0.875 -1.15625 -2.328125 -1.15625q-1.421875 0 -2.296875 1.140625q-0.875 1.125 -0.875 3.234375zm12.554321 -5.75l0.0625 1.40625q1.296875 -1.609375 3.375 -1.609375q3.578125 0 3.609375 4.015625l0 7.453125l-1.9375 0l0 -7.453125q0 -1.21875 -0.546875 -1.796875q-0.546875 -0.59375 -1.703125 -0.59375q-0.9375 0 -1.65625 0.5q-0.703125 0.5 -1.09375 1.3125l0 8.03125l-1.9375 0l0 -11.265625l1.828125 0zm12.564835 -2.734375l0 2.734375l2.09375 0l0 1.484375l-2.09375 0l0 6.984375q0 0.6875 0.28125 1.03125q0.28125 0.328125 0.953125 0.328125q0.328125 0 0.921875 -0.125l0 1.5625q-0.765625 0.203125 -1.484375 0.203125q-1.296875 0 -1.953125 -0.78125q-0.65625 -0.78125 -0.65625 -2.21875l0 -6.984375l-2.046875 0l0 -1.484375l2.046875 0l0 -2.734375l1.9375 0zm9.029556 14.203125q-2.296875 0 -3.734375 -1.5q-1.4375 -1.5 -1.4375 -4.03125l0 -0.34375q0 -1.6875 0.640625 -3.0q0.640625 -1.3125 1.78125 -2.046875q1.15625 -0.75 2.5 -0.75q2.203125 0 3.421875 1.453125q1.21875 1.4375 1.21875 4.125l0 0.8125l-7.640625 0q0.046875 1.65625 0.96875 2.6875q0.9375 1.03125 2.375 1.03125q1.03125 0 1.734375 -0.421875q0.703125 -0.421875 1.234375 -1.109375l1.1875 0.921875q-1.421875 2.171875 -4.25 2.171875zm-0.25 -10.09375q-1.15625 0 -1.953125 0.84375q-0.796875 0.84375 -0.984375 2.375l5.65625 0l0 -0.140625q-0.09375 -1.46875 -0.796875 -2.265625q-0.703125 -0.8125 -1.921875 -0.8125zm8.689957 -1.375l0.0625 1.40625q1.296875 -1.609375 3.375 -1.609375q3.578125 0 3.609375 4.015625l0 7.453125l-1.9375 0l0 -7.453125q0 -1.21875 -0.546875 -1.796875q-0.546875 -0.59375 -1.703125 -0.59375q-0.9375 0 -1.65625 0.5q-0.703125 0.5 -1.09375 1.3125l0 8.03125l-1.9375 0l0 -11.265625l1.828125 0zm12.564835 -2.734375l0 2.734375l2.09375 0l0 1.484375l-2.09375 0l0 6.984375q0 0.6875 0.28125 1.03125q0.28125 0.328125 0.953125 0.328125q0.328125 0 0.921875 -0.125l0 1.5625q-0.765625 0.203125 -1.484375 0.203125q-1.296875 0 -1.953125 -0.78125q-0.65625 -0.78125 -0.65625 -2.21875l0 -6.984375l-2.046875 0l0 -1.484375l2.046875 0l0 -2.734375l1.9375 0zm6.4358063 14.0l-1.921875 0l0 -11.265625l1.921875 0l0 11.265625zm-2.078125 -14.25q0 -0.46875 0.28125 -0.796875q0.296875 -0.328125 0.859375 -0.328125q0.5625 0 0.84375 0.328125q0.296875 0.328125 0.296875 0.796875q0 0.46875 -0.296875 0.78125q-0.28125 0.3125 -0.84375 0.3125q-0.5625 0 -0.859375 -0.3125q-0.28125 -0.3125 -0.28125 -0.78125zm4.660202 8.515625q0 -1.65625 0.640625 -2.984375q0.65625 -1.328125 1.8125 -2.03125q1.171875 -0.71875 2.65625 -0.71875q2.296875 0 3.71875 1.59375q1.421875 1.578125 1.421875 4.234375l0 0.125q0 1.65625 -0.625 2.96875q-0.625 1.296875 -1.796875 2.03125q-1.171875 0.71875 -2.703125 0.71875q-2.28125 0 -3.703125 -1.59375q-1.421875 -1.59375 -1.421875 -4.21875l0 -0.125zm1.9375 0.21875q0 1.875 0.859375 3.015625q0.875 1.140625 2.328125 1.140625q1.46875 0 2.328125 -1.15625q0.875 -1.15625 0.875 -3.21875q0 -1.859375 -0.890625 -3.0q-0.875 -1.15625 -2.328125 -1.15625q-1.421875 0 -2.296875 1.140625q-0.875 1.125 -0.875 3.234375zm12.554321 -5.75l0.0625 1.40625q1.2968597 -1.609375 3.3749847 -1.609375q3.578125 0 3.609375 4.015625l0 7.453125l-1.9375 0l0 -7.453125q0 -1.21875 -0.546875 -1.796875q-0.546875 -0.59375 -1.703125 -0.59375q-0.9375 0 -1.65625 0.5q-0.70310974 0.5 -1.0937347 1.3125l0 8.03125l-1.9375 0l0 -11.265625l1.828125 0z" fill-rule="nonzero"/><path fill="#000000" fill-opacity="0.0" d="m159.43701 125.301834l268.50394 0l0 43.181107l-268.50394 0z" fill-rule="evenodd"/><path fill="#3c4043" d="m161.20264 152.87239l0 -15.15625l4.953125 0q2.46875 0 3.703125 1.015625q1.25 1.015625 1.25 3.015625q0 1.0625 -0.609375 1.890625q-0.59375 0.8125 -1.640625 1.25q1.234375 0.34375 1.9375 1.3125q0.71875 0.96875 0.71875 2.296875q0 2.046875 -1.328125 3.21875q-1.3125 1.15625 -3.734375 1.15625l-5.25 0zm2.0 -7.09375l0 5.453125l3.296875 0q1.390625 0 2.203125 -0.71875q0.8125 -0.71875 0.8125 -2.0q0 -2.734375 -2.984375 -2.734375l-3.328125 0zm0 -1.609375l3.015625 0q1.3125 0 2.09375 -0.65625q0.796875 -0.65625 0.796875 -1.765625q0 -1.25 -0.734375 -1.8125q-0.734375 -0.578125 -2.21875 -0.578125l-2.953125 0l0 4.8125zm13.059265 8.703125l-1.921875 0l0 -11.265625l1.921875 0l0 11.265625zm-2.078125 -14.25q0 -0.46875 0.28125 -0.796875q0.296875 -0.328125 0.859375 -0.328125q0.5625 0 0.84375 0.328125q0.296875 0.328125 0.296875 0.796875q0 0.46875 -0.296875 0.78125q-0.28125 0.3125 -0.84375 0.3125q-0.5625 0 -0.859375 -0.3125q-0.28125 -0.3125 -0.28125 -0.78125zm4.707077 8.515625q0 -2.625 1.21875 -4.171875q1.21875 -1.5625 3.234375 -1.5625q2.0625 0 3.21875 1.453125l0.09375 -1.25l1.75 0l0 11.0q0 2.1875 -1.296875 3.4375q-1.296875 1.265625 -3.484375 1.265625q-1.21875 0 -2.390625 -0.53125q-1.15625 -0.515625 -1.765625 -1.421875l1.0 -1.15625q1.234375 1.53125 3.03125 1.53125q1.40625 0 2.1875 -0.796875q0.78125 -0.78125 0.78125 -2.21875l0 -0.96875q-1.15625 1.328125 -3.15625 1.328125q-1.96875 0 -3.203125 -1.59375q-1.21875 -1.59375 -1.21875 -4.34375zm1.9375 0.21875q0 1.90625 0.78125 3.0q0.78125 1.09375 2.1875 1.09375q1.828125 0 2.671875 -1.65625l0 -5.15625q-0.875 -1.609375 -2.65625 -1.609375q-1.40625 0 -2.203125 1.09375q-0.78125 1.09375 -0.78125 3.234375zm14.497086 -0.140625l-5.078125 0l0 -1.578125l5.078125 0l0 1.578125zm13.837112 -1.4375q0 2.234375 -0.75 3.890625q-0.75 1.65625 -2.125 2.53125q-1.375 0.875 -3.203125 0.875q-1.796875 0 -3.1875 -0.875q-1.375 -0.875 -2.140625 -2.5q-0.765625 -1.640625 -0.78125 -3.78125l0 -1.09375q0 -2.1875 0.75 -3.859375q0.765625 -1.6875 2.15625 -2.578125q1.390625 -0.890625 3.1875 -0.890625q1.8125 0 3.203125 0.890625q1.390625 0.875 2.140625 2.546875q0.75 1.671875 0.75 3.890625l0 0.953125zm-1.984375 -0.984375q0 -2.6875 -1.09375 -4.125q-1.078125 -1.453125 -3.015625 -1.453125q-1.90625 0 -3.0 1.453125q-1.078125 1.4375 -1.109375 4.0l0 1.109375q0 2.609375 1.09375 4.109375q1.109375 1.5 3.03125 1.5q1.9375 0 3.0 -1.40625q1.0625 -1.421875 1.09375 -4.0625l0 -1.125z" fill-rule="nonzero"/><path fill="#000000" fill-opacity="0.0" d="m242.68504 341.38846l202.7606 0l0 -240.0l48.389008 0" fill-rule="evenodd"/><path stroke="#4285f4" stroke-width="2.0" stroke-linejoin="round" stroke-linecap="butt" d="m250.26503 341.38846l195.18062 0l0 -240.0l40.80899 0" fill-rule="evenodd"/><path fill="#4285f4" stroke="#4285f4" stroke-width="2.0" stroke-linecap="butt" d="m243.68504 341.38846c0 -1.8170166 1.4729767 -3.2900085 3.2899933 -3.2900085c1.8170166 0 3.2900085 1.472992 3.2900085 3.2900085c0 1.8170166 -1.472992 3.289978 -3.2900085 3.289978c-1.8170166 0 -3.2899933 -1.4729614 -3.2899933 -3.289978z" fill-rule="nonzero"/><path fill="#4285f4" stroke="#4285f4" stroke-width="2.0" stroke-linecap="butt" d="m492.83466 101.38845c0 1.8170166 -1.472992 3.290001 -3.2900085 3.290001c-1.8170166 0 -3.2900085 -1.4729843 -3.2900085 -3.290001c0 -1.8170166 1.472992 -3.290001 3.2900085 -3.290001c1.8170166 0 3.2900085 1.4729843 3.2900085 3.290001z" fill-rule="nonzero"/><path fill="#000000" fill-opacity="0.0" d="m221.83464 329.97113l20.850403 0l0 22.834656l-20.850403 0z" fill-rule="evenodd"/><path fill="#ffffff" d="m111.74803 338.8924l0 0c0 -8.601746 6.9801254 -15.574799 15.590553 -15.574799l0 0c4.134865 0 8.10038 1.6408997 11.024178 4.561737c2.9237976 2.9208374 4.5663757 6.8823547 4.5663757 11.013062l0 0c0 8.601715 -6.980133 15.574799 -15.590553 15.574799l0 0c-8.610428 0 -15.590553 -6.9730835 -15.590553 -15.574799z" fill-rule="evenodd"/><path stroke="#0b5394" stroke-width="8.0" stroke-linejoin="round" stroke-linecap="butt" d="m111.74803 338.8924l0 0c0 -8.601746 6.9801254 -15.574799 15.590553 -15.574799l0 0c4.134865 0 8.10038 1.6408997 11.024178 4.561737c2.9237976 2.9208374 4.5663757 6.8823547 4.5663757 11.013062l0 0c0 8.601715 -6.980133 15.574799 -15.590553 15.574799l0 0c-8.610428 0 -15.590553 -6.9730835 -15.590553 -15.574799z" fill-rule="evenodd"/><path fill="#4285f4" d="m111.74803 290.8924l0 0c0 -8.601746 6.9801254 -15.574799 15.590553 -15.574799l0 0c4.134865 0 8.10038 1.6408997 11.024178 4.561737c2.9237976 2.9208374 4.5663757 6.8823547 4.5663757 11.013062l0 0c0 8.601715 -6.980133 15.574799 -15.590553 15.574799l0 0c-8.610428 0 -15.590553 -6.9730835 -15.590553 -15.574799z" fill-rule="evenodd"/><path fill="#4285f4" d="m111.74803 242.89238l0 0c0 -8.601715 6.9801254 -15.574799 15.590553 -15.574799l0 0c4.134865 0 8.10038 1.6409149 11.024178 4.5617523c2.9237976 2.9208527 4.5663757 6.8823547 4.5663757 11.013046l0 0c0 8.60173 -6.980133 15.574814 -15.590553 15.574814l0 0c-8.610428 0 -15.590553 -6.9730835 -15.590553 -15.574814z" fill-rule="evenodd"/><path fill="#4285f4" d="m111.74803 194.89238l0 0c0 -8.601715 6.9801254 -15.574799 15.590553 -15.574799l0 0c4.134865 0 8.10038 1.6409149 11.024178 4.5617523c2.9237976 2.9208527 4.5663757 6.8823547 4.5663757 11.013046l0 0c0 8.60173 -6.980133 15.574814 -15.590553 15.574814l0 0c-8.610428 0 -15.590553 -6.9730835 -15.590553 -15.574814z" fill-rule="evenodd"/><path fill="#4285f4" d="m111.74803 146.89238l0 0c0 -8.601715 6.9801254 -15.574799 15.590553 -15.574799l0 0c4.134865 0 8.10038 1.6409149 11.024178 4.5617523c2.9237976 2.9208527 4.5663757 6.8823547 4.5663757 11.013046l0 0c0 8.60173 -6.980133 15.574814 -15.590553 15.574814l0 0c-8.610428 0 -15.590553 -6.9730835 -15.590553 -15.574814z" fill-rule="evenodd"/><path fill="#4285f4" d="m111.74803 98.89239l0 0c0 -8.601723 6.9801254 -15.574806 15.590553 -15.574806l0 0c4.134865 0 8.10038 1.6409149 11.024178 4.56176c2.9237976 2.9208374 4.5663757 6.8823547 4.5663757 11.013046l0 0c0 8.601723 -6.980133 15.574806 -15.590553 15.574806l0 0c-8.610428 0 -15.590553 -6.9730835 -15.590553 -15.574806z" fill-rule="evenodd"/><path fill="#4285f4" d="m111.74803 50.892387l0 0c0 -8.601727 6.9801254 -15.574802 15.590553 -15.574802l0 0c4.134865 0 8.10038 1.6409111 11.024178 4.5617523c2.9237976 2.9208412 4.5663757 6.8823547 4.5663757 11.01305l0 0c0 8.601727 -6.980133 15.574806 -15.590553 15.574806l0 0c-8.610428 0 -15.590553 -6.9730797 -15.590553 -15.574806z" fill-rule="evenodd"/><path fill="#000000" fill-opacity="0.0" d="m159.43701 77.301834l268.50394 0l0 43.181107l-268.50394 0z" fill-rule="evenodd"/><path fill="#3c4043" d="m171.87451 89.71614l0 10.296875q-0.015625 2.15625 -1.359375 3.515625q-1.328125 1.359375 -3.625 1.53125l-0.53125 0.015625q-2.484375 0 -3.96875 -1.34375q-1.46875 -1.34375 -1.5 -3.6875l0 -10.328125l1.984375 0l0 10.265625q0 1.640625 0.90625 2.5625q0.90625 0.90625 2.578125 0.90625q1.703125 0 2.59375 -0.90625q0.90625 -0.90625 0.90625 -2.5625l0 -10.265625l2.015625 0zm4.673706 3.890625l0.0625 1.40625q1.296875 -1.609375 3.375 -1.609375q3.578125 0 3.609375 4.015625l0 7.453125l-1.9375 0l0 -7.453125q0 -1.21875 -0.546875 -1.796875q-0.546875 -0.59375 -1.703125 -0.59375q-0.9375 0 -1.65625 0.5q-0.703125 0.5 -1.09375 1.3125l0 8.03125l-1.9375 0l0 -11.265625l1.828125 0zm11.76796 0l0.0625 1.40625q1.296875 -1.609375 3.375 -1.609375q3.578125 0 3.609375 4.015625l0 7.453125l-1.9375 0l0 -7.453125q0 -1.21875 -0.546875 -1.796875q-0.546875 -0.59375 -1.703125 -0.59375q-0.9375 0 -1.65625 0.5q-0.703125 0.5 -1.09375 1.3125l0 8.03125l-1.9375 0l0 -11.265625l1.828125 0zm14.627335 11.46875q-2.296875 0 -3.734375 -1.5q-1.4375 -1.5 -1.4375 -4.03125l0 -0.34375q0 -1.6875 0.640625 -3.0q0.640625 -1.3125 1.78125 -2.046875q1.15625 -0.75 2.5 -0.75q2.203125 0 3.421875 1.453125q1.21875 1.4375 1.21875 4.125l0 0.8125l-7.640625 0q0.046875 1.65625 0.96875 2.6875q0.9375 1.03125 2.375 1.03125q1.03125 0 1.734375 -0.421875q0.703125 -0.421875 1.234375 -1.109375l1.1875 0.921875q-1.421875 2.171875 -4.25 2.171875zm-0.25 -10.09375q-1.15625 0 -1.953125 0.84375q-0.796875 0.84375 -0.984375 2.375l5.65625 0l0 -0.140625q-0.09375 -1.46875 -0.796875 -2.265625q-0.703125 -0.8125 -1.921875 -0.8125zm11.393082 8.53125q1.03125 0 1.796875 -0.625q0.765625 -0.625 0.859375 -1.5625l1.8125 0q-0.046875 0.96875 -0.671875 1.84375q-0.609375 0.875 -1.640625 1.390625q-1.015625 0.515625 -2.15625 0.515625q-2.3125 0 -3.671875 -1.53125q-1.359375 -1.53125 -1.359375 -4.203125l0 -0.328125q0 -1.640625 0.609375 -2.921875q0.609375 -1.28125 1.734375 -1.984375q1.125 -0.703125 2.671875 -0.703125q1.890625 0 3.140625 1.140625q1.265625 1.125 1.34375 2.9375l-1.8125 0q-0.09375 -1.09375 -0.84375 -1.796875q-0.734375 -0.703125 -1.828125 -0.703125q-1.46875 0 -2.28125 1.0625q-0.796875 1.046875 -0.796875 3.046875l0 0.359375q0 1.953125 0.796875 3.015625q0.796875 1.046875 2.296875 1.046875zm11.32019 1.5625q-2.296875 0 -3.734375 -1.5q-1.4375 -1.5 -1.4375 -4.03125l0 -0.34375q0 -1.6875 0.640625 -3.0q0.640625 -1.3125 1.78125 -2.046875q1.15625 -0.75 2.5 -0.75q2.203125 0 3.421875 1.453125q1.21875 1.4375 1.21875 4.125l0 0.8125l-7.640625 0q0.046875 1.65625 0.96875 2.6875q0.9375 1.03125 2.375 1.03125q1.03125 0 1.734375 -0.421875q0.703125 -0.421875 1.234375 -1.109375l1.1875 0.921875q-1.421875 2.171875 -4.25 2.171875zm-0.25 -10.09375q-1.15625 0 -1.953125 0.84375q-0.796875 0.84375 -0.984375 2.375l5.65625 0l0 -0.140625q-0.09375 -1.46875 -0.796875 -2.265625q-0.703125 -0.8125 -1.921875 -0.8125zm13.424332 6.90625q0 -0.78125 -0.59375 -1.21875q-0.578125 -0.4375 -2.046875 -0.75q-1.453125 -0.3125 -2.3125 -0.75q-0.859375 -0.4375 -1.28125 -1.03125q-0.40625 -0.609375 -0.40625 -1.4375q0 -1.390625 1.171875 -2.34375q1.171875 -0.953125 3.0 -0.953125q1.90625 0 3.09375 0.984375q1.203125 0.984375 1.203125 2.53125l-1.9375 0q0 -0.796875 -0.671875 -1.359375q-0.671875 -0.578125 -1.6875 -0.578125q-1.0625 0 -1.65625 0.453125q-0.59375 0.453125 -0.59375 1.203125q0 0.6875 0.546875 1.046875q0.5625 0.359375 2.0 0.6875q1.453125 0.3125 2.34375 0.765625q0.890625 0.4375 1.328125 1.078125q0.4375 0.625 0.4375 1.53125q0 1.515625 -1.21875 2.421875q-1.203125 0.90625 -3.125 0.90625q-1.359375 0 -2.40625 -0.46875q-1.03125 -0.484375 -1.625 -1.34375q-0.59375 -0.859375 -0.59375 -1.859375l1.9375 0q0.046875 0.96875 0.765625 1.546875q0.734375 0.5625 1.921875 0.5625q1.09375 0 1.75 -0.4375q0.65625 -0.453125 0.65625 -1.1875zm10.997314 0q0 -0.78125 -0.59375 -1.21875q-0.578125 -0.4375 -2.046875 -0.75q-1.453125 -0.3125 -2.3125 -0.75q-0.859375 -0.4375 -1.28125 -1.03125q-0.40625 -0.609375 -0.40625 -1.4375q0 -1.390625 1.171875 -2.34375q1.171875 -0.953125 3.0 -0.953125q1.90625 0 3.09375 0.984375q1.203125 0.984375 1.203125 2.53125l-1.9375 0q0 -0.796875 -0.671875 -1.359375q-0.671875 -0.578125 -1.6875 -0.578125q-1.0625 0 -1.65625 0.453125q-0.59375 0.453125 -0.59375 1.203125q0 0.6875 0.546875 1.046875q0.5625 0.359375 2.0 0.6875q1.453125 0.3125 2.34375 0.765625q0.890625 0.4375 1.328125 1.078125q0.4375 0.625 0.4375 1.53125q0 1.515625 -1.21875 2.421875q-1.203125 0.90625 -3.125 0.90625q-1.359375 0 -2.40625 -0.46875q-1.03125 -0.484375 -1.625 -1.34375q-0.59375 -0.859375 -0.59375 -1.859375l1.9375 0q0.046875 0.96875 0.765625 1.546875q0.734375 0.5625 1.921875 0.5625q1.09375 0 1.75 -0.4375q0.65625 -0.453125 0.65625 -1.1875zm11.403564 2.984375q-0.171875 -0.328125 -0.28125 -1.1875q-1.34375 1.390625 -3.203125 1.390625q-1.671875 0 -2.734375 -0.9375q-1.0625 -0.9375 -1.0625 -2.390625q0 -1.765625 1.328125 -2.734375q1.34375 -0.96875 3.765625 -0.96875l1.875 0l0 -0.890625q0 -1.015625 -0.609375 -1.609375q-0.59375 -0.59375 -1.765625 -0.59375q-1.03125 0 -1.734375 0.515625q-0.703125 0.515625 -0.703125 1.265625l-1.9375 0q0 -0.84375 0.59375 -1.625q0.609375 -0.796875 1.625 -1.25q1.03125 -0.453125 2.265625 -0.453125q1.953125 0 3.046875 0.96875q1.109375 0.96875 1.15625 2.671875l0 5.1875q0 1.5625 0.390625 2.46875l0 0.171875l-2.015625 0zm-3.203125 -1.46875q0.90625 0 1.71875 -0.46875q0.8125 -0.46875 1.171875 -1.21875l0 -2.3125l-1.5 0q-3.546875 0 -3.546875 2.078125q0 0.90625 0.59375 1.421875q0.609375 0.5 1.5625 0.5zm13.288818 -8.078125q-0.4375 -0.0625 -0.953125 -0.0625q-1.890625 0 -2.5625 1.609375l0 8.0l-1.9375 0l0 -11.265625l1.875 0l0.03125 1.296875q0.953125 -1.5 2.6875 -1.5q0.5625 0 0.859375 0.140625l0 1.78125zm5.6388855 6.71875l2.625 -8.4375l2.0625 0l-4.53125 13.0q-1.046875 2.8124924 -3.34375 2.8124924l-0.359375 -0.03125l-0.71875 -0.12499237l0 -1.5625l0.515625 0.03125q0.984375 0 1.53125 -0.390625q0.546875 -0.390625 0.90625 -1.453125l0.421875 -1.140625l-4.015625 -11.140625l2.09375 0l2.8125 8.4375zm21.199371 -2.6875q0 2.578125 -1.171875 4.15625q-1.171875 1.5625 -3.1875 1.5625q-2.046875 0 -3.21875 -1.296875l0 5.421875l-1.9375 0l0 -15.59375l1.765625 0l0.09375 1.25q1.171875 -1.453125 3.265625 -1.453125q2.03125 0 3.203125 1.53125q1.1875 1.515625 1.1875 4.25l0 0.171875zm-1.921875 -0.21875q0 -1.90625 -0.8125 -3.0q-0.8125 -1.109375 -2.21875 -1.109375q-1.75 0 -2.625 1.546875l0 5.390625q0.859375 1.546875 2.640625 1.546875q1.390625 0 2.203125 -1.09375q0.8125 -1.109375 0.8125 -3.28125zm9.825226 -3.8125q-0.4375 -0.0625 -0.953125 -0.0625q-1.890625 0 -2.5625 1.609375l0 8.0l-1.9375 0l0 -11.265625l1.875 0l0.03125 1.296875q0.953125 -1.5 2.6875 -1.5q0.5625 0 0.859375 0.140625l0 1.78125zm1.055542 3.8125q0 -1.65625 0.640625 -2.984375q0.65625 -1.328125 1.8125 -2.03125q1.171875 -0.71875 2.65625 -0.71875q2.296875 0 3.71875 1.59375q1.421875 1.578125 1.421875 4.234375l0 0.125q0 1.65625 -0.625 2.96875q-0.625 1.296875 -1.796875 2.03125q-1.171875 0.71875 -2.703125 0.71875q-2.28125 0 -3.703125 -1.59375q-1.421875 -1.59375 -1.421875 -4.21875l0 -0.125zm1.9375 0.21875q0 1.875 0.859375 3.015625q0.875 1.140625 2.328125 1.140625q1.46875 0 2.328125 -1.15625q0.875 -1.15625 0.875 -3.21875q0 -1.859375 -0.890625 -3.0q-0.875 -1.15625 -2.328125 -1.15625q-1.421875 0 -2.296875 1.140625q-0.875 1.125 -0.875 3.234375zm15.257446 4.15625q1.03125 0 1.796875 -0.625q0.765625 -0.625 0.859375 -1.5625l1.8125 0q-0.046875 0.96875 -0.671875 1.84375q-0.609375 0.875 -1.640625 1.390625q-1.015625 0.515625 -2.15625 0.515625q-2.3125 0 -3.671875 -1.53125q-1.359375 -1.53125 -1.359375 -4.203125l0 -0.328125q0 -1.640625 0.609375 -2.921875q0.609375 -1.28125 1.734375 -1.984375q1.125 -0.703125 2.671875 -0.703125q1.890625 0 3.140625 1.140625q1.265625 1.125 1.34375 2.9375l-1.8125 0q-0.09375 -1.09375 -0.84375 -1.796875q-0.734375 -0.703125 -1.828125 -0.703125q-1.46875 0 -2.28125 1.0625q-0.796875 1.046875 -0.796875 3.046875l0 0.359375q0 1.953125 0.796875 3.015625q0.796875 1.046875 2.296875 1.046875zm11.32019 1.5625q-2.296875 0 -3.734375 -1.5q-1.4375 -1.5 -1.4375 -4.03125l0 -0.34375q0 -1.6875 0.640625 -3.0q0.640625 -1.3125 1.78125 -2.046875q1.15625 -0.75 2.5 -0.75q2.203125 0 3.421875 1.453125q1.21875 1.4375 1.21875 4.125l0 0.8125l-7.640625 0q0.046875 1.65625 0.96875 2.6875q0.9375 1.03125 2.375 1.03125q1.03125 0 1.734375 -0.421875q0.703125 -0.421875 1.234375 -1.109375l1.1875 0.921875q-1.421875 2.171875 -4.25 2.171875zm-0.25 -10.09375q-1.15625 0 -1.953125 0.84375q-0.796875 0.84375 -0.984375 2.375l5.65625 0l0 -0.140625q-0.09375 -1.46875 -0.796875 -2.265625q-0.703125 -0.8125 -1.921875 -0.8125zm13.424316 6.90625q0 -0.78125 -0.59375 -1.21875q-0.578125 -0.4375 -2.046875 -0.75q-1.453125 -0.3125 -2.3125 -0.75q-0.859375 -0.4375 -1.28125 -1.03125q-0.40625 -0.609375 -0.40625 -1.4375q0 -1.390625 1.171875 -2.34375q1.171875 -0.953125 3.0 -0.953125q1.90625 0 3.09375 0.984375q1.203125 0.984375 1.203125 2.53125l-1.9375 0q0 -0.796875 -0.671875 -1.359375q-0.671875 -0.578125 -1.6875 -0.578125q-1.0625 0 -1.65625 0.453125q-0.59375 0.453125 -0.59375 1.203125q0 0.6875 0.546875 1.046875q0.5625 0.359375 2.0 0.6875q1.453125 0.3125 2.34375 0.765625q0.890625 0.4375 1.328125 1.078125q0.4375 0.625 0.4375 1.53125q0 1.515625 -1.21875 2.421875q-1.203125 0.90625 -3.125 0.90625q-1.359375 0 -2.40625 -0.46875q-1.03125 -0.484375 -1.625 -1.34375q-0.59375 -0.859375 -0.59375 -1.859375l1.9375 0q0.046875 0.96875 0.765625 1.546875q0.734375 0.5625 1.921875 0.5625q1.09375 0 1.75 -0.4375q0.65625 -0.453125 0.65625 -1.1875zm10.997314 0q0 -0.78125 -0.59375 -1.21875q-0.578125 -0.4375 -2.046875 -0.75q-1.453125 -0.3125 -2.3125 -0.75q-0.859375 -0.4375 -1.28125 -1.03125q-0.40625 -0.609375 -0.40625 -1.4375q0 -1.390625 1.171875 -2.34375q1.171875 -0.953125 3.0 -0.953125q1.90625 0 3.09375 0.984375q1.203125 0.984375 1.203125 2.53125l-1.9375 0q0 -0.796875 -0.671875 -1.359375q-0.671875 -0.578125 -1.6875 -0.578125q-1.0625 0 -1.65625 0.453125q-0.59375 0.453125 -0.59375 1.203125q0 0.6875 0.546875 1.046875q0.5625 0.359375 2.0 0.6875q1.453125 0.3125 2.34375 0.765625q0.890625 0.4375 1.328125 1.078125q0.4375 0.625 0.4375 1.53125q0 1.515625 -1.21875 2.421875q-1.203125 0.90625 -3.125 0.90625q-1.359375 0 -2.40625 -0.46875q-1.03125 -0.484375 -1.625 -1.34375q-0.59375 -0.859375 -0.59375 -1.859375l1.9375 0q0.046875 0.96875 0.765625 1.546875q0.734375 0.5625 1.921875 0.5625q1.09375 0 1.75 -0.4375q0.65625 -0.453125 0.65625 -1.1875zm6.5285645 2.984375l-1.921875 0l0 -11.265625l1.921875 0l0 11.265625zm-2.078125 -14.25q0 -0.46875 0.28125 -0.796875q0.296875 -0.328125 0.859375 -0.328125q0.5625 0 0.84375 0.328125q0.296875 0.328125 0.296875 0.796875q0 0.46875 -0.296875 0.78125q-0.28125 0.3125 -0.84375 0.3125q-0.5625 0 -0.859375 -0.3125q-0.28125 -0.3125 -0.28125 -0.78125zm6.9883423 2.984375l0.0625 1.40625q1.296875 -1.609375 3.375 -1.609375q3.578125 0 3.609375 4.015625l0 7.453125l-1.9375 0l0 -7.453125q0 -1.21875 -0.546875 -1.796875q-0.546875 -0.59375 -1.703125 -0.59375q-0.9375 0 -1.65625 0.5q-0.703125 0.5 -1.09375 1.3125l0 8.03125l-1.9375 0l0 -11.265625l1.828125 0zm9.486694 5.53125q0 -2.625 1.21875 -4.171875q1.21875 -1.5625 3.234375 -1.5625q2.0625 0 3.21875 1.453125l0.09375 -1.25l1.75 0l0 11.0q0 2.1875 -1.296875 3.4375q-1.296875 1.2656174 -3.484375 1.2656174q-1.21875 0 -2.390625 -0.5312424q-1.15625 -0.515625 -1.765625 -1.421875l1.0 -1.15625q1.234375 1.53125 3.03125 1.53125q1.40625 0 2.1875 -0.796875q0.78125 -0.78125 0.78125 -2.21875l0 -0.96875q-1.15625 1.328125 -3.15625 1.328125q-1.96875 0 -3.203125 -1.59375q-1.21875 -1.59375 -1.21875 -4.34375zm1.9375 0.21875q0 1.90625 0.78125 3.0q0.78125 1.09375 2.1875 1.09375q1.828125 0 2.671875 -1.65625l0 -5.15625q-0.875 -1.609375 -2.65625 -1.609375q-1.40625 0 -2.203125 1.09375q-0.78125 1.09375 -0.78125 3.234375z" fill-rule="nonzero"/><path fill="#000000" fill-opacity="0.0" d="m159.43701 32.28609l268.50394 0l0 43.181103l-268.50394 0z" fill-rule="evenodd"/><path fill="#3c4043" d="m169.56201 53.153515l-6.359375 0l0 6.703125l-2.0 0l0 -15.15625l9.390625 0l0 1.640625l-7.390625 0l0 5.1875l6.359375 0l0 1.625zm9.731491 6.703125q-0.171875 -0.328125 -0.28125 -1.1875q-1.34375 1.390625 -3.203125 1.390625q-1.671875 0 -2.734375 -0.9375q-1.0625 -0.9375 -1.0625 -2.390625q0 -1.765625 1.328125 -2.734375q1.34375 -0.96875 3.765625 -0.96875l1.875 0l0 -0.890625q0 -1.015625 -0.609375 -1.609375q-0.59375 -0.59375 -1.765625 -0.59375q-1.03125 0 -1.734375 0.515625q-0.703125 0.515625 -0.703125 1.265625l-1.9375 0q0 -0.84375 0.59375 -1.625q0.609375 -0.796875 1.625 -1.25q1.03125 -0.453125 2.265625 -0.453125q1.953125 0 3.046875 0.96875q1.109375 0.96875 1.15625 2.671875l0 5.1875q0 1.5625 0.390625 2.46875l0 0.171875l-2.015625 0zm-3.203125 -1.46875q0.90625 0 1.71875 -0.46875q0.8125 -0.46875 1.171875 -1.21875l0 -2.3125l-1.5 0q-3.546875 0 -3.546875 2.078125q0 0.90625 0.59375 1.421875q0.609375 0.5 1.5625 0.5zm14.398209 -1.515625q0 -0.78125 -0.59375 -1.21875q-0.578125 -0.4375 -2.046875 -0.75q-1.453125 -0.3125 -2.3125 -0.75q-0.859375 -0.4375 -1.28125 -1.03125q-0.40625 -0.609375 -0.40625 -1.4375q0 -1.390625 1.171875 -2.34375q1.171875 -0.953125 3.0 -0.953125q1.90625 0 3.09375 0.984375q1.203125 0.984375 1.203125 2.53125l-1.9375 0q0 -0.796875 -0.671875 -1.359375q-0.671875 -0.578125 -1.6875 -0.578125q-1.0625 0 -1.65625 0.453125q-0.59375 0.453125 -0.59375 1.203125q0 0.6875 0.546875 1.046875q0.5625 0.359375 2.0 0.6875q1.453125 0.3125 2.34375 0.765625q0.890625 0.4375 1.328125 1.078125q0.4375 0.625 0.4375 1.53125q0 1.515625 -1.21875 2.421875q-1.203125 0.90625 -3.125 0.90625q-1.359375 0 -2.40625 -0.46875q-1.03125 -0.484375 -1.625 -1.34375q-0.59375 -0.859375 -0.59375 -1.859375l1.9375 0q0.046875 0.96875 0.765625 1.546875q0.734375 0.5625 1.921875 0.5625q1.09375 0 1.75 -0.4375q0.65625 -0.453125 0.65625 -1.1875zm7.0598145 -11.015625l0 2.734375l2.09375 0l0 1.484375l-2.09375 0l0 6.984375q0 0.6875 0.28125 1.03125q0.28125 0.328125 0.953125 0.328125q0.328125 0 0.921875 -0.125l0 1.5625q-0.765625 0.203125 -1.484375 0.203125q-1.296875 0 -1.953125 -0.78125q-0.65625 -0.78125 -0.65625 -2.21875l0 -6.984375l-2.046875 0l0 -1.484375l2.046875 0l0 -2.734375l1.9375 0zm14.309525 14.203125q-2.296875 0 -3.734375 -1.5q-1.4375 -1.5 -1.4375 -4.03125l0 -0.34375q0 -1.6875 0.640625 -3.0q0.640625 -1.3125 1.78125 -2.046875q1.15625 -0.75 2.5 -0.75q2.203125 0 3.421875 1.453125q1.21875 1.4375 1.21875 4.125l0 0.8125l-7.640625 0q0.046875 1.65625 0.96875 2.6875q0.9375 1.03125 2.375 1.03125q1.03125 0 1.734375 -0.421875q0.703125 -0.421875 1.234375 -1.109375l1.1875 0.921875q-1.421875 2.171875 -4.25 2.171875zm-0.25 -10.09375q-1.15625 0 -1.953125 0.84375q-0.796875 0.84375 -0.984375 2.375l5.65625 0l0 -0.140625q-0.09375 -1.46875 -0.796875 -2.265625q-0.703125 -0.8125 -1.921875 -0.8125zm8.689957 -1.375l0.0625 1.40625q1.296875 -1.609375 3.375 -1.609375q3.578125 0 3.609375 4.015625l0 7.453125l-1.9375 0l0 -7.453125q0 -1.21875 -0.546875 -1.796875q-0.546875 -0.59375 -1.703125 -0.59375q-0.9375 0 -1.65625 0.5q-0.703125 0.5 -1.09375 1.3125l0 8.03125l-1.9375 0l0 -11.265625l1.828125 0zm9.439835 5.53125q0 -1.65625 0.640625 -2.984375q0.65625 -1.328125 1.8125 -2.03125q1.171875 -0.71875 2.65625 -0.71875q2.296875 0 3.71875 1.59375q1.421875 1.578125 1.421875 4.234375l0 0.125q0 1.65625 -0.625 2.96875q-0.625 1.296875 -1.796875 2.03125q-1.171875 0.71875 -2.703125 0.71875q-2.28125 0 -3.703125 -1.59375q-1.421875 -1.59375 -1.421875 -4.21875l0 -0.125zm1.9375 0.21875q0 1.875 0.859375 3.015625q0.875 1.140625 2.328125 1.140625q1.46875 0 2.328125 -1.15625q0.875 -1.15625 0.875 -3.21875q0 -1.859375 -0.890625 -3.0q-0.875 -1.15625 -2.328125 -1.15625q-1.421875 0 -2.296875 1.140625q-0.875 1.125 -0.875 3.234375zm17.694946 4.40625q-1.125 1.3125 -3.3125 1.3125q-1.796875 0 -2.75 -1.046875q-0.9375 -1.046875 -0.9375 -3.09375l0 -7.328125l1.921875 0l0 7.28125q0 2.5625 2.078125 2.5625q2.21875 0 2.9375 -1.65625l0 -8.1875l1.9375 0l0 11.265625l-1.84375 0l-0.03125 -1.109375zm4.335678 -4.625q0 -2.625 1.21875 -4.171875q1.21875 -1.5625 3.234375 -1.5625q2.0625 0 3.21875 1.453125l0.09375 -1.25l1.75 0l0 11.0q0 2.1875 -1.296875 3.4375q-1.296875 1.2656212 -3.484375 1.2656212q-1.21875 0 -2.390625 -0.5312462q-1.15625 -0.515625 -1.765625 -1.421875l1.0 -1.15625q1.234375 1.53125 3.03125 1.53125q1.40625 0 2.1875 -0.796875q0.78125 -0.78125 0.78125 -2.21875l0 -0.96875q-1.15625 1.328125 -3.15625 1.328125q-1.96875 0 -3.203125 -1.59375q-1.21875 -1.59375 -1.21875 -4.34375zm1.9375 0.21875q0 1.90625 0.78125 3.0q0.78125 1.09375 2.1875 1.09375q1.828125 0 2.671875 -1.65625l0 -5.15625q-0.875 -1.609375 -2.65625 -1.609375q-1.40625 0 -2.203125 1.09375q-0.78125 1.09375 -0.78125 3.234375zm12.418945 -4.390625q1.28125 -1.5625 3.328125 -1.5625q3.578125 0 3.609375 4.015625l0 7.453125l-1.9375 0l0 -7.453125q0 -1.21875 -0.546875 -1.796875q-0.546875 -0.59375 -1.703125 -0.59375q-0.9375 0 -1.65625 0.5q-0.703125 0.5 -1.09375 1.3125l0 8.03125l-1.9375 0l0 -16.0l1.9375 0l0 6.09375zm19.62085 8.546875q1.03125 0 1.796875 -0.625q0.765625 -0.625 0.859375 -1.5625l1.8125 0q-0.046875 0.96875 -0.671875 1.84375q-0.609375 0.875 -1.640625 1.390625q-1.015625 0.515625 -2.15625 0.515625q-2.3125 0 -3.671875 -1.53125q-1.359375 -1.53125 -1.359375 -4.203125l0 -0.328125q0 -1.640625 0.609375 -2.921875q0.609375 -1.28125 1.734375 -1.984375q1.125 -0.703125 2.671875 -0.703125q1.890625 0 3.140625 1.140625q1.265625 1.125 1.34375 2.9375l-1.8125 0q-0.09375 -1.09375 -0.84375 -1.796875q-0.734375 -0.703125 -1.828125 -0.703125q-1.46875 0 -2.28125 1.0625q-0.796875 1.046875 -0.796875 3.046875l0 0.359375q0 1.953125 0.796875 3.015625q0.796875 1.046875 2.296875 1.046875zm6.1326904 -4.375q0 -1.65625 0.640625 -2.984375q0.65625 -1.328125 1.8125 -2.03125q1.171875 -0.71875 2.65625 -0.71875q2.296875 0 3.71875 1.59375q1.421875 1.578125 1.421875 4.234375l0 0.125q0 1.65625 -0.625 2.96875q-0.625 1.296875 -1.796875 2.03125q-1.171875 0.71875 -2.703125 0.71875q-2.28125 0 -3.703125 -1.59375q-1.421875 -1.59375 -1.421875 -4.21875l0 -0.125zm1.9375 0.21875q0 1.875 0.859375 3.015625q0.875 1.140625 2.328125 1.140625q1.46875 0 2.328125 -1.15625q0.875 -1.15625 0.875 -3.21875q0 -1.859375 -0.890625 -3.0q-0.875 -1.15625 -2.328125 -1.15625q-1.421875 0 -2.296875 1.140625q-0.875 1.125 -0.875 3.234375zm10.257446 -0.21875q0 -2.59375 1.234375 -4.15625q1.234375 -1.578125 3.21875 -1.578125q1.984375 0 3.140625 1.34375l0 -5.875l1.921875 0l0 16.0l-1.765625 0l-0.09375 -1.203125q-1.15625 1.40625 -3.21875 1.40625q-1.96875 0 -3.203125 -1.59375q-1.234375 -1.609375 -1.234375 -4.1875l0 -0.15625zm1.9375 0.21875q0 1.921875 0.78125 3.015625q0.796875 1.078125 2.1875 1.078125q1.84375 0 2.6875 -1.65625l0 -5.171875q-0.875 -1.59375 -2.65625 -1.59375q-1.421875 0 -2.21875 1.09375q-0.78125 1.09375 -0.78125 3.234375zm15.24707 5.71875q-2.296875 0 -3.734375 -1.5q-1.4375 -1.5 -1.4375 -4.03125l0 -0.34375q0 -1.6875 0.640625 -3.0q0.640625 -1.3125 1.78125 -2.046875q1.15625 -0.75 2.5 -0.75q2.203125 0 3.421875 1.453125q1.21875 1.4375 1.21875 4.125l0 0.8125l-7.640625 0q0.046875 1.65625 0.96875 2.6875q0.9375 1.03125 2.375 1.03125q1.03125 0 1.734375 -0.421875q0.703125 -0.421875 1.234375 -1.109375l1.1875 0.921875q-1.421875 2.171875 -4.25 2.171875zm-0.25 -10.09375q-1.15625 0 -1.953125 0.84375q-0.796875 0.84375 -0.984375 2.375l5.65625 0l0 -0.140625q-0.09375 -1.46875 -0.796875 -2.265625q-0.703125 -0.8125 -1.921875 -0.8125z" fill-rule="nonzero"/><path fill="#000000" fill-opacity="0.0" d="m493.83466 89.97113l20.850403 0l0 22.83464l-20.850403 0z" fill-rule="evenodd"/><path fill="#ffffff" d="m111.74803 434.8924l0 0c0 -8.601746 6.9801254 -15.574799 15.590553 -15.574799l0 0c4.134865 0 8.10038 1.6408997 11.024178 4.561737c2.9237976 2.9208374 4.5663757 6.8823547 4.5663757 11.013062l0 0c0 8.601715 -6.980133 15.574799 -15.590553 15.574799l0 0c-8.610428 0 -15.590553 -6.9730835 -15.590553 -15.574799z" fill-rule="evenodd"/><path stroke="#4285f4" stroke-width="2.0" stroke-linejoin="round" stroke-linecap="butt" d="m111.74803 434.8924l0 0c0 -8.601746 6.9801254 -15.574799 15.590553 -15.574799l0 0c4.134865 0 8.10038 1.6408997 11.024178 4.561737c2.9237976 2.9208374 4.5663757 6.8823547 4.5663757 11.013062l0 0c0 8.601715 -6.980133 15.574799 -15.590553 15.574799l0 0c-8.610428 0 -15.590553 -6.9730835 -15.590553 -15.574799z" fill-rule="evenodd"/><path fill="#ffffff" d="m111.74803 386.8924l0 0c0 -8.601746 6.9801254 -15.574799 15.590553 -15.574799l0 0c4.134865 0 8.10038 1.6408997 11.024178 4.561737c2.9237976 2.9208374 4.5663757 6.8823547 4.5663757 11.013062l0 0c0 8.601715 -6.980133 15.574799 -15.590553 15.574799l0 0c-8.610428 0 -15.590553 -6.9730835 -15.590553 -15.574799z" fill-rule="evenodd"/><path stroke="#4285f4" stroke-width="2.0" stroke-linejoin="round" stroke-linecap="butt" d="m111.74803 386.8924l0 0c0 -8.601746 6.9801254 -15.574799 15.590553 -15.574799l0 0c4.134865 0 8.10038 1.6408997 11.024178 4.561737c2.9237976 2.9208374 4.5663757 6.8823547 4.5663757 11.013062l0 0c0 8.601715 -6.980133 15.574799 -15.590553 15.574799l0 0c-8.610428 0 -15.590553 -6.9730835 -15.590553 -15.574799z" fill-rule="evenodd"/><path fill="#000000" fill-opacity="0.0" d="m503.99475 84.99475l396.44092 0l0 36.97638l-396.44092 0z" fill-rule="evenodd"/><path fill="#3c4043" d="m511.00714 115.71475l8.578125 -22.90625l4.953125 0l8.609375 22.90625l-4.765625 0l-5.34375 -15.203125l-0.828125 -2.75l-0.265625 0l-0.828125 2.75l-5.34375 15.203125l-4.765625 0zm10.8125 -5.46875l0 -3.96875l5.34375 0l1.40625 3.96875l-6.75 0zm-6.234375 0l1.375 -3.96875l4.859375 0l0 3.96875l-6.234375 0zm20.11969 5.46875l0 -22.90625l4.1875 0l0 22.90625l-4.1875 0zm8.35199 0l0 -22.90625l4.1875 0l0 22.90625l-4.1875 0zm15.973267 0.515625q-2.5625 0 -4.53125 -1.140625q-1.96875 -1.140625 -3.078125 -3.109375q-1.09375 -1.96875 -1.09375 -4.421875q0 -2.46875 1.09375 -4.4375q1.109375 -1.96875 3.078125 -3.09375q1.96875 -1.140625 4.53125 -1.140625q2.5625 0 4.5 1.15625q1.953125 1.140625 3.0625 3.09375q1.109375 1.953125 1.109375 4.421875q0 2.453125 -1.109375 4.421875q-1.109375 1.96875 -3.0625 3.109375q-1.9375 1.140625 -4.5 1.140625zm0 -3.90625q1.21875 0 2.21875 -0.5625q1.015625 -0.5625 1.640625 -1.625q0.625 -1.078125 0.625 -2.578125q0 -1.5 -0.625 -2.5625q-0.625 -1.0625 -1.640625 -1.625q-1.0 -0.578125 -2.1875 -0.578125q-1.21875 0 -2.265625 0.578125q-1.03125 0.5625 -1.65625 1.625q-0.625 1.0625 -0.625 2.5625q0 1.5 0.625 2.578125q0.625 1.0625 1.65625 1.625q1.046875 0.5625 2.234375 0.5625zm19.555054 3.90625q-2.5 0 -4.4375 -1.109375q-1.9375 -1.109375 -3.046875 -3.0625q-1.09375 -1.96875 -1.09375 -4.5q0 -2.53125 1.09375 -4.484375q1.109375 -1.953125 3.046875 -3.0625q1.9375 -1.125 4.4375 -1.125q2.71875 0 4.671875 1.15625q1.953125 1.140625 2.8125 3.3125l-3.84375 1.609375q-0.515625 -1.125 -1.4375 -1.640625q-0.921875 -0.53125 -2.203125 -0.53125q-1.25 0 -2.25 0.59375q-0.984375 0.578125 -1.5625 1.640625q-0.578125 1.0625 -0.578125 2.53125q0 1.46875 0.578125 2.546875q0.578125 1.0625 1.5625 1.65625q1.0 0.59375 2.25 0.59375q1.40625 0 2.328125 -0.625q0.921875 -0.625 1.5 -1.71875l3.75 1.671875q-0.953125 2.046875 -2.90625 3.296875q-1.953125 1.25 -4.671875 1.25zm15.488525 0q-1.734375 0 -3.0625 -0.6875q-1.328125 -0.6875 -2.09375 -1.9375q-0.765625 -1.25 -0.765625 -2.875q0 -1.703125 0.875 -2.921875q0.875 -1.21875 2.359375 -1.890625q1.5 -0.671875 3.328125 -0.671875q0.984375 0 1.796875 0.125q0.8125 0.109375 1.453125 0.265625q0.640625 0.15625 1.0625 0.34375l0 -0.703125q0 -1.3125 -1.0 -2.15625q-0.984375 -0.84375 -2.71875 -0.84375q-1.140625 0 -2.21875 0.53125q-1.078125 0.515625 -1.78125 1.390625l-2.6875 -2.109375q0.8125 -1.03125 1.859375 -1.75q1.0625 -0.71875 2.34375 -1.078125q1.28125 -0.375 2.6875 -0.375q3.734375 0 5.6875 1.734375q1.953125 1.71875 1.953125 5.046875l0 10.046875l-4.125 0l0 -1.65625l-0.25 0q-0.453125 0.5625 -1.125 1.0625q-0.671875 0.5 -1.578125 0.796875q-0.890625 0.3125 -2.0 0.3125zm0.984375 -3.265625q1.28125 0 2.15625 -0.5625q0.890625 -0.5625 1.34375 -1.453125q0.46875 -0.890625 0.46875 -1.890625q-0.703125 -0.359375 -1.609375 -0.5625q-0.890625 -0.203125 -1.8125 -0.203125q-1.859375 0 -2.5625 0.703125q-0.703125 0.703125 -0.703125 1.734375q0 0.953125 0.6875 1.59375q0.6875 0.640625 2.03125 0.640625zm10.491394 -13.5625l11.046875 0l0 3.578125l-11.046875 0l0 -3.578125zm2.859375 11.09375l0 -15.703125l4.1875 0l0 14.9375q0 1.125 0.46875 1.71875q0.484375 0.578125 1.609375 0.578125q0.640625 0 1.0625 -0.1875q0.4375 -0.1875 0.984375 -0.515625l0 4.109375q-0.671875 0.25 -1.390625 0.390625q-0.71875 0.140625 -1.515625 0.140625q-2.53125 0 -3.96875 -1.453125q-1.4375 -1.453125 -1.4375 -4.015625zm18.753174 5.734375q-2.46875 0 -4.40625 -1.125q-1.9375 -1.125 -3.046875 -3.0625q-1.09375 -1.953125 -1.09375 -4.453125q0 -2.34375 1.078125 -4.328125q1.09375 -1.984375 2.984375 -3.171875q1.890625 -1.203125 4.3125 -1.203125q2.625 0 4.421875 1.125q1.796875 1.109375 2.71875 2.984375q0.921875 1.875 0.921875 4.140625q0 0.515625 -0.03125 0.890625q-0.03125 0.359375 -0.0625 0.515625l-14.015625 0l0 -2.96875l10.078125 0q-0.03125 -0.546875 -0.328125 -1.125q-0.28125 -0.578125 -0.796875 -1.046875q-0.5 -0.484375 -1.21875 -0.78125q-0.71875 -0.3125 -1.65625 -0.3125q-1.203125 0 -2.21875 0.640625q-1.0 0.640625 -1.578125 1.78125q-0.578125 1.125 -0.578125 2.703125q0 1.625 0.609375 2.765625q0.609375 1.125 1.640625 1.71875q1.046875 0.59375 2.328125 0.59375q1.5 0 2.515625 -0.65625q1.03125 -0.65625 1.609375 -1.640625l3.390625 1.65625q-1.15625 2.015625 -3.015625 3.1875q-1.84375 1.171875 -4.5625 1.171875zm18.647034 -0.515625l0 -22.90625l4.1875 0l0 22.90625l-4.1875 0zm15.817017 0.515625q-2.46875 0 -4.40625 -1.125q-1.9375 -1.125 -3.046875 -3.0625q-1.09375 -1.953125 -1.09375 -4.453125q0 -2.34375 1.078125 -4.328125q1.09375 -1.984375 2.984375 -3.171875q1.890625 -1.203125 4.3125 -1.203125q2.625 0 4.421875 1.125q1.796875 1.109375 2.71875 2.984375q0.921875 1.875 0.921875 4.140625q0 0.515625 -0.03125 0.890625q-0.03125 0.359375 -0.0625 0.515625l-14.015625 0l0 -2.96875l10.078125 0q-0.03125 -0.546875 -0.328125 -1.125q-0.28125 -0.578125 -0.796875 -1.046875q-0.5 -0.484375 -1.21875 -0.78125q-0.71875 -0.3125 -1.65625 -0.3125q-1.203125 0 -2.21875 0.640625q-1.0 0.640625 -1.578125 1.78125q-0.578125 1.125 -0.578125 2.703125q0 1.625 0.609375 2.765625q0.609375 1.125 1.640625 1.71875q1.046875 0.59375 2.328125 0.59375q1.5 0 2.515625 -0.65625q1.03125 -0.65625 1.609375 -1.640625l3.390625 1.65625q-1.15625 2.015625 -3.015625 3.1875q-1.84375 1.171875 -4.5625 1.171875zm17.490967 0q-2.109375 0 -3.59375 -0.609375q-1.484375 -0.609375 -2.421875 -1.59375q-0.921875 -1.0 -1.375 -2.1875l3.75 -1.625q0.546875 1.140625 1.46875 1.734375q0.9375 0.59375 2.171875 0.59375q1.03125 0 1.859375 -0.328125q0.828125 -0.34375 0.828125 -1.234375q0 -0.640625 -0.4375 -1.0q-0.421875 -0.375 -1.0625 -0.578125q-0.640625 -0.21875 -1.3125 -0.34375l-1.921875 -0.421875q-1.171875 -0.25 -2.234375 -0.90625q-1.0625 -0.65625 -1.71875 -1.65625q-0.65625 -1.015625 -0.65625 -2.328125q0 -1.46875 0.84375 -2.546875q0.859375 -1.09375 2.3125 -1.703125q1.453125 -0.609375 3.21875 -0.609375q1.625 0 2.9375 0.390625q1.3125 0.375 2.265625 1.15625q0.96875 0.78125 1.546875 2.0l-3.578125 1.5625q-0.515625 -0.953125 -1.34375 -1.328125q-0.8125 -0.390625 -1.734375 -0.390625q-1.09375 0 -1.734375 0.421875q-0.625 0.40625 -0.625 0.984375q0 0.609375 0.625 1.0625q0.640625 0.4375 1.546875 0.671875l2.390625 0.5625q2.4375 0.578125 3.671875 1.859375q1.234375 1.28125 1.234375 3.078125q0 1.59375 -0.9375 2.796875q-0.921875 1.203125 -2.5 1.859375q-1.5625 0.65625 -3.484375 0.65625zm16.160034 0q-2.109375 0 -3.59375 -0.609375q-1.484375 -0.609375 -2.421875 -1.59375q-0.921875 -1.0 -1.375 -2.1875l3.75 -1.625q0.546875 1.140625 1.46875 1.734375q0.9375 0.59375 2.171875 0.59375q1.03125 0 1.859375 -0.328125q0.828125 -0.34375 0.828125 -1.234375q0 -0.640625 -0.4375 -1.0q-0.421875 -0.375 -1.0625 -0.578125q-0.640625 -0.21875 -1.3125 -0.34375l-1.921875 -0.421875q-1.171875 -0.25 -2.234375 -0.90625q-1.0625 -0.65625 -1.71875 -1.65625q-0.65625 -1.015625 -0.65625 -2.328125q0 -1.46875 0.84375 -2.546875q0.859375 -1.09375 2.3125 -1.703125q1.453125 -0.609375 3.21875 -0.609375q1.625 0 2.9375 0.390625q1.3125 0.375 2.265625 1.15625q0.96875 0.78125 1.546875 2.0l-3.578125 1.5625q-0.515625 -0.953125 -1.34375 -1.328125q-0.8125 -0.390625 -1.734375 -0.390625q-1.09375 0 -1.734375 0.421875q-0.625 0.40625 -0.625 0.984375q0 0.609375 0.625 1.0625q0.640625 0.4375 1.546875 0.671875l2.390625 0.5625q2.4375 0.578125 3.671875 1.859375q1.234375 1.28125 1.234375 3.078125q0 1.59375 -0.9375 2.796875q-0.921875 1.203125 -2.5 1.859375q-1.5625 0.65625 -3.484375 0.65625zm25.257385 0q-2.5625 0 -4.53125 -1.140625q-1.96875 -1.140625 -3.078125 -3.109375q-1.09375 -1.96875 -1.09375 -4.421875q0 -2.46875 1.09375 -4.4375q1.109375 -1.96875 3.078125 -3.09375q1.96875 -1.140625 4.53125 -1.140625q2.5625 0 4.5 1.15625q1.953125 1.140625 3.0625 3.09375q1.109375 1.953125 1.109375 4.421875q0 2.453125 -1.109375 4.421875q-1.109375 1.96875 -3.0625 3.109375q-1.9375 1.140625 -4.5 1.140625zm0 -3.90625q1.21875 0 2.21875 -0.5625q1.015625 -0.5625 1.640625 -1.625q0.625 -1.078125 0.625 -2.578125q0 -1.5 -0.625 -2.5625q-0.625 -1.0625 -1.640625 -1.625q-1.0 -0.578125 -2.1875 -0.578125q-1.21875 0 -2.265625 0.578125q-1.03125 0.5625 -1.65625 1.625q-0.625 1.0625 -0.625 2.5625q0 1.5 0.625 2.578125q0.625 1.0625 1.65625 1.625q1.046875 0.5625 2.234375 0.5625zm10.231323 -9.34375l0 -3.578125l13.578125 0l0 3.578125l-13.578125 0zm7.109375 -4.21875l0 16.953125l-4.1875 0l0 -17.21875q0 -1.921875 0.78125 -3.25q0.78125 -1.328125 2.140625 -2.015625q1.359375 -0.6875 3.09375 -0.6875q0.671875 0 1.09375 0.0625q0.4375 0.0625 0.6875 0.140625l0 4.03125q-0.21875 -0.078125 -0.59375 -0.1875q-0.359375 -0.109375 -0.9375 -0.109375q-0.609375 0 -1.078125 0.28125q-0.453125 0.265625 -0.734375 0.78125q-0.265625 0.515625 -0.265625 1.21875zm3.609375 0.640625l11.046875 0l0 3.578125l-11.046875 0l0 -3.578125zm2.859375 11.09375l0 -15.703125l4.1875 0l0 14.9375q0 1.125 0.46875 1.71875q0.484375 0.578125 1.609375 0.578125q0.640625 0 1.0625 -0.1875q0.4375 -0.1875 0.984375 -0.515625l0 4.109375q-0.671875 0.25 -1.390625 0.390625q-0.71875 0.140625 -1.515625 0.140625q-2.53125 0 -3.96875 -1.453125q-1.4375 -1.453125 -1.4375 -4.015625zm18.754395 5.734375q-2.46875 0 -4.40625 -1.125q-1.9375 -1.125 -3.046875 -3.0625q-1.09375 -1.953125 -1.09375 -4.453125q0 -2.34375 1.078125 -4.328125q1.09375 -1.984375 2.984375 -3.171875q1.890625 -1.203125 4.3125 -1.203125q2.625 0 4.421875 1.125q1.796875 1.109375 2.71875 2.984375q0.921875 1.875 0.921875 4.140625q0 0.515625 -0.03125 0.890625q-0.03125 0.359375 -0.0625 0.515625l-14.015625 0l0 -2.96875l10.078125 0q-0.03125 -0.546875 -0.328125 -1.125q-0.28125 -0.578125 -0.796875 -1.046875q-0.5 -0.484375 -1.21875 -0.78125q-0.71875 -0.3125 -1.65625 -0.3125q-1.203125 0 -2.21875 0.640625q-1.0 0.640625 -1.578125 1.78125q-0.578125 1.125 -0.578125 2.703125q0 1.625 0.609375 2.765625q0.609375 1.125 1.640625 1.71875q1.046875 0.59375 2.328125 0.59375q1.5 0 2.515625 -0.65625q1.03125 -0.65625 1.609375 -1.640625l3.390625 1.65625q-1.15625 2.015625 -3.015625 3.1875q-1.84375 1.171875 -4.5625 1.171875zm11.127808 -0.515625l0 -16.3125l3.9375 0l0 2.046875l0.25 0q0.734375 -1.1875 2.078125 -1.875q1.34375 -0.6875 2.921875 -0.6875q3.0 0 4.5 1.828125q1.515625 1.8125 1.515625 4.859375l0 10.140625l-4.1875 0l0 -9.625q0 -1.609375 -0.828125 -2.453125q-0.8125 -0.84375 -2.21875 -0.84375q-1.15625 0 -2.0 0.625q-0.84375 0.609375 -1.3125 1.65625q-0.46875 1.046875 -0.46875 2.328125l0 8.3125l-4.1875 0z" fill-rule="nonzero"/><path fill="#000000" fill-opacity="0.0" d="m504.00262 158.97375l387.0551 0l0 296.0315l-387.0551 0z" fill-rule="evenodd"/><path fill="#3c4043" d="m520.75653 170.07625q1.296875 0 2.53125 0.671875q1.25 0.671875 1.9375 1.921875q0.6875 1.234375 0.6875 2.5625q0 2.15625 -1.515625 3.671875q-1.5 1.5 -3.640625 1.5q-2.140625 0 -3.65625 -1.5q-1.5 -1.515625 -1.5 -3.671875q0 -1.34375 0.6875 -2.578125q0.6875 -1.234375 1.921875 -1.90625q1.25 -0.671875 2.546875 -0.671875z" fill-rule="nonzero"/><path fill="#3c4043" d="m563.4089 177.56062l-7.15625 0l-1.59375 4.453125l-2.328125 0l6.515625 -17.0625l1.96875 0l6.53125 17.0625l-2.3125 0l-1.625 -4.453125zm-6.46875 -1.859375l5.796875 0l-2.90625 -7.96875l-2.890625 7.96875zm14.71875 6.3125l-2.171875 0l0 -18.0l2.171875 0l0 18.0zm5.8242188 0l-2.171875 0l0 -18.0l2.171875 0l0 18.0zm2.8867188 -6.453125q0 -1.875 0.734375 -3.359375q0.734375 -1.484375 2.03125 -2.296875q1.3125 -0.8125 3.0 -0.8125q2.578125 0 4.171875 1.796875q1.609375 1.796875 1.609375 4.765625l0 0.15625q0 1.859375 -0.71875 3.328125q-0.703125 1.46875 -2.015625 2.296875q-1.3125 0.8125 -3.03125 0.8125q-2.578125 0 -4.1875 -1.796875q-1.59375 -1.796875 -1.59375 -4.75l0 -0.140625zm2.1875 0.25q0 2.109375 0.96875 3.390625q0.984375 1.28125 2.625 1.28125q1.65625 0 2.625 -1.296875q0.96875 -1.296875 0.96875 -3.625q0 -2.09375 -0.984375 -3.390625q-0.984375 -1.296875 -2.625 -1.296875q-1.609375 0 -2.59375 1.28125q-0.984375 1.28125 -0.984375 3.65625zm17.171875 4.671875q1.15625 0 2.015625 -0.703125q0.875 -0.703125 0.96875 -1.765625l2.046875 0q-0.0625 1.09375 -0.75 2.078125q-0.6875 0.984375 -1.84375 1.578125q-1.15625 0.578125 -2.4375 0.578125q-2.59375 0 -4.125 -1.71875q-1.53125 -1.734375 -1.53125 -4.734375l0 -0.375q0 -1.84375 0.671875 -3.28125q0.6875 -1.453125 1.953125 -2.25q1.28125 -0.796875 3.015625 -0.796875q2.125 0 3.53125 1.28125q1.421875 1.28125 1.515625 3.3125l-2.046875 0q-0.09375 -1.21875 -0.9375 -2.015625q-0.828125 -0.796875 -2.0625 -0.796875q-1.65625 0 -2.5625 1.203125q-0.90625 1.1875 -0.90625 3.4375l0 0.40625q0 2.1875 0.890625 3.375q0.90625 1.1875 2.59375 1.1875zm15.296875 1.53125q-0.1875 -0.375 -0.296875 -1.34375q-1.515625 1.578125 -3.609375 1.578125q-1.875 0 -3.078125 -1.0625q-1.203125 -1.0625 -1.203125 -2.6875q0 -1.984375 1.5 -3.078125q1.515625 -1.09375 4.234375 -1.09375l2.109375 0l0 -1.0q0 -1.140625 -0.6875 -1.8125q-0.671875 -0.671875 -1.984375 -0.671875q-1.171875 0 -1.953125 0.59375q-0.78125 0.578125 -0.78125 1.40625l-2.1875 0q0 -0.9375 0.671875 -1.828125q0.6875 -0.890625 1.828125 -1.40625q1.15625 -0.515625 2.546875 -0.515625q2.1875 0 3.421875 1.109375q1.25 1.09375 1.296875 3.015625l0 5.828125q0 1.75 0.453125 2.78125l0 0.1875l-2.28125 0zm-3.59375 -1.65625q1.015625 0 1.921875 -0.515625q0.921875 -0.53125 1.328125 -1.375l0 -2.609375l-1.6875 0q-3.984375 0 -3.984375 2.328125q0 1.03125 0.671875 1.609375q0.6875 0.5625 1.75 0.5625zm11.7578125 -14.09375l0 3.0625l2.375 0l0 1.6875l-2.375 0l0 7.859375q0 0.765625 0.3125 1.140625q0.328125 0.375 1.09375 0.375q0.375 0 1.03125 -0.140625l0 1.765625q-0.859375 0.234375 -1.671875 0.234375q-1.453125 0 -2.1875 -0.875q-0.734375 -0.890625 -0.734375 -2.5l0 -7.859375l-2.3125 0l0 -1.6875l2.3125 0l0 -3.0625l2.15625 0zm10.167969 15.984375q-2.578125 0 -4.203125 -1.6875q-1.609375 -1.703125 -1.609375 -4.53125l0 -0.40625q0 -1.890625 0.71875 -3.359375q0.71875 -1.484375 2.015625 -2.328125q1.296875 -0.84375 2.8125 -0.84375q2.46875 0 3.828125 1.640625q1.375 1.625 1.375 4.65625l0 0.90625l-8.578125 0q0.046875 1.875 1.09375 3.03125q1.046875 1.15625 2.65625 1.15625q1.15625 0 1.953125 -0.46875q0.796875 -0.46875 1.390625 -1.25l1.328125 1.03125q-1.59375 2.453125 -4.78125 2.453125zm-0.265625 -11.375q-1.3125 0 -2.203125 0.96875q-0.890625 0.953125 -1.109375 2.671875l6.359375 0l0 -0.171875q-0.09375 -1.640625 -0.890625 -2.546875q-0.796875 -0.921875 -2.15625 -0.921875zm21.046875 7.78125q0 -0.890625 -0.671875 -1.375q-0.65625 -0.484375 -2.3125 -0.828125q-1.640625 -0.359375 -2.609375 -0.84375q-0.96875 -0.5 -1.4375 -1.171875q-0.453125 -0.6875 -0.453125 -1.625q0 -1.5625 1.3125 -2.640625q1.328125 -1.078125 3.375 -1.078125q2.15625 0 3.5 1.125q1.34375 1.109375 1.34375 2.84375l-2.1875 0q0 -0.890625 -0.75 -1.53125q-0.75 -0.65625 -1.90625 -0.65625q-1.1875 0 -1.859375 0.515625q-0.65625 0.515625 -0.65625 1.359375q0 0.78125 0.609375 1.1875q0.625 0.390625 2.25 0.75q1.625 0.359375 2.625 0.875q1.015625 0.5 1.5 1.21875q0.484375 0.703125 0.484375 1.71875q0 1.703125 -1.359375 2.734375q-1.359375 1.015625 -3.515625 1.015625q-1.53125 0 -2.703125 -0.53125q-1.171875 -0.546875 -1.84375 -1.515625q-0.65625 -0.96875 -0.65625 -2.09375l2.171875 0q0.0625 1.09375 0.875 1.734375q0.8125 0.640625 2.15625 0.640625q1.21875 0 1.96875 -0.5q0.75 -0.5 0.75 -1.328125zm7.34375 3.359375l-2.171875 0l0 -18.0l2.171875 0l0 18.0zm5.8242188 0l-2.171875 0l0 -12.6875l2.171875 0l0 12.6875zm-2.34375 -16.046875q0 -0.53125 0.3125 -0.890625q0.328125 -0.359375 0.953125 -0.359375q0.640625 0 0.96875 0.359375q0.328125 0.359375 0.328125 0.890625q0 0.53125 -0.328125 0.890625q-0.328125 0.34375 -0.96875 0.34375q-0.625 0 -0.953125 -0.34375q-0.3125 -0.359375 -0.3125 -0.890625zm10.902344 14.515625q1.15625 0 2.015625 -0.703125q0.875 -0.703125 0.96875 -1.765625l2.046875 0q-0.0625 1.09375 -0.75 2.078125q-0.6875 0.984375 -1.84375 1.578125q-1.15625 0.578125 -2.4375 0.578125q-2.59375 0 -4.125 -1.71875q-1.53125 -1.734375 -1.53125 -4.734375l0 -0.375q0 -1.84375 0.671875 -3.28125q0.6875 -1.453125 1.953125 -2.25q1.28125 -0.796875 3.015625 -0.796875q2.125 0 3.53125 1.28125q1.421875 1.28125 1.515625 3.3125l-2.046875 0q-0.09375 -1.21875 -0.9375 -2.015625q-0.828125 -0.796875 -2.0625 -0.796875q-1.65625 0 -2.5625 1.203125q-0.90625 1.1875 -0.90625 3.4375l0 0.40625q0 2.1875 0.890625 3.375q0.90625 1.1875 2.59375 1.1875zm12.734375 1.765625q-2.578125 0 -4.203125 -1.6875q-1.609375 -1.703125 -1.609375 -4.53125l0 -0.40625q0 -1.890625 0.71875 -3.359375q0.71875 -1.484375 2.015625 -2.328125q1.296875 -0.84375 2.8125 -0.84375q2.46875 0 3.828125 1.640625q1.375 1.625 1.375 4.65625l0 0.90625l-8.578125 0q0.046875 1.875 1.09375 3.03125q1.046875 1.15625 2.65625 1.15625q1.15625 0 1.953125 -0.46875q0.796875 -0.46875 1.390625 -1.25l1.328125 1.03125q-1.59375 2.453125 -4.78125 2.453125zm-0.265625 -11.375q-1.3125 0 -2.203125 0.96875q-0.890625 0.953125 -1.109375 2.671875l6.359375 0l0 -0.171875q-0.09375 -1.640625 -0.890625 -2.546875q-0.796875 -0.921875 -2.15625 -0.921875zm15.105469 7.78125q0 -0.890625 -0.671875 -1.375q-0.65625 -0.484375 -2.3125 -0.828125q-1.640625 -0.359375 -2.609375 -0.84375q-0.96875 -0.5 -1.4375 -1.171875q-0.453125 -0.6875 -0.453125 -1.625q0 -1.5625 1.3125 -2.640625q1.328125 -1.078125 3.375 -1.078125q2.15625 0 3.5 1.125q1.34375 1.109375 1.34375 2.84375l-2.1875 0q0 -0.890625 -0.75 -1.53125q-0.75 -0.65625 -1.90625 -0.65625q-1.1875 0 -1.859375 0.515625q-0.65625 0.515625 -0.65625 1.359375q0 0.78125 0.609375 1.1875q0.625 0.390625 2.25 0.75q1.625 0.359375 2.625 0.875q1.015625 0.5 1.5 1.21875q0.484375 0.703125 0.484375 1.71875q0 1.703125 -1.359375 2.734375q-1.359375 1.015625 -3.515625 1.015625q-1.53125 0 -2.703125 -0.53125q-1.171875 -0.546875 -1.84375 -1.515625q-0.65625 -0.96875 -0.65625 -2.09375l2.171875 0q0.0625 1.09375 0.875 1.734375q0.8125 0.640625 2.15625 0.640625q1.21875 0 1.96875 -0.5q0.75 -0.5 0.75 -1.328125z" fill-rule="nonzero"/><path fill="#3c4043" d="m520.75653 203.07625q1.296875 0 2.53125 0.671875q1.25 0.671875 1.9375 1.921875q0.6875 1.234375 0.6875 2.5625q0 2.15625 -1.515625 3.671875q-1.5 1.5 -3.640625 1.5q-2.140625 0 -3.65625 -1.5q-1.5 -1.515625 -1.5 -3.671875q0 -1.34375 0.6875 -2.578125q0.6875 -1.234375 1.921875 -1.90625q1.25 -0.671875 2.546875 -0.671875z" fill-rule="nonzero"/><path fill="#3c4043" d="m560.237 208.1075l-4.0 0l0 6.90625l-2.265625 0l0 -17.0625l5.65625 0q2.875 0 4.421875 1.3125q1.5625 1.3125 1.5625 3.8125q0 1.59375 -0.859375 2.78125q-0.859375 1.1875 -2.40625 1.765625l4.015625 7.25l0 0.140625l-2.421875 0l-3.703125 -6.90625zm-4.0 -1.84375l3.453125 0q1.671875 0 2.65625 -0.859375q1.0 -0.875 1.0 -2.328125q0 -1.578125 -0.953125 -2.421875q-0.9375 -0.84375 -2.71875 -0.859375l-3.4375 0l0 6.46875zm17.449219 8.984375q-2.578125 0 -4.203125 -1.6875q-1.609375 -1.703125 -1.609375 -4.53125l0 -0.40625q0 -1.890625 0.71875 -3.359375q0.71875 -1.484375 2.015625 -2.328125q1.296875 -0.84375 2.8125 -0.84375q2.46875 0 3.828125 1.640625q1.375 1.625 1.375 4.65625l0 0.90625l-8.578125 0q0.046875 1.875 1.09375 3.03125q1.046875 1.15625 2.65625 1.15625q1.15625 0 1.953125 -0.46875q0.796875 -0.46875 1.390625 -1.25l1.328125 1.03125q-1.59375 2.453125 -4.78125 2.453125zm-0.265625 -11.375q-1.3125 0 -2.203125 0.96875q-0.890625 0.953125 -1.109375 2.671875l6.359375 0l0 -0.171875q-0.09375 -1.640625 -0.890625 -2.546875q-0.796875 -0.921875 -2.15625 -0.921875zm12.808594 9.609375q1.15625 0 2.015625 -0.703125q0.875 -0.703125 0.96875 -1.765625l2.046875 0q-0.0625 1.09375 -0.75 2.078125q-0.6875 0.984375 -1.84375 1.578125q-1.15625 0.578125 -2.4375 0.578125q-2.59375 0 -4.125 -1.71875q-1.53125 -1.734375 -1.53125 -4.734375l0 -0.375q0 -1.84375 0.671875 -3.28125q0.6875 -1.453125 1.953125 -2.25q1.28125 -0.796875 3.015625 -0.796875q2.125 0 3.53125 1.28125q1.421875 1.28125 1.515625 3.3125l-2.046875 0q-0.09375 -1.21875 -0.9375 -2.015625q-0.828125 -0.796875 -2.0625 -0.796875q-1.65625 0 -2.5625 1.203125q-0.90625 1.1875 -0.90625 3.4375l0 0.40625q0 2.1875 0.890625 3.375q0.90625 1.1875 2.59375 1.1875zm11.625 -1.640625l2.953125 -9.515625l2.3125 0l-5.09375 14.640625q-1.1875 3.171875 -3.765625 3.171875l-0.40625 -0.03125l-0.8125 -0.15625l0 -1.765625l0.59375 0.046875q1.09375 0 1.703125 -0.453125q0.625 -0.4375 1.015625 -1.609375l0.484375 -1.296875l-4.515625 -12.546875l2.359375 0l3.171875 9.515625zm12.140625 1.640625q1.15625 0 2.015625 -0.703125q0.875 -0.703125 0.96875 -1.765625l2.046875 0q-0.0625 1.09375 -0.75 2.078125q-0.6875 0.984375 -1.84375 1.578125q-1.15625 0.578125 -2.4375 0.578125q-2.59375 0 -4.125 -1.71875q-1.53125 -1.734375 -1.53125 -4.734375l0 -0.375q0 -1.84375 0.671875 -3.28125q0.6875 -1.453125 1.953125 -2.25q1.28125 -0.796875 3.015625 -0.796875q2.125 0 3.53125 1.28125q1.421875 1.28125 1.515625 3.3125l-2.046875 0q-0.09375 -1.21875 -0.9375 -2.015625q-0.828125 -0.796875 -2.0625 -0.796875q-1.65625 0 -2.5625 1.203125q-0.90625 1.1875 -0.90625 3.4375l0 0.40625q0 2.1875 0.890625 3.375q0.90625 1.1875 2.59375 1.1875zm9.828125 1.53125l-2.171875 0l0 -18.0l2.171875 0l0 18.0zm8.730469 0.234375q-2.578125 0 -4.203125 -1.6875q-1.609375 -1.703125 -1.609375 -4.53125l0 -0.40625q0 -1.890625 0.71875 -3.359375q0.71875 -1.484375 2.015625 -2.328125q1.296875 -0.84375 2.8125 -0.84375q2.46875 0 3.828125 1.640625q1.375 1.625 1.375 4.65625l0 0.90625l-8.578125 0q0.046875 1.875 1.09375 3.03125q1.046875 1.15625 2.65625 1.15625q1.15625 0 1.953125 -0.46875q0.796875 -0.46875 1.390625 -1.25l1.328125 1.03125q-1.59375 2.453125 -4.78125 2.453125zm-0.265625 -11.375q-1.3125 0 -2.203125 0.96875q-0.890625 0.953125 -1.109375 2.671875l6.359375 0l0 -0.171875q-0.09375 -1.640625 -0.890625 -2.546875q-0.796875 -0.921875 -2.15625 -0.921875zm10.136719 6.328125l-1.953125 0l-0.15625 -12.25l2.28125 0l-0.171875 12.25zm-2.1875 3.71875q0 -0.53125 0.3125 -0.875q0.328125 -0.359375 0.953125 -0.359375q0.640625 0 0.96875 0.359375q0.328125 0.34375 0.328125 0.875q0 0.53125 -0.328125 0.875q-0.328125 0.34375 -0.96875 0.34375q-0.625 0 -0.953125 -0.34375q-0.3125 -0.34375 -0.3125 -0.875zm23.117188 -1.890625l2.4375 -9.703125l2.15625 0l-3.6875 12.6875l-1.75 0l-3.09375 -9.609375l-3.0 9.609375l-1.75 0l-3.6875 -12.6875l2.15625 0l2.5 9.5l2.953125 -9.5l1.75 0l3.015625 9.703125zm9.160156 2.984375l-2.171875 0l0 -12.6875l2.171875 0l0 12.6875zm-2.34375 -16.046875q0 -0.53125 0.3125 -0.890625q0.328125 -0.359375 0.953125 -0.359375q0.640625 0 0.96875 0.359375q0.328125 0.359375 0.328125 0.890625q0 0.53125 -0.328125 0.890625q-0.328125 0.34375 -0.96875 0.34375q-0.625 0 -0.953125 -0.34375q-0.3125 -0.359375 -0.3125 -0.890625zm8.746094 0.296875l0 3.0625l2.375 0l0 1.6875l-2.375 0l0 7.859375q0 0.765625 0.3125 1.140625q0.328125 0.375 1.09375 0.375q0.375 0 1.03125 -0.140625l0 1.765625q-0.859375 0.234375 -1.671875 0.234375q-1.453125 0 -2.1875 -0.875q-0.734375 -0.890625 -0.734375 -2.5l0 -7.859375l-2.3125 0l0 -1.6875l2.3125 0l0 -3.0625l2.15625 0zm7.0742188 4.609375q1.4375 -1.78125 3.75 -1.78125q4.015625 0 4.046875 4.546875l0 8.375l-2.15625 0l0 -8.390625q-0.015625 -1.375 -0.640625 -2.03125q-0.609375 -0.65625 -1.90625 -0.65625q-1.0625 0 -1.859375 0.5625q-0.796875 0.5625 -1.234375 1.484375l0 9.03125l-2.171875 0l0 -18.0l2.171875 0l0 6.859375zm24.378906 7.78125q0 -0.890625 -0.671875 -1.375q-0.65625 -0.484375 -2.3125 -0.828125q-1.640625 -0.359375 -2.609375 -0.84375q-0.96875 -0.5 -1.4375 -1.171875q-0.453125 -0.6875 -0.453125 -1.625q0 -1.5625 1.3125 -2.640625q1.328125 -1.078125 3.375 -1.078125q2.15625 0 3.5 1.125q1.34375 1.109375 1.34375 2.84375l-2.1875 0q0 -0.890625 -0.75 -1.53125q-0.75 -0.65625 -1.90625 -0.65625q-1.1875 0 -1.859375 0.515625q-0.65625 0.515625 -0.65625 1.359375q0 0.78125 0.609375 1.1875q0.625 0.390625 2.25 0.75q1.625 0.359375 2.625 0.875q1.015625 0.5 1.5 1.21875q0.484375 0.703125 0.484375 1.71875q0 1.703125 -1.359375 2.734375q-1.359375 1.015625 -3.515625 1.015625q-1.53125 0 -2.703125 -0.53125q-1.171875 -0.546875 -1.84375 -1.515625q-0.65625 -0.96875 -0.65625 -2.09375l2.171875 0q0.0625 1.09375 0.875 1.734375q0.8125 0.640625 2.15625 0.640625q1.21875 0 1.96875 -0.5q0.75 -0.5 0.75 -1.328125zm9.140625 0.1875l2.953125 -9.515625l2.3125 0l-5.09375 14.640625q-1.1875 3.171875 -3.765625 3.171875l-0.40625 -0.03125l-0.8125 -0.15625l0 -1.765625l0.59375 0.046875q1.09375 0 1.703125 -0.453125q0.625 -0.4375 1.015625 -1.609375l0.484375 -1.296875l-4.515625 -12.546875l2.359375 0l3.171875 9.515625zm9.246094 -9.515625l0.078125 1.59375q1.453125 -1.828125 3.796875 -1.828125q4.015625 0 4.046875 4.546875l0 8.375l-2.15625 0l0 -8.390625q-0.015625 -1.375 -0.640625 -2.03125q-0.609375 -0.65625 -1.90625 -0.65625q-1.0625 0 -1.859375 0.5625q-0.796875 0.5625 -1.234375 1.484375l0 9.03125l-2.171875 0l0 -12.6875l2.046875 0zm16.289062 11.15625q1.15625 0 2.015625 -0.703125q0.875 -0.703125 0.96875 -1.765625l2.046875 0q-0.0625 1.09375 -0.75 2.078125q-0.6875 0.984375 -1.84375 1.578125q-1.15625 0.578125 -2.4375 0.578125q-2.59375 0 -4.125 -1.71875q-1.53125 -1.734375 -1.53125 -4.734375l0 -0.375q0 -1.84375 0.671875 -3.28125q0.6875 -1.453125 1.953125 -2.25q1.28125 -0.796875 3.015625 -0.796875q2.125 0 3.53125 1.28125q1.421875 1.28125 1.515625 3.3125l-2.046875 0q-0.09375 -1.21875 -0.9375 -2.015625q-0.828125 -0.796875 -2.0625 -0.796875q-1.65625 0 -2.5625 1.203125q-0.90625 1.1875 -0.90625 3.4375l0 0.40625q0 2.1875 0.890625 3.375q0.90625 1.1875 2.59375 1.1875zm7.515625 0.390625q0 -0.5625 0.328125 -0.9375q0.34375 -0.375 1.0 -0.375q0.671875 0 1.015625 0.375q0.359375 0.375 0.359375 0.9375q0 0.546875 -0.359375 0.90625q-0.34375 0.359375 -1.015625 0.359375q-0.65625 0 -1.0 -0.359375q-0.328125 -0.359375 -0.328125 -0.90625zm8.863281 -5.546875l0 6.6875l-2.25 0l0 -17.0625l6.296875 0q2.796875 0 4.375 1.4375q1.59375 1.421875 1.59375 3.78125q0 2.484375 -1.5625 3.828125q-1.546875 1.328125 -4.4375 1.328125l-4.015625 0zm0 -1.828125l4.046875 0q1.796875 0 2.75 -0.84375q0.96875 -0.859375 0.96875 -2.46875q0 -1.515625 -0.96875 -2.421875q-0.953125 -0.921875 -2.625 -0.96875l-4.171875 0l0 6.703125zm11.816406 2.0625q0 -1.875 0.734375 -3.359375q0.734375 -1.484375 2.03125 -2.296875q1.3125 -0.8125 3.0 -0.8125q2.578125 0 4.171875 1.796875q1.609375 1.796875 1.609375 4.765625l0 0.15625q0 1.859375 -0.71875 3.328125q-0.703125 1.46875 -2.015625 2.296875q-1.3125 0.8125 -3.03125 0.8125q-2.578125 0 -4.1875 -1.796875q-1.59375 -1.796875 -1.59375 -4.75l0 -0.140625zm2.1875 0.25q0 2.109375 0.96875 3.390625q0.984375 1.28125 2.625 1.28125q1.65625 0 2.625 -1.296875q0.96875 -1.296875 0.96875 -3.625q0 -2.09375 -0.984375 -3.390625q-0.984375 -1.296875 -2.625 -1.296875q-1.609375 0 -2.59375 1.28125q-0.984375 1.28125 -0.984375 3.65625zm11.5 -0.25q0 -1.875 0.734375 -3.359375q0.734375 -1.484375 2.03125 -2.296875q1.3125 -0.8125 3.0 -0.8125q2.578125 0 4.171875 1.796875q1.609375 1.796875 1.609375 4.765625l0 0.15625q0 1.859375 -0.71875 3.328125q-0.703125 1.46875 -2.015625 2.296875q-1.3125 0.8125 -3.03125 0.8125q-2.578125 0 -4.1875 -1.796875q-1.59375 -1.796875 -1.59375 -4.75l0 -0.140625zm2.1875 0.25q0 2.109375 0.96875 3.390625q0.984375 1.28125 2.625 1.28125q1.65625 0 2.625 -1.296875q0.96875 -1.296875 0.96875 -3.625q0 -2.09375 -0.984375 -3.390625q-0.984375 -1.296875 -2.625 -1.296875q-1.609375 0 -2.59375 1.28125q-0.984375 1.28125 -0.984375 3.65625zm14.4375 6.203125l-2.171875 0l0 -18.0l2.171875 0l0 18.0z" fill-rule="nonzero"/><path fill="#3c4043" d="m520.75653 236.07625q1.296875 0 2.53125 0.671875q1.25 0.671875 1.9375 1.921875q0.6875 1.234375 0.6875 2.5625q0 2.15625 -1.515625 3.671875q-1.5 1.5 -3.640625 1.5q-2.140625 0 -3.65625 -1.5q-1.5 -1.515625 -1.5 -3.671875q0 -1.34375 0.6875 -2.578125q0.6875 -1.234375 1.921875 -1.90625q1.25 -0.671875 2.546875 -0.671875z" fill-rule="nonzero"/><path fill="#3c4043" d="m556.237 241.32625l0 6.6875l-2.25 0l0 -17.0625l6.296875 0q2.796875 0 4.375 1.4375q1.59375 1.421875 1.59375 3.78125q0 2.484375 -1.5625 3.828125q-1.546875 1.328125 -4.4375 1.328125l-4.015625 0zm0 -1.828125l4.046875 0q1.796875 0 2.75 -0.84375q0.96875 -0.859375 0.96875 -2.46875q0 -1.515625 -0.96875 -2.421875q-0.953125 -0.921875 -2.625 -0.96875l-4.171875 0l0 6.703125zm20.246094 8.515625q-0.1875 -0.375 -0.296875 -1.34375q-1.515625 1.578125 -3.609375 1.578125q-1.875 0 -3.078125 -1.0625q-1.203125 -1.0625 -1.203125 -2.6875q0 -1.984375 1.5 -3.078125q1.515625 -1.09375 4.234375 -1.09375l2.109375 0l0 -1.0q0 -1.140625 -0.6875 -1.8125q-0.671875 -0.671875 -1.984375 -0.671875q-1.171875 0 -1.953125 0.59375q-0.78125 0.578125 -0.78125 1.40625l-2.1875 0q0 -0.9375 0.671875 -1.828125q0.6875 -0.890625 1.828125 -1.40625q1.15625 -0.515625 2.546875 -0.515625q2.1875 0 3.421875 1.109375q1.25 1.09375 1.296875 3.015625l0 5.828125q0 1.75 0.453125 2.78125l0 0.1875l-2.28125 0zm-3.59375 -1.65625q1.015625 0 1.921875 -0.515625q0.921875 -0.53125 1.328125 -1.375l0 -2.609375l-1.6875 0q-3.984375 0 -3.984375 2.328125q0 1.03125 0.671875 1.609375q0.6875 0.5625 1.75 0.5625zm16.210938 -1.703125q0 -0.890625 -0.671875 -1.375q-0.65625 -0.484375 -2.3125 -0.828125q-1.640625 -0.359375 -2.609375 -0.84375q-0.96875 -0.5 -1.4375 -1.171875q-0.453125 -0.6875 -0.453125 -1.625q0 -1.5625 1.3125 -2.640625q1.328125 -1.078125 3.375 -1.078125q2.15625 0 3.5 1.125q1.34375 1.109375 1.34375 2.84375l-2.1875 0q0 -0.890625 -0.75 -1.53125q-0.75 -0.65625 -1.90625 -0.65625q-1.1875 0 -1.859375 0.515625q-0.65625 0.515625 -0.65625 1.359375q0 0.78125 0.609375 1.1875q0.625 0.390625 2.25 0.75q1.625 0.359375 2.625 0.875q1.015625 0.5 1.5 1.21875q0.484375 0.703125 0.484375 1.71875q0 1.703125 -1.359375 2.734375q-1.359375 1.015625 -3.515625 1.015625q-1.53125 0 -2.703125 -0.53125q-1.171875 -0.546875 -1.84375 -1.515625q-0.65625 -0.96875 -0.65625 -2.09375l2.171875 0q0.0625 1.09375 0.875 1.734375q0.8125 0.640625 2.15625 0.640625q1.21875 0 1.96875 -0.5q0.75 -0.5 0.75 -1.328125zm12.375 0q0 -0.890625 -0.671875 -1.375q-0.65625 -0.484375 -2.3125 -0.828125q-1.640625 -0.359375 -2.609375 -0.84375q-0.96875 -0.5 -1.4375 -1.171875q-0.453125 -0.6875 -0.453125 -1.625q0 -1.5625 1.3125 -2.640625q1.328125 -1.078125 3.375 -1.078125q2.15625 0 3.5 1.125q1.34375 1.109375 1.34375 2.84375l-2.1875 0q0 -0.890625 -0.75 -1.53125q-0.75 -0.65625 -1.90625 -0.65625q-1.1875 0 -1.859375 0.515625q-0.65625 0.515625 -0.65625 1.359375q0 0.78125 0.609375 1.1875q0.625 0.390625 2.25 0.75q1.625 0.359375 2.625 0.875q1.015625 0.5 1.5 1.21875q0.484375 0.703125 0.484375 1.71875q0 1.703125 -1.359375 2.734375q-1.359375 1.015625 -3.515625 1.015625q-1.53125 0 -2.703125 -0.53125q-1.171875 -0.546875 -1.84375 -1.515625q-0.65625 -0.96875 -0.65625 -2.09375l2.171875 0q0.0625 1.09375 0.875 1.734375q0.8125 0.640625 2.15625 0.640625q1.21875 0 1.96875 -0.5q0.75 -0.5 0.75 -1.328125zm15.410156 -14.359375l-2.234375 0l0 19.59375l2.234375 0l0 1.78125l-4.40625 0l0 -23.15625l4.40625 0l0 1.78125zm0.34765625 -1.78125l4.421875 0l0 23.15625l-4.421875 0l0 -1.78125l2.265625 0l0 -19.59375l-2.265625 0l0 -1.78125zm18.628906 13.296875q0 2.90625 -1.34375 4.671875q-1.328125 1.765625 -3.578125 1.765625q-2.40625 0 -3.71875 -1.703125l-0.09375 1.46875l-2.0 0l0 -18.0l2.171875 0l0 6.71875q1.3125 -1.640625 3.609375 -1.640625q2.3125 0 3.625 1.75q1.328125 1.75 1.328125 4.78125l0 0.1875zm-2.171875 -0.25q0 -2.203125 -0.859375 -3.40625q-0.84375 -1.21875 -2.453125 -1.21875q-2.140625 0 -3.078125 2.0l0 5.484375q1.0 1.984375 3.109375 1.984375q1.546875 0 2.40625 -1.203125q0.875 -1.203125 0.875 -3.640625zm8.9296875 3.28125l2.953125 -9.515625l2.3125 0l-5.09375 14.640625q-1.1875 3.171875 -3.765625 3.171875l-0.40625 -0.03125l-0.8125 -0.15625l0 -1.765625l0.59375 0.046875q1.09375 0 1.703125 -0.453125q0.625 -0.4375 1.015625 -1.609375l0.484375 -1.296875l-4.515625 -12.546875l2.359375 0l3.171875 9.515625zm10.136719 -12.578125l0 3.0625l2.375 0l0 1.6875l-2.375 0l0 7.859375q0 0.765625 0.3125 1.140625q0.328125 0.375 1.09375 0.375q0.375 0 1.03125 -0.140625l0 1.765625q-0.859375 0.234375 -1.671875 0.234375q-1.453125 0 -2.1875 -0.875q-0.734375 -0.890625 -0.734375 -2.5l0 -7.859375l-2.3125 0l0 -1.6875l2.3125 0l0 -3.0625l2.15625 0zm10.167969 15.984375q-2.578125 0 -4.203125 -1.6875q-1.609375 -1.703125 -1.609375 -4.53125l0 -0.40625q0 -1.890625 0.71875 -3.359375q0.71875 -1.484375 2.015625 -2.328125q1.296875 -0.84375 2.8125 -0.84375q2.46875 0 3.828125 1.640625q1.375 1.625 1.375 4.65625l0 0.90625l-8.578125 0q0.046875 1.875 1.09375 3.03125q1.046875 1.15625 2.65625 1.15625q1.15625 0 1.953125 -0.46875q0.796875 -0.46875 1.390625 -1.25l1.328125 1.03125q-1.59375 2.453125 -4.78125 2.453125zm-0.265625 -11.375q-1.3125 0 -2.203125 0.96875q-0.890625 0.953125 -1.109375 2.671875l6.359375 0l0 -0.171875q-0.09375 -1.640625 -0.890625 -2.546875q-0.796875 -0.921875 -2.15625 -0.921875zm24.375 4.9375q0 2.890625 -1.328125 4.671875q-1.328125 1.765625 -3.59375 1.765625q-2.296875 0 -3.625 -1.46875l0 6.109375l-2.171875 0l0 -17.5625l1.984375 0l0.109375 1.40625q1.3125 -1.640625 3.671875 -1.640625q2.28125 0 3.609375 1.734375q1.34375 1.71875 1.34375 4.78125l0 0.203125zm-2.171875 -0.25q0 -2.140625 -0.921875 -3.375q-0.90625 -1.25 -2.5 -1.25q-1.96875 0 -2.953125 1.75l0 6.0625q0.96875 1.734375 2.96875 1.734375q1.5625 0 2.484375 -1.234375q0.921875 -1.25 0.921875 -3.6875zm12.746094 6.453125q-0.1875 -0.375 -0.296875 -1.34375q-1.515625 1.578125 -3.609375 1.578125q-1.875 0 -3.078125 -1.0625q-1.203125 -1.0625 -1.203125 -2.6875q0 -1.984375 1.5 -3.078125q1.515625 -1.09375 4.234375 -1.09375l2.109375 0l0 -1.0q0 -1.140625 -0.6875 -1.8125q-0.671875 -0.671875 -1.984375 -0.671875q-1.171875 0 -1.953125 0.59375q-0.78125 0.578125 -0.78125 1.40625l-2.1875 0q0 -0.9375 0.671875 -1.828125q0.6875 -0.890625 1.828125 -1.40625q1.15625 -0.515625 2.546875 -0.515625q2.1875 0 3.421875 1.109375q1.25 1.09375 1.296875 3.015625l0 5.828125q0 1.75 0.453125 2.78125l0 0.1875l-2.28125 0zm-3.59375 -1.65625q1.015625 0 1.921875 -0.515625q0.921875 -0.53125 1.328125 -1.375l0 -2.609375l-1.6875 0q-3.984375 0 -3.984375 2.328125q0 1.03125 0.671875 1.609375q0.6875 0.5625 1.75 0.5625zm14.9453125 -9.078125q-0.484375 -0.078125 -1.0625 -0.078125q-2.125 0 -2.890625 1.8125l0 9.0l-2.171875 0l0 -12.6875l2.109375 0l0.03125 1.46875q1.078125 -1.703125 3.03125 -1.703125q0.625 0 0.953125 0.171875l0 2.015625zm9.355469 10.734375q-0.1875 -0.375 -0.296875 -1.34375q-1.515625 1.578125 -3.609375 1.578125q-1.875 0 -3.078125 -1.0625q-1.203125 -1.0625 -1.203125 -2.6875q0 -1.984375 1.5 -3.078125q1.515625 -1.09375 4.234375 -1.09375l2.109375 0l0 -1.0q0 -1.140625 -0.6875 -1.8125q-0.671875 -0.671875 -1.984375 -0.671875q-1.171875 0 -1.953125 0.59375q-0.78125 0.578125 -0.78125 1.40625l-2.1875 0q0 -0.9375 0.671875 -1.828125q0.6875 -0.890625 1.828125 -1.40625q1.15625 -0.515625 2.546875 -0.515625q2.1875 0 3.421875 1.109375q1.25 1.09375 1.296875 3.015625l0 5.828125q0 1.75 0.453125 2.78125l0 0.1875l-2.28125 0zm-3.59375 -1.65625q1.015625 0 1.921875 -0.515625q0.921875 -0.53125 1.328125 -1.375l0 -2.609375l-1.6875 0q-3.984375 0 -3.984375 2.328125q0 1.03125 0.671875 1.609375q0.6875 0.5625 1.75 0.5625zm10.8671875 -11.03125l0.046875 1.40625q1.40625 -1.640625 3.765625 -1.640625q2.65625 0 3.625 2.046875q0.625 -0.921875 1.640625 -1.484375q1.015625 -0.5625 2.40625 -0.5625q4.171875 0 4.234375 4.421875l0 8.5l-2.171875 0l0 -8.375q0 -1.359375 -0.625 -2.03125q-0.609375 -0.671875 -2.078125 -0.671875q-1.203125 0 -2.0 0.71875q-0.796875 0.71875 -0.921875 1.9375l0 8.421875l-2.1875 0l0 -8.3125q0 -2.765625 -2.703125 -2.765625q-2.140625 0 -2.921875 1.8125l0 9.265625l-2.171875 0l0 -12.6875l2.0625 0zm24.253906 12.921875q-2.578125 0 -4.203125 -1.6875q-1.609375 -1.703125 -1.609375 -4.53125l0 -0.40625q0 -1.890625 0.71875 -3.359375q0.71875 -1.484375 2.015625 -2.328125q1.296875 -0.84375 2.8125 -0.84375q2.46875 0 3.828125 1.640625q1.375 1.625 1.375 4.65625l0 0.90625l-8.578125 0q0.046875 1.875 1.09375 3.03125q1.046875 1.15625 2.65625 1.15625q1.15625 0 1.953125 -0.46875q0.796875 -0.46875 1.390625 -1.25l1.328125 1.03125q-1.59375 2.453125 -4.78125 2.453125zm-0.265625 -11.375q-1.3125 0 -2.203125 0.96875q-0.890625 0.953125 -1.109375 2.671875l6.359375 0l0 -0.171875q-0.09375 -1.640625 -0.890625 -2.546875q-0.796875 -0.921875 -2.15625 -0.921875zm10.652344 -4.609375l0 3.0625l2.375 0l0 1.6875l-2.375 0l0 7.859375q0 0.765625 0.3125 1.140625q0.328125 0.375 1.09375 0.375q0.375 0 1.03125 -0.140625l0 1.765625q-0.859375 0.234375 -1.671875 0.234375q-1.453125 0 -2.1875 -0.875q-0.734375 -0.890625 -0.734375 -2.5l0 -7.859375l-2.3125 0l0 -1.6875l2.3125 0l0 -3.0625l2.15625 0zm10.167969 15.984375q-2.578125 0 -4.203125 -1.6875q-1.609375 -1.703125 -1.609375 -4.53125l0 -0.40625q0 -1.890625 0.71875 -3.359375q0.71875 -1.484375 2.015625 -2.328125q1.296875 -0.84375 2.8125 -0.84375q2.46875 0 3.828125 1.640625q1.375 1.625 1.375 4.65625l0 0.90625l-8.578125 0q0.046875 1.875 1.09375 3.03125q1.046875 1.15625 2.65625 1.15625q1.15625 0 1.953125 -0.46875q0.796875 -0.46875 1.390625 -1.25l1.328125 1.03125q-1.59375 2.453125 -4.78125 2.453125zm-0.265625 -11.375q-1.3125 0 -2.203125 0.96875q-0.890625 0.953125 -1.109375 2.671875l6.359375 0l0 -0.171875q-0.09375 -1.640625 -0.890625 -2.546875q-0.796875 -0.921875 -2.15625 -0.921875zm13.839844 0.40625q-0.484375 -0.078125 -1.0625 -0.078125q-2.125 0 -2.890625 1.8125l0 9.0l-2.171875 0l0 -12.6875l2.109375 0l0.03125 1.46875q1.078125 -1.703125 3.03125 -1.703125q0.625 0 0.953125 0.171875l0 2.015625z" fill-rule="nonzero"/><path fill="#3c4043" d="m520.75653 269.07626q1.296875 0 2.53125 0.671875q1.25 0.671875 1.9375 1.921875q0.6875 1.234375 0.6875 2.5625q0 2.15625 -1.515625 3.671875q-1.5 1.5 -3.640625 1.5q-2.140625 0 -3.65625 -1.5q-1.5 -1.515625 -1.5 -3.671875q0 -1.34375 0.6875 -2.578125q0.6875 -1.234375 1.921875 -1.90625q1.25 -0.671875 2.546875 -0.671875z" fill-rule="nonzero"/><path fill="#3c4043" d="m559.6276 278.0294l4.875 -14.078125l2.46875 0l-6.328125 17.0625l-2.0 0l-6.3125 -17.0625l2.453125 0l4.84375 14.078125zm16.574219 2.984375q-0.1875 -0.375 -0.296875 -1.34375q-1.515625 1.578125 -3.609375 1.578125q-1.875 0 -3.078125 -1.0625q-1.203125 -1.0625 -1.203125 -2.6875q0 -1.984375 1.5 -3.078125q1.515625 -1.09375 4.234375 -1.09375l2.109375 0l0 -1.0q0 -1.140625 -0.6875 -1.8125q-0.671875 -0.671875 -1.984375 -0.671875q-1.171875 0 -1.953125 0.59375q-0.78125 0.578125 -0.78125 1.40625l-2.1875 0q0 -0.9375 0.671875 -1.828125q0.6875 -0.890625 1.828125 -1.40625q1.15625 -0.515625 2.546875 -0.515625q2.1875 0 3.421875 1.109375q1.25 1.09375 1.296875 3.015625l0 5.828125q0 1.75 0.453125 2.78125l0 0.1875l-2.28125 0zm-3.59375 -1.65625q1.015625 0 1.921875 -0.515625q0.921875 -0.53125 1.328125 -1.375l0 -2.609375l-1.6875 0q-3.984375 0 -3.984375 2.328125q0 1.03125 0.671875 1.609375q0.6875 0.5625 1.75 0.5625zm11.1796875 1.65625l-2.171875 0l0 -18.0l2.171875 0l0 18.0zm11.292969 -1.25q-1.265625 1.484375 -3.71875 1.484375q-2.015625 0 -3.078125 -1.171875q-1.0625 -1.1875 -1.078125 -3.5l0 -8.25l2.171875 0l0 8.203125q0 2.875 2.34375 2.875q2.484375 0 3.296875 -1.84375l0 -9.234375l2.171875 0l0 12.6875l-2.0625 0l-0.046875 -1.25zm10.667969 1.484375q-2.578125 0 -4.203125 -1.6875q-1.609375 -1.703125 -1.609375 -4.53125l0 -0.40625q0 -1.890625 0.71875 -3.359375q0.71875 -1.484375 2.015625 -2.328125q1.296875 -0.84375 2.8125 -0.84375q2.46875 0 3.828125 1.640625q1.375 1.625 1.375 4.65625l0 0.90625l-8.578125 0q0.046875 1.875 1.09375 3.03125q1.046875 1.15625 2.65625 1.15625q1.15625 0 1.953125 -0.46875q0.796875 -0.46875 1.390625 -1.25l1.328125 1.03125q-1.59375 2.453125 -4.78125 2.453125zm-0.265625 -11.375q-1.3125 0 -2.203125 0.96875q-0.890625 0.953125 -1.109375 2.671875l6.359375 0l0 -0.171875q-0.09375 -1.640625 -0.890625 -2.546875q-0.796875 -0.921875 -2.15625 -0.921875zm17.84375 8.203125l3.140625 -9.75l2.21875 0l-4.546875 12.6875l-1.65625 0l-4.59375 -12.6875l2.21875 0l3.21875 9.75zm14.828125 -0.421875q0 -0.890625 -0.671875 -1.375q-0.65625 -0.484375 -2.3125 -0.828125q-1.640625 -0.359375 -2.609375 -0.84375q-0.96875 -0.5 -1.4375 -1.171875q-0.453125 -0.6875 -0.453125 -1.625q0 -1.5625 1.3125 -2.640625q1.328125 -1.078125 3.375 -1.078125q2.15625 0 3.5 1.125q1.34375 1.109375 1.34375 2.84375l-2.1875 0q0 -0.890625 -0.75 -1.53125q-0.75 -0.65625 -1.90625 -0.65625q-1.1875 0 -1.859375 0.515625q-0.65625 0.515625 -0.65625 1.359375q0 0.78125 0.609375 1.1875q0.625 0.390625 2.25 0.75q1.625 0.359375 2.625 0.875q1.015625 0.5 1.5 1.21875q0.484375 0.703125 0.484375 1.71875q0 1.703125 -1.359375 2.734375q-1.359375 1.015625 -3.515625 1.015625q-1.53125 0 -2.703125 -0.53125q-1.171875 -0.546875 -1.84375 -1.515625q-0.65625 -0.96875 -0.65625 -2.09375l2.171875 0q0.0625 1.09375 0.875 1.734375q0.8125 0.640625 2.15625 0.640625q1.21875 0 1.96875 -0.5q0.75 -0.5 0.75 -1.328125zm13.519531 -3.328125l0 6.6875l-2.25 0l0 -17.0625l6.296875 0q2.796875 0 4.375 1.4375q1.59375 1.421875 1.59375 3.78125q0 2.484375 -1.5625 3.828125q-1.546875 1.328125 -4.4375 1.328125l-4.015625 0zm0 -1.828125l4.046875 0q1.796875 0 2.75 -0.84375q0.96875 -0.859375 0.96875 -2.46875q0 -1.515625 -0.96875 -2.421875q-0.953125 -0.921875 -2.625 -0.96875l-4.171875 0l0 6.703125zm11.816406 2.0625q0 -1.875 0.734375 -3.359375q0.734375 -1.484375 2.03125 -2.296875q1.3125 -0.8125 3.0 -0.8125q2.578125 0 4.171875 1.796875q1.609375 1.796875 1.609375 4.765625l0 0.15625q0 1.859375 -0.71875 3.328125q-0.703125 1.46875 -2.015625 2.296875q-1.3125 0.8125 -3.03125 0.8125q-2.578125 0 -4.1875 -1.796875q-1.59375 -1.796875 -1.59375 -4.75l0 -0.140625zm2.1875 0.25q0 2.109375 0.96875 3.390625q0.984375 1.28125 2.625 1.28125q1.65625 0 2.625 -1.296875q0.96875 -1.296875 0.96875 -3.625q0 -2.09375 -0.984375 -3.390625q-0.984375 -1.296875 -2.625 -1.296875q-1.609375 0 -2.59375 1.28125q-0.984375 1.28125 -0.984375 3.65625zm14.4375 6.203125l-2.171875 0l0 -12.6875l2.171875 0l0 12.6875zm-2.34375 -16.046875q0 -0.53125 0.3125 -0.890625q0.328125 -0.359375 0.953125 -0.359375q0.640625 0 0.96875 0.359375q0.328125 0.359375 0.328125 0.890625q0 0.53125 -0.328125 0.890625q-0.328125 0.34375 -0.96875 0.34375q-0.625 0 -0.953125 -0.34375q-0.3125 -0.359375 -0.3125 -0.890625zm7.8554688 3.359375l0.078125 1.59375q1.453125 -1.828125 3.796875 -1.828125q4.015625 0 4.046875 4.546875l0 8.375l-2.15625 0l0 -8.390625q-0.015625 -1.375 -0.640625 -2.03125q-0.609375 -0.65625 -1.90625 -0.65625q-1.0625 0 -1.859375 0.5625q-0.796875 0.5625 -1.234375 1.484375l0 9.03125l-2.171875 0l0 -12.6875l2.046875 0zm14.1328125 -3.0625l0 3.0625l2.375 0l0 1.6875l-2.375 0l0 7.859375q0 0.765625 0.3125 1.140625q0.328125 0.375 1.09375 0.375q0.375 0 1.03125 -0.140625l0 1.765625q-0.859375 0.234375 -1.671875 0.234375q-1.453125 0 -2.1875 -0.875q-0.734375 -0.890625 -0.734375 -2.5l0 -7.859375l-2.3125 0l0 -1.6875l2.3125 0l0 -3.0625l2.15625 0zm10.167969 15.984375q-2.578125 0 -4.203125 -1.6875q-1.609375 -1.703125 -1.609375 -4.53125l0 -0.40625q0 -1.890625 0.71875 -3.359375q0.71875 -1.484375 2.015625 -2.328125q1.296875 -0.84375 2.8125 -0.84375q2.46875 0 3.828125 1.640625q1.375 1.625 1.375 4.65625l0 0.90625l-8.578125 0q0.046875 1.875 1.09375 3.03125q1.046875 1.15625 2.65625 1.15625q1.15625 0 1.953125 -0.46875q0.796875 -0.46875 1.390625 -1.25l1.328125 1.03125q-1.59375 2.453125 -4.78125 2.453125zm-0.265625 -11.375q-1.3125 0 -2.203125 0.96875q-0.890625 0.953125 -1.109375 2.671875l6.359375 0l0 -0.171875q-0.09375 -1.640625 -0.890625 -2.546875q-0.796875 -0.921875 -2.15625 -0.921875zm13.839844 0.40625q-0.484375 -0.078125 -1.0625 -0.078125q-2.125 0 -2.890625 1.8125l0 9.0l-2.171875 0l0 -12.6875l2.109375 0l0.03125 1.46875q1.078125 -1.703125 3.03125 -1.703125q0.625 0 0.953125 0.171875l0 2.015625z" fill-rule="nonzero"/><path fill="#3c4043" d="m520.75653 302.07623q1.296875 0 2.53125 0.671875q1.25 0.671875 1.9375 1.921875q0.6875 1.234375 0.6875 2.5625q0 2.15625 -1.515625 3.671875q-1.5 1.5 -3.640625 1.5q-2.140625 0 -3.65625 -1.5q-1.5 -1.515625 -1.5 -3.671875q0 -1.34375 0.6875 -2.578125q0.6875 -1.234375 1.921875 -1.90625q1.25 -0.671875 2.546875 -0.671875z" fill-rule="nonzero"/><path fill="#3c4043" d="m567.0964 314.01373l-2.265625 0l0 -7.890625l-8.59375 0l0 7.890625l-2.25 0l0 -17.0625l2.25 0l0 7.328125l8.59375 0l0 -7.328125l2.265625 0l0 17.0625zm8.921875 0.234375q-2.578125 0 -4.203125 -1.6875q-1.609375 -1.703125 -1.609375 -4.53125l0 -0.40625q0 -1.890625 0.71875 -3.359375q0.71875 -1.484375 2.015625 -2.328125q1.296875 -0.84375 2.8125 -0.84375q2.46875 0 3.828125 1.640625q1.375 1.625 1.375 4.65625l0 0.90625l-8.578125 0q0.046875 1.875 1.09375 3.03125q1.046875 1.15625 2.65625 1.15625q1.15625 0 1.953125 -0.46875q0.796875 -0.46875 1.390625 -1.25l1.328125 1.03125q-1.59375 2.453125 -4.78125 2.453125zm-0.265625 -11.375q-1.3125 0 -2.203125 0.96875q-0.890625 0.953125 -1.109375 2.671875l6.359375 0l0 -0.171875q-0.09375 -1.640625 -0.890625 -2.546875q-0.796875 -0.921875 -2.15625 -0.921875zm15.542969 11.140625q-0.1875 -0.375 -0.296875 -1.34375q-1.515625 1.578125 -3.609375 1.578125q-1.875 0 -3.078125 -1.0625q-1.203125 -1.0625 -1.203125 -2.6875q0 -1.984375 1.5 -3.078125q1.515625 -1.09375 4.234375 -1.09375l2.109375 0l0 -1.0q0 -1.140625 -0.6875 -1.8125q-0.671875 -0.671875 -1.984375 -0.671875q-1.171875 0 -1.953125 0.59375q-0.78125 0.578125 -0.78125 1.40625l-2.1875 0q0 -0.9375 0.671875 -1.828125q0.6875 -0.890625 1.828125 -1.40625q1.15625 -0.515625 2.546875 -0.515625q2.1875 0 3.421875 1.109375q1.25 1.09375 1.296875 3.015625l0 5.828125q0 1.75 0.453125 2.78125l0 0.1875l-2.28125 0zm-3.59375 -1.65625q1.015625 0 1.921875 -0.515625q0.921875 -0.53125 1.328125 -1.375l0 -2.609375l-1.6875 0q-3.984375 0 -3.984375 2.328125q0 1.03125 0.671875 1.609375q0.6875 0.5625 1.75 0.5625zm19.539062 -4.546875q0 2.890625 -1.328125 4.671875q-1.328125 1.765625 -3.59375 1.765625q-2.296875 0 -3.625 -1.46875l0 6.109375l-2.171875 0l0 -17.5625l1.984375 0l0.109375 1.40625q1.3125 -1.640625 3.671875 -1.640625q2.28125 0 3.609375 1.734375q1.34375 1.71875 1.34375 4.78125l0 0.203125zm-2.171875 -0.25q0 -2.140625 -0.921875 -3.375q-0.90625 -1.25 -2.5 -1.25q-1.96875 0 -2.953125 1.75l0 6.0625q0.96875 1.734375 2.96875 1.734375q1.5625 0 2.484375 -1.234375q0.921875 -1.25 0.921875 -3.6875zm15.046875 3.515625l3.140625 -9.75l2.21875 0l-4.546875 12.6875l-1.65625 0l-4.59375 -12.6875l2.21875 0l3.21875 9.75zm14.828125 -0.421875q0 -0.890625 -0.671875 -1.375q-0.65625 -0.484375 -2.3125 -0.828125q-1.640625 -0.359375 -2.609375 -0.84375q-0.96875 -0.5 -1.4375 -1.171875q-0.453125 -0.6875 -0.453125 -1.625q0 -1.5625 1.3125 -2.640625q1.328125 -1.078125 3.375 -1.078125q2.15625 0 3.5 1.125q1.34375 1.109375 1.34375 2.84375l-2.1875 0q0 -0.890625 -0.75 -1.53125q-0.75 -0.65625 -1.90625 -0.65625q-1.1875 0 -1.859375 0.515625q-0.65625 0.515625 -0.65625 1.359375q0 0.78125 0.609375 1.1875q0.625 0.390625 2.25 0.75q1.625 0.359375 2.625 0.875q1.015625 0.5 1.5 1.21875q0.484375 0.703125 0.484375 1.71875q0 1.703125 -1.359375 2.734375q-1.359375 1.015625 -3.515625 1.015625q-1.53125 0 -2.703125 -0.53125q-1.171875 -0.546875 -1.84375 -1.515625q-0.65625 -0.96875 -0.65625 -2.09375l2.171875 0q0.0625 1.09375 0.875 1.734375q0.8125 0.640625 2.15625 0.640625q1.21875 0 1.96875 -0.5q0.75 -0.5 0.75 -1.328125zm16.300781 -4.25q-2.90625 -0.828125 -4.21875 -2.03125q-1.3125 -1.21875 -1.3125 -3.0q0 -2.015625 1.609375 -3.328125q1.609375 -1.328125 4.1875 -1.328125q1.75 0 3.125 0.6875q1.390625 0.671875 2.140625 1.875q0.75 1.1875 0.75 2.609375l-2.25 0q0 -1.546875 -0.984375 -2.4375q-0.984375 -0.890625 -2.78125 -0.890625q-1.671875 0 -2.609375 0.734375q-0.921875 0.734375 -0.921875 2.03125q0 1.046875 0.875 1.765625q0.890625 0.71875 3.015625 1.328125q2.140625 0.59375 3.328125 1.3125q1.203125 0.71875 1.78125 1.6875q0.59375 0.953125 0.59375 2.25q0 2.078125 -1.625 3.328125q-1.609375 1.25 -4.328125 1.25q-1.75 0 -3.28125 -0.671875q-1.515625 -0.671875 -2.34375 -1.84375q-0.828125 -1.171875 -0.828125 -2.671875l2.265625 0q0 1.546875 1.140625 2.453125q1.140625 0.890625 3.046875 0.890625q1.78125 0 2.734375 -0.71875q0.953125 -0.734375 0.953125 -1.984375q0 -1.25 -0.890625 -1.9375q-0.875 -0.6875 -3.171875 -1.359375zm11.800781 -8.140625l0 3.0625l2.375 0l0 1.6875l-2.375 0l0 7.859375q0 0.765625 0.3125 1.140625q0.328125 0.375 1.09375 0.375q0.375 0 1.03125 -0.140625l0 1.765625q-0.859375 0.234375 -1.671875 0.234375q-1.453125 0 -2.1875 -0.875q-0.734375 -0.890625 -0.734375 -2.5l0 -7.859375l-2.3125 0l0 -1.6875l2.3125 0l0 -3.0625l2.15625 0zm12.730469 15.75q-0.1875 -0.375 -0.296875 -1.34375q-1.515625 1.578125 -3.609375 1.578125q-1.875 0 -3.078125 -1.0625q-1.203125 -1.0625 -1.203125 -2.6875q0 -1.984375 1.5 -3.078125q1.515625 -1.09375 4.234375 -1.09375l2.109375 0l0 -1.0q0 -1.140625 -0.6875 -1.8125q-0.671875 -0.671875 -1.984375 -0.671875q-1.171875 0 -1.953125 0.59375q-0.78125 0.578125 -0.78125 1.40625l-2.1875 0q0 -0.9375 0.671875 -1.828125q0.6875 -0.890625 1.828125 -1.40625q1.15625 -0.515625 2.546875 -0.515625q2.1875 0 3.421875 1.109375q1.25 1.09375 1.296875 3.015625l0 5.828125q0 1.75 0.453125 2.78125l0 0.1875l-2.28125 0zm-3.59375 -1.65625q1.015625 0 1.921875 -0.515625q0.921875 -0.53125 1.328125 -1.375l0 -2.609375l-1.6875 0q-3.984375 0 -3.984375 2.328125q0 1.03125 0.671875 1.609375q0.6875 0.5625 1.75 0.5625zm13.9140625 0.125q1.15625 0 2.015625 -0.703125q0.875 -0.703125 0.96875 -1.765625l2.046875 0q-0.0625 1.09375 -0.75 2.078125q-0.6875 0.984375 -1.84375 1.578125q-1.15625 0.578125 -2.4375 0.578125q-2.59375 0 -4.125 -1.71875q-1.53125 -1.734375 -1.53125 -4.734375l0 -0.375q0 -1.84375 0.671875 -3.28125q0.6875 -1.453125 1.953125 -2.25q1.28125 -0.796875 3.015625 -0.796875q2.125 0 3.53125 1.28125q1.421875 1.28125 1.515625 3.3125l-2.046875 0q-0.09375 -1.21875 -0.9375 -2.015625q-0.828125 -0.796875 -2.0625 -0.796875q-1.65625 0 -2.5625 1.203125q-0.90625 1.1875 -0.90625 3.4375l0 0.40625q0 2.1875 0.890625 3.375q0.90625 1.1875 2.59375 1.1875zm11.015625 -4.34375l-1.359375 1.421875l0 4.453125l-2.171875 0l0 -18.0l2.171875 0l0 10.890625l1.15625 -1.40625l3.953125 -4.171875l2.625 0l-4.921875 5.296875l5.5 7.390625l-2.546875 0l-4.40625 -5.875zm11.1640625 1.0625q0.015625 -1.390625 0.3125 -2.1875q0.296875 -0.8125 1.203125 -1.796875l1.53125 -1.59375q0.984375 -1.109375 0.984375 -2.390625q0 -1.21875 -0.65625 -1.921875q-0.640625 -0.703125 -1.859375 -0.703125q-1.203125 0 -1.9375 0.640625q-0.71875 0.625 -0.71875 1.703125l-2.171875 0q0.03125 -1.90625 1.359375 -3.0625q1.328125 -1.171875 3.46875 -1.171875q2.203125 0 3.4375 1.1875q1.25 1.1875 1.25 3.265625q0 2.046875 -1.90625 4.046875l-1.28125 1.265625q-0.84375 0.9375 -0.84375 2.71875l-2.171875 0zm-0.09375 3.71875q0 -0.53125 0.3125 -0.875q0.328125 -0.359375 0.953125 -0.359375q0.640625 0 0.96875 0.359375q0.328125 0.34375 0.328125 0.875q0 0.53125 -0.328125 0.875q-0.328125 0.34375 -0.96875 0.34375q-0.625 0 -0.953125 -0.34375q-0.3125 -0.34375 -0.3125 -0.875zm11.425781 -3.71875q0.015625 -1.390625 0.3125 -2.1875q0.296875 -0.8125 1.203125 -1.796875l1.53125 -1.59375q0.984375 -1.109375 0.984375 -2.390625q0 -1.21875 -0.65625 -1.921875q-0.640625 -0.703125 -1.859375 -0.703125q-1.203125 0 -1.9375 0.640625q-0.71875 0.625 -0.71875 1.703125l-2.171875 0q0.03125 -1.90625 1.359375 -3.0625q1.328125 -1.171875 3.46875 -1.171875q2.203125 0 3.4375 1.1875q1.25 1.1875 1.25 3.265625q0 2.046875 -1.90625 4.046875l-1.28125 1.265625q-0.84375 0.9375 -0.84375 2.71875l-2.171875 0zm-0.09375 3.71875q0 -0.53125 0.3125 -0.875q0.328125 -0.359375 0.953125 -0.359375q0.640625 0 0.96875 0.359375q0.328125 0.34375 0.328125 0.875q0 0.53125 -0.328125 0.875q-0.328125 0.34375 -0.96875 0.34375q-0.625 0 -0.953125 -0.34375q-0.3125 -0.34375 -0.3125 -0.875z" fill-rule="nonzero"/></g></svg>