<svg version="1.1" viewBox="0.0 0.0 960.0 540.0" fill="none" stroke="none" stroke-linecap="square" stroke-miterlimit="10" xmlns:xlink="http://www.w3.org/1999/xlink" xmlns="http://www.w3.org/2000/svg"><clipPath id="g15463dd75a7_0_0.0"><path d="m0 0l960.0 0l0 540.0l-960.0 0l0 -540.0z" clip-rule="nonzero"/></clipPath><g clip-path="url(#g15463dd75a7_0_0.0)"><path fill="#ffffff" d="m0 0l960.0 0l0 540.0l-960.0 0z" fill-rule="evenodd"/><path fill="#000000" fill-opacity="0.0" d="m336.57202 343.1521c-29.007568 -55.882935 1.4280701 -171.2903 45.86502 -198.807c99.00568 -61.307312 236.94376 -44.208717 321.05496 53.015198c33.766296 39.030334 44.2912 135.57 18.346008 185.55319c-34.809082 67.05954 -107.098816 79.52283 -165.11395 79.52283" fill-rule="evenodd"/><path stroke="#cfe2f3" stroke-width="24.0" stroke-linejoin="round" stroke-linecap="butt" d="m336.57202 343.1521c-29.007568 -55.882935 1.4280701 -171.2903 45.86502 -198.807c99.00568 -61.307312 236.94376 -44.208717 321.05496 53.015198c33.766296 39.030334 44.2912 135.57 18.346008 185.55319c-34.809082 67.05954 -107.098816 79.52283 -165.11395 79.52283" fill-rule="evenodd"/><path fill="#000000" d="m418.52756 200.99475l192.88187 0l0 167.46457l-192.88187 0z" fill-rule="evenodd"/><path fill="#f3f3f3" d="m428.85568 226.59724l0 0.25q0 1.375 0.359375 2.5625q0.359375 1.171875 1.015625 2.03125q0.671875 0.859375 1.609375 1.34375q0.953125 0.484375 2.140625 0.484375q0.59375 0 1.109375 -0.140625q0.53125 -0.125 0.953125 -0.359375q0.296875 -0.15625 0.546875 -0.359375q0.265625 -0.21875 0.5 -0.484375l0 0.734375q0 0.640625 -0.1875 1.15625q-0.171875 0.515625 -0.515625 0.875q-0.375 0.390625 -0.9375 0.578125q-0.546875 0.203125 -1.265625 0.203125q-0.4375 0 -0.859375 -0.09375q-0.421875 -0.078125 -0.796875 -0.25q-0.40625 -0.1875 -0.765625 -0.46875q-0.359375 -0.265625 -0.6875 -0.625l-1.453125 1.984375q0.40625 0.515625 0.96875 0.890625q0.578125 0.390625 1.234375 0.640625q0.640625 0.25 1.296875 0.359375q0.65625 0.125 1.234375 0.125q1.328125 0 2.4375 -0.359375q1.109375 -0.359375 1.90625 -1.046875q0.78125 -0.703125 1.21875 -1.71875q0.4375 -1.0 0.4375 -2.28125l0 -12.28125l-2.953125 0l-0.140625 1.21875q-0.234375 -0.296875 -0.515625 -0.53125q-0.28125 -0.25 -0.609375 -0.421875q-0.421875 -0.25 -0.96875 -0.375q-0.53125 -0.125 -1.171875 -0.125q-1.1875 0 -2.140625 0.46875q-0.953125 0.46875 -1.625 1.328125q-0.65625 0.859375 -1.015625 2.0625q-0.359375 1.1875 -0.359375 2.625zm3.265625 0.25l0 -0.25q0 -0.796875 0.15625 -1.484375q0.171875 -0.703125 0.515625 -1.234375q0.328125 -0.515625 0.828125 -0.8125q0.5 -0.296875 1.203125 -0.296875q0.375 0 0.6875 0.078125q0.328125 0.0625 0.59375 0.1875q0.3125 0.15625 0.5625 0.40625q0.25 0.234375 0.421875 0.5625l0 5.375q-0.15625 0.296875 -0.390625 0.53125q-0.21875 0.234375 -0.515625 0.390625q-0.28125 0.15625 -0.625 0.234375q-0.34375 0.078125 -0.765625 0.078125q-0.6875 0 -1.203125 -0.28125q-0.5 -0.296875 -0.828125 -0.8125q-0.328125 -0.5 -0.484375 -1.1875q-0.15625 -0.6875 -0.15625 -1.484375zm11.011719 -0.265625l0 0.234375q0 1.40625 0.390625 2.578125q0.40625 1.171875 1.1875 2.046875q0.765625 0.859375 1.875 1.359375q1.125 0.484375 2.546875 0.484375q1.421875 0 2.53125 -0.484375q1.125 -0.5 1.875 -1.359375q0.765625 -0.875 1.15625 -2.046875q0.40625 -1.171875 0.40625 -2.578125l0 -0.234375q0 -1.390625 -0.40625 -2.5625q-0.390625 -1.1875 -1.15625 -2.046875q-0.765625 -0.875 -1.890625 -1.359375q-1.109375 -0.5 -2.53125 -0.5q-1.4375 0 -2.546875 0.5q-1.09375 0.484375 -1.859375 1.359375q-0.78125 0.859375 -1.1875 2.046875q-0.390625 1.171875 -0.390625 2.5625zm3.265625 0.234375l0 -0.234375q0 -0.78125 0.140625 -1.46875q0.15625 -0.6875 0.484375 -1.21875q0.328125 -0.53125 0.84375 -0.828125q0.515625 -0.3125 1.25 -0.3125q0.734375 0 1.25 0.3125q0.515625 0.296875 0.84375 0.828125q0.3125 0.53125 0.46875 1.21875q0.15625 0.6875 0.15625 1.46875l0 0.234375q0 0.796875 -0.15625 1.5q-0.15625 0.703125 -0.46875 1.21875q-0.328125 0.515625 -0.84375 0.828125q-0.515625 0.296875 -1.234375 0.296875q-0.734375 0 -1.265625 -0.296875q-0.515625 -0.3125 -0.84375 -0.828125q-0.328125 -0.515625 -0.484375 -1.21875q-0.140625 -0.703125 -0.140625 -1.5zm31.960938 -9.5625l-3.25 0l0 3.09375l-2.890625 0l0 2.40625l2.890625 0l0 5.765625q0 1.25 0.328125 2.15625q0.328125 0.890625 0.9375 1.46875q0.59375 0.578125 1.4375 0.859375q0.859375 0.28125 1.90625 0.28125q0.53125 0 1.078125 -0.0625q0.5625 -0.046875 1.078125 -0.140625q0.515625 -0.09375 0.96875 -0.234375q0.46875 -0.15625 0.8125 -0.359375l-0.328125 -2.234375q-0.21875 0.0625 -0.53125 0.125q-0.3125 0.046875 -0.65625 0.09375q-0.359375 0.0625 -0.765625 0.109375q-0.390625 0.03125 -0.765625 0.03125q-0.515625 0 -0.9375 -0.109375q-0.40625 -0.125 -0.703125 -0.40625q-0.28125 -0.28125 -0.453125 -0.734375q-0.15625 -0.46875 -0.15625 -1.15625l0 -5.453125l4.734375 0l0 -2.40625l-4.734375 0l0 -3.09375zm14.589844 16.015625q1.828125 0 3.171875 -0.71875q1.359375 -0.71875 1.984375 -1.59375l-1.640625 -1.75q-0.5625 0.71875 -1.46875 1.09375q-0.890625 0.359375 -1.859375 0.359375q-0.671875 0 -1.25 -0.203125q-0.578125 -0.21875 -1.015625 -0.609375q-0.4375 -0.375 -0.703125 -0.828125q-0.25 -0.46875 -0.40625 -1.234375l0 -0.03125l8.59375 0l0 -1.390625q0 -1.390625 -0.390625 -2.546875q-0.375 -1.15625 -1.125 -1.96875q-0.75 -0.828125 -1.828125 -1.28125q-1.0625 -0.453125 -2.4375 -0.453125q-1.3125 0 -2.4375 0.484375q-1.125 0.484375 -1.953125 1.34375q-0.8125 0.875 -1.28125 2.078125q-0.453125 1.203125 -0.453125 2.65625l0 0.46875q0 1.265625 0.453125 2.390625q0.46875 1.125 1.328125 1.9375q0.859375 0.828125 2.046875 1.3125q1.203125 0.484375 2.671875 0.484375zm-0.390625 -10.515625q0.625 0 1.09375 0.203125q0.46875 0.1875 0.796875 0.515625q0.328125 0.34375 0.515625 0.796875q0.1875 0.453125 0.1875 0.96875l0 0.265625l-5.34375 0q0.125 -0.625 0.359375 -1.125q0.234375 -0.515625 0.578125 -0.875q0.34375 -0.359375 0.796875 -0.546875q0.46875 -0.203125 1.015625 -0.203125zm16.808594 6.796875q0 0.296875 -0.140625 0.546875q-0.140625 0.234375 -0.4375 0.421875q-0.3125 0.1875 -0.78125 0.3125q-0.46875 0.109375 -1.109375 0.109375q-0.53125 0 -1.03125 -0.109375q-0.484375 -0.109375 -0.875 -0.34375q-0.390625 -0.21875 -0.640625 -0.578125q-0.234375 -0.375 -0.28125 -0.890625l-3.09375 0q0 0.765625 0.375 1.53125q0.375 0.765625 1.125 1.375q0.734375 0.609375 1.828125 0.984375q1.09375 0.375 2.53125 0.375q1.296875 0 2.34375 -0.28125q1.0625 -0.296875 1.8125 -0.8125q0.734375 -0.515625 1.1406555 -1.21875q0.40625 -0.71875 0.40625 -1.5625q0 -0.90625 -0.40625 -1.5625q-0.40628052 -0.671875 -1.1250305 -1.140625q-0.703125 -0.453125 -1.6875 -0.75q-0.984375 -0.296875 -2.140625 -0.484375q-0.796875 -0.109375 -1.3125 -0.265625q-0.515625 -0.171875 -0.8125 -0.359375q-0.296875 -0.1875 -0.421875 -0.421875q-0.109375 -0.25 -0.109375 -0.53125q0 -0.28125 0.125 -0.53125q0.140625 -0.25 0.40625 -0.4375q0.28125 -0.21875 0.71875 -0.328125q0.453125 -0.125 1.046875 -0.125q0.703125 0 1.203125 0.1875q0.5 0.171875 0.78125 0.453125q0.21875 0.234375 0.3125 0.515625q0.109375 0.265625 0.109375 0.578125l3.2656555 0q0 -0.875 -0.390625 -1.625q-0.39065552 -0.75 -1.1094055 -1.296875q-0.734375 -0.546875 -1.796875 -0.859375q-1.046875 -0.3125 -2.375 -0.3125q-1.265625 0 -2.28125 0.328125q-1.0 0.3125 -1.703125 0.84375q-0.703125 0.546875 -1.078125 1.265625q-0.375 0.703125 -0.375 1.5q0 0.796875 0.359375 1.421875q0.375 0.625 1.03125 1.09375q0.65625 0.484375 1.578125 0.8125q0.921875 0.328125 2.03125 0.5625q0.875 0.15625 1.453125 0.328125q0.578125 0.15625 0.921875 0.34375q0.34375 0.203125 0.46875 0.421875q0.140625 0.21875 0.140625 0.515625zm12.199249 -12.296875l-3.25 0l0 3.09375l-2.890625 0l0 2.40625l2.890625 0l0 5.765625q0 1.25 0.328125 2.15625q0.328125 0.890625 0.9375 1.46875q0.59375 0.578125 1.4375 0.859375q0.859375 0.28125 1.90625 0.28125q0.53125 0 1.078125 -0.0625q0.5625 -0.046875 1.078125 -0.140625q0.515625 -0.09375 0.96875 -0.234375q0.46875 -0.15625 0.8125 -0.359375l-0.328125 -2.234375q-0.21875 0.0625 -0.53125 0.125q-0.3125 0.046875 -0.65625 0.09375q-0.359375 0.0625 -0.765625 0.109375q-0.390625 0.03125 -0.765625 0.03125q-0.515625 0 -0.9375 -0.109375q-0.40625 -0.125 -0.703125 -0.40625q-0.28125 -0.28125 -0.453125 -0.734375q-0.15625 -0.46875 -0.15625 -1.15625l0 -5.453125l4.734375 0l0 -2.40625l-4.734375 0l0 -3.09375z" fill-rule="nonzero"/><path fill="#f3f3f3" d="m428.85568 275.71725l0 0.25q0 1.375 0.359375 2.5625q0.359375 1.171875 1.015625 2.03125q0.671875 0.859375 1.609375 1.34375q0.953125 0.484375 2.140625 0.484375q0.59375 0 1.109375 -0.140625q0.53125 -0.125 0.953125 -0.359375q0.296875 -0.15625 0.546875 -0.359375q0.265625 -0.21875 0.5 -0.484375l0 0.734375q0 0.640625 -0.1875 1.15625q-0.171875 0.515625 -0.515625 0.875q-0.375 0.390625 -0.9375 0.578125q-0.546875 0.203125 -1.265625 0.203125q-0.4375 0 -0.859375 -0.09375q-0.421875 -0.078125 -0.796875 -0.25q-0.40625 -0.1875 -0.765625 -0.46875q-0.359375 -0.265625 -0.6875 -0.625l-1.453125 1.984375q0.40625 0.515625 0.96875 0.890625q0.578125 0.390625 1.234375 0.640625q0.640625 0.25 1.296875 0.359375q0.65625 0.125 1.234375 0.125q1.328125 0 2.4375 -0.359375q1.109375 -0.359375 1.90625 -1.046875q0.78125 -0.703125 1.21875 -1.71875q0.4375 -1.0 0.4375 -2.28125l0 -12.28125l-2.953125 0l-0.140625 1.21875q-0.234375 -0.296875 -0.515625 -0.53125q-0.28125 -0.25 -0.609375 -0.421875q-0.421875 -0.25 -0.96875 -0.375q-0.53125 -0.125 -1.171875 -0.125q-1.1875 0 -2.140625 0.46875q-0.953125 0.46875 -1.625 1.328125q-0.65625 0.859375 -1.015625 2.0625q-0.359375 1.1875 -0.359375 2.625zm3.265625 0.25l0 -0.25q0 -0.796875 0.15625 -1.484375q0.171875 -0.703125 0.515625 -1.234375q0.328125 -0.515625 0.828125 -0.8125q0.5 -0.296875 1.203125 -0.296875q0.375 0 0.6875 0.078125q0.328125 0.0625 0.59375 0.1875q0.3125 0.15625 0.5625 0.40625q0.25 0.234375 0.421875 0.5625l0 5.375q-0.15625 0.296875 -0.390625 0.53125q-0.21875 0.234375 -0.515625 0.390625q-0.28125 0.15625 -0.625 0.234375q-0.34375 0.078125 -0.765625 0.078125q-0.6875 0 -1.203125 -0.28125q-0.5 -0.296875 -0.828125 -0.8125q-0.328125 -0.5 -0.484375 -1.1875q-0.15625 -0.6875 -0.15625 -1.484375zm11.011719 -0.265625l0 0.234375q0 1.40625 0.390625 2.578125q0.40625 1.171875 1.1875 2.046875q0.765625 0.859375 1.875 1.359375q1.125 0.484375 2.546875 0.484375q1.421875 0 2.53125 -0.484375q1.125 -0.5 1.875 -1.359375q0.765625 -0.875 1.15625 -2.046875q0.40625 -1.171875 0.40625 -2.578125l0 -0.234375q0 -1.390625 -0.40625 -2.5625q-0.390625 -1.1875 -1.15625 -2.046875q-0.765625 -0.875 -1.890625 -1.359375q-1.109375 -0.5 -2.53125 -0.5q-1.4375 0 -2.546875 0.5q-1.09375 0.484375 -1.859375 1.359375q-0.78125 0.859375 -1.1875 2.046875q-0.390625 1.171875 -0.390625 2.5625zm3.265625 0.234375l0 -0.234375q0 -0.78125 0.140625 -1.46875q0.15625 -0.6875 0.484375 -1.21875q0.328125 -0.53125 0.84375 -0.828125q0.515625 -0.3125 1.25 -0.3125q0.734375 0 1.25 0.3125q0.515625 0.296875 0.84375 0.828125q0.3125 0.53125 0.46875 1.21875q0.15625 0.6875 0.15625 1.46875l0 0.234375q0 0.796875 -0.15625 1.5q-0.15625 0.703125 -0.46875 1.21875q-0.328125 0.515625 -0.84375 0.828125q-0.515625 0.296875 -1.234375 0.296875q-0.734375 0 -1.265625 -0.296875q-0.515625 -0.3125 -0.84375 -0.828125q-0.328125 -0.515625 -0.484375 -1.21875q-0.140625 -0.703125 -0.140625 -1.5zm35.101562 -6.703125q-1.28125 0 -2.359375 0.625q-1.078125 0.609375 -1.859375 1.6875l-0.015625 -0.28125l-0.125 -1.796875l-3.046875 0l0 12.6875l3.265625 0l0 -7.625q0.21875 -0.53125 0.5625 -0.921875q0.34375 -0.40625 0.8125 -0.671875q0.40625 -0.21875 0.90625 -0.328125q0.515625 -0.109375 1.15625 -0.109375q0.609375 0 1.28125 0.078125q0.671875 0.078125 1.3125 0.21875l0.484375 -3.234375q-0.390625 -0.125 -1.015625 -0.21875q-0.625 -0.109375 -1.359375 -0.109375zm13.558594 12.921875l2.953125 0l0 -12.6875l-3.265625 0l0 8.90625q-0.15625 0.296875 -0.375 0.546875q-0.203125 0.25 -0.46875 0.421875q-0.3125 0.203125 -0.734375 0.3125q-0.40625 0.09375 -0.921875 0.09375q-0.578125 0 -0.984375 -0.140625q-0.390625 -0.140625 -0.640625 -0.46875q-0.25 -0.3125 -0.359375 -0.84375q-0.109375 -0.53125 -0.109375 -1.296875l0 -7.53125l-3.25 0l0 7.5q0 1.453125 0.3125 2.484375q0.328125 1.015625 0.90625 1.671875q0.59375 0.671875 1.40625 0.984375q0.828125 0.296875 1.8125 0.296875q1.078125 0 1.984375 -0.53125q0.90625 -0.546875 1.546875 -1.5l0.1875 1.78125zm6.1367188 0l3.265625 0l0 -9.015625q0.171875 -0.25 0.359375 -0.453125q0.203125 -0.21875 0.453125 -0.375q0.296875 -0.21875 0.6875 -0.3125q0.40625 -0.109375 0.875 -0.109375q0.5625 0 1.0 0.109375q0.453125 0.109375 0.765625 0.390625q0.3125 0.28125 0.484375 0.765625q0.171875 0.484375 0.171875 1.234375l0 7.765625l3.2500305 0l0 -7.8125q0 -1.375 -0.328125 -2.34375q-0.31253052 -0.96875 -0.8906555 -1.59375q-0.578125 -0.609375 -1.375 -0.890625q-0.796875 -0.28125 -1.765625 -0.28125q-0.75 0 -1.421875 0.21875q-0.65625 0.203125 -1.21875 0.609375q-0.328125 0.234375 -0.625 0.53125q-0.296875 0.28125 -0.53125 0.640625l-0.203125 -1.765625l-2.953125 0l0 12.6875z" fill-rule="nonzero"/><path fill="#f3f3f3" d="m428.85568 324.83725l0 0.25q0 1.375 0.359375 2.5625q0.359375 1.171875 1.015625 2.03125q0.671875 0.859375 1.609375 1.34375q0.953125 0.484375 2.140625 0.484375q0.59375 0 1.109375 -0.140625q0.53125 -0.125 0.953125 -0.359375q0.296875 -0.15625 0.546875 -0.359375q0.265625 -0.21875 0.5 -0.484375l0 0.734375q0 0.640625 -0.1875 1.15625q-0.171875 0.515625 -0.515625 0.875q-0.375 0.390625 -0.9375 0.578125q-0.546875 0.203125 -1.265625 0.203125q-0.4375 0 -0.859375 -0.09375q-0.421875 -0.078125 -0.796875 -0.25q-0.40625 -0.1875 -0.765625 -0.46875q-0.359375 -0.265625 -0.6875 -0.625l-1.453125 1.984375q0.40625 0.515625 0.96875 0.890625q0.578125 0.390625 1.234375 0.640625q0.640625 0.25 1.296875 0.359375q0.65625 0.125 1.234375 0.125q1.328125 0 2.4375 -0.359375q1.109375 -0.359375 1.90625 -1.046875q0.78125 -0.703125 1.21875 -1.71875q0.4375 -1.0 0.4375 -2.28125l0 -12.28125l-2.953125 0l-0.140625 1.21875q-0.234375 -0.296875 -0.515625 -0.53125q-0.28125 -0.25 -0.609375 -0.421875q-0.421875 -0.25 -0.96875 -0.375q-0.53125 -0.125 -1.171875 -0.125q-1.1875 0 -2.140625 0.46875q-0.953125 0.46875 -1.625 1.328125q-0.65625 0.859375 -1.015625 2.0625q-0.359375 1.1875 -0.359375 2.625zm3.265625 0.25l0 -0.25q0 -0.796875 0.15625 -1.484375q0.171875 -0.703125 0.515625 -1.234375q0.328125 -0.515625 0.828125 -0.8125q0.5 -0.296875 1.203125 -0.296875q0.375 0 0.6875 0.078125q0.328125 0.0625 0.59375 0.1875q0.3125 0.15625 0.5625 0.40625q0.25 0.234375 0.421875 0.5625l0 5.375q-0.15625 0.296875 -0.390625 0.53125q-0.21875 0.234375 -0.515625 0.390625q-0.28125 0.15625 -0.625 0.234375q-0.34375 0.078125 -0.765625 0.078125q-0.6875 0 -1.203125 -0.28125q-0.5 -0.296875 -0.828125 -0.8125q-0.328125 -0.5 -0.484375 -1.1875q-0.15625 -0.6875 -0.15625 -1.484375zm11.011719 -0.265625l0 0.234375q0 1.40625 0.390625 2.578125q0.40625 1.171875 1.1875 2.046875q0.765625 0.859375 1.875 1.359375q1.125 0.484375 2.546875 0.484375q1.421875 0 2.53125 -0.484375q1.125 -0.5 1.875 -1.359375q0.765625 -0.875 1.15625 -2.046875q0.40625 -1.171875 0.40625 -2.578125l0 -0.234375q0 -1.390625 -0.40625 -2.5625q-0.390625 -1.1875 -1.15625 -2.046875q-0.765625 -0.875 -1.890625 -1.359375q-1.109375 -0.5 -2.53125 -0.5q-1.4375 0 -2.546875 0.5q-1.09375 0.484375 -1.859375 1.359375q-0.78125 0.859375 -1.1875 2.046875q-0.390625 1.171875 -0.390625 2.5625zm3.265625 0.234375l0 -0.234375q0 -0.78125 0.140625 -1.46875q0.15625 -0.6875 0.484375 -1.21875q0.328125 -0.53125 0.84375 -0.828125q0.515625 -0.3125 1.25 -0.3125q0.734375 0 1.25 0.3125q0.515625 0.296875 0.84375 0.828125q0.3125 0.53125 0.46875 1.21875q0.15625 0.6875 0.15625 1.46875l0 0.234375q0 0.796875 -0.15625 1.5q-0.15625 0.703125 -0.46875 1.21875q-0.328125 0.515625 -0.84375 0.828125q-0.515625 0.296875 -1.234375 0.296875q-0.734375 0 -1.265625 -0.296875q-0.515625 -0.3125 -0.84375 -0.828125q-0.328125 -0.515625 -0.484375 -1.21875q-0.140625 -0.703125 -0.140625 -1.5zm37.414062 0l0 -0.234375q0 -1.15625 -0.203125 -2.15625q-0.203125 -1.015625 -0.625 -1.828125q-0.265625 -0.5 -0.625 -0.921875q-0.34375 -0.4375 -0.78125 -0.734375q-0.546875 -0.40625 -1.234375 -0.609375q-0.671875 -0.21875 -1.5 -0.21875q-0.59375 0 -1.109375 0.125q-0.5 0.125 -0.9375 0.375q-0.3125 0.15625 -0.578125 0.390625q-0.265625 0.234375 -0.5 0.5l0 -6.46875l-3.265625 0l0 18.0l2.9375 0l0.15625 -1.34375q0.1875 0.25 0.40625 0.46875q0.234375 0.21875 0.484375 0.390625q0.484375 0.359375 1.078125 0.53125q0.609375 0.1875 1.359375 0.1875q0.796875 0 1.46875 -0.203125q0.6875 -0.203125 1.21875 -0.59375q0.59375 -0.40625 1.03125 -1.03125q0.453125 -0.625 0.71875 -1.390625q0.25 -0.6875 0.375 -1.5q0.125 -0.8125 0.125 -1.734375zm-3.25 -0.234375l0 0.234375q0 0.5 -0.046875 0.953125q-0.046875 0.453125 -0.140625 0.84375q-0.109375 0.53125 -0.34375 0.953125q-0.21875 0.40625 -0.59375 0.671875q-0.25 0.1875 -0.609375 0.296875q-0.34375 0.09375 -0.78125 0.09375q-0.5 0 -0.890625 -0.109375q-0.390625 -0.125 -0.6875 -0.34375q-0.25 -0.171875 -0.4375 -0.40625q-0.171875 -0.25 -0.3125 -0.546875l0 -5.046875q0.109375 -0.21875 0.234375 -0.40625q0.125 -0.203125 0.28125 -0.359375q0.3125 -0.3125 0.75 -0.46875q0.453125 -0.171875 1.046875 -0.171875q0.421875 0 0.765625 0.109375q0.34375 0.09375 0.609375 0.28125q0.40625 0.328125 0.609375 0.703125q0.21875 0.375 0.34375 0.859375q0.109375 0.40625 0.15625 0.875q0.046875 0.46875 0.046875 0.984375zm14.496094 6.453125l2.953125 0l0 -12.6875l-3.265625 0l0 8.90625q-0.15625 0.296875 -0.375 0.546875q-0.203125 0.25 -0.46875 0.421875q-0.3125 0.203125 -0.734375 0.3125q-0.40625 0.09375 -0.921875 0.09375q-0.578125 0 -0.984375 -0.140625q-0.390625 -0.140625 -0.640625 -0.46875q-0.25 -0.3125 -0.359375 -0.84375q-0.109375 -0.53125 -0.109375 -1.296875l0 -7.53125l-3.25 0l0 7.5q0 1.453125 0.3125 2.484375q0.328125 1.015625 0.90625 1.671875q0.59375 0.671875 1.40625 0.984375q0.828125 0.296875 1.8125 0.296875q1.078125 0 1.984375 -0.53125q0.90625 -0.546875 1.546875 -1.5l0.1875 1.78125zm6.9960938 -12.6875l0 2.671875l3.609375 0l0 7.359375l-3.609375 0l0 2.65625l10.3437805 0l0 -2.65625l-3.4375305 0l0 -10.03125l-6.90625 0zm3.375 -3.234375q0 0.375 0.140625 0.703125q0.140625 0.3125 0.375 0.53125q0.25 0.234375 0.59375 0.375q0.34375 0.125 0.765625 0.125q0.875 0 1.375 -0.484375q0.515625 -0.5 0.515625 -1.25q0 -0.765625 -0.515625 -1.25q-0.5 -0.484375 -1.375 -0.484375q-0.421875 0 -0.765625 0.125q-0.34375 0.125 -0.59375 0.34375q-0.234375 0.234375 -0.375 0.5625q-0.140625 0.328125 -0.140625 0.703125zm10.839874 -2.078125l0 2.65625l3.796875 0l0 12.6875l-3.796875 0l0 2.65625l10.734375 0l0 -2.65625l-3.640625 0l0 -15.34375l-7.09375 0zm13.386719 11.5625l0 0.25q0 1.375 0.34375 2.5625q0.34375 1.171875 0.984375 2.03125q0.625 0.859375 1.546875 1.34375q0.921875 0.484375 2.078125 0.484375q1.078125 0 1.875 -0.40625q0.8125 -0.421875 1.40625 -1.15625l0.171875 1.328125l2.9375 0l0 -18.0l-3.265625 0l0 6.453125q-0.59375 -0.65625 -1.34375 -1.015625q-0.75 -0.359375 -1.75 -0.359375q-1.1875 0 -2.109375 0.46875q-0.921875 0.46875 -1.5625 1.328125q-0.640625 0.859375 -0.984375 2.0625q-0.328125 1.1875 -0.328125 2.625zm3.265625 0.25l0 -0.25q0 -0.796875 0.140625 -1.484375q0.140625 -0.703125 0.4375 -1.234375q0.3125 -0.515625 0.796875 -0.8125q0.484375 -0.296875 1.171875 -0.296875q0.828125 0 1.375 0.359375q0.5625 0.359375 0.890625 1.0l0 5.125q-0.328125 0.640625 -0.890625 1.0q-0.546875 0.359375 -1.390625 0.359375q-0.703125 0 -1.1875 -0.28125q-0.46875 -0.296875 -0.78125 -0.8125q-0.296875 -0.5 -0.4375 -1.1875q-0.125 -0.6875 -0.125 -1.484375z" fill-rule="nonzero"/><path fill="#3d85c6" d="m261.80005 371.87738l0 0c0 -34.145966 27.680786 -61.82675 61.826782 -61.82675l0 0c16.39746 0 32.123352 6.513855 43.71811 18.108643c11.594788 11.594757 18.108643 27.320648 18.108643 43.71811l0 0c0 34.145996 -27.680786 61.826782 -61.82675 61.826782l0 0c-34.145996 0 -61.826782 -27.680786 -61.826782 -61.826782z" fill-rule="evenodd"/><path stroke="#0b5394" stroke-width="8.0" stroke-linejoin="round" stroke-linecap="butt" d="m261.80005 371.87738l0 0c0 -34.145966 27.680786 -61.82675 61.826782 -61.82675l0 0c16.39746 0 32.123352 6.513855 43.71811 18.108643c11.594788 11.594757 18.108643 27.320648 18.108643 43.71811l0 0c0 34.145996 -27.680786 61.826782 -61.82675 61.826782l0 0c-34.145996 0 -61.826782 -27.680786 -61.826782 -61.826782z" fill-rule="evenodd"/><path fill="#000000" fill-opacity="0.0" d="m257.7904 345.83188l140.78741 -14.2677l5.7952576 57.88977l-140.78738 14.2677z" fill-rule="evenodd"/><path fill="#f3f3f3" d="m278.14734 383.69232l-1.8957214 -18.936615l-6.7622375 0.68530273l-0.38601685 -3.855713l18.110382 -1.8353577l0.38598633 3.855713l-6.746704 0.68374634l1.8957214 18.936615l-4.60141 0.4663086zm20.957642 -7.43219l4.4258423 0.28961182q-0.59976196 2.4793396 -2.292511 3.9230042q-1.6787415 1.4265442 -4.39917 1.70224q-4.306061 0.43637085 -6.6553345 -2.1681519q-1.8579407 -2.0889587 -2.2019043 -5.5249023q-0.41088867 -4.104492 1.5024719 -6.6384277q1.9117737 -2.5494995 5.191864 -2.8819275q3.6842651 -0.37335205 6.058319 1.8517151q2.372528 2.2095642 2.7819824 7.2407837l-10.943939 1.1091003q0.24118042 1.9386902 1.3605652 2.924591q1.1178589 0.97036743 2.625763 0.8175354q1.026001 -0.10397339 1.6694946 -0.7345581q0.64352417 -0.6305847 0.8765564 -1.910614zm-0.19329834 -4.4406433q-0.23654175 -1.8920593 -1.2673035 -2.777008q-1.0323486 -0.9004822 -2.3692322 -0.76501465q-1.4301758 0.14492798 -2.2586365 1.2811279q-0.8284302 1.1362 -0.63391113 2.922577l6.5290833 -0.6616821zm6.854553 4.3152466l4.316864 -1.112793q0.4074402 1.246521 1.3293762 1.8283997q0.9203491 0.5663452 2.4593506 0.41036987q1.6944275 -0.17172241 2.4871826 -0.880249q0.5315857 -0.49362183 0.45843506 -1.2243347q-0.049804688 -0.49752808 -0.3934021 -0.792511q-0.35757446 -0.27786255 -1.5188293 -0.42715454q-5.4021606 -0.6304016 -6.9132996 -1.4509888q-2.0925598 -1.1385498 -2.3306885 -3.5173035q-0.21478271 -2.1455078 1.3333435 -3.7786865q1.5481567 -1.6331482 5.108032 -1.993927q3.3888855 -0.34344482 5.147217 0.5934143q1.7583008 0.93688965 2.596466 3.0349426l-4.0432434 1.1792908q-0.3607788 -0.9371643 -1.1583252 -1.3746033q-0.7819824 -0.43899536 -2.149994 -0.300354q-1.7255249 0.17486572 -2.423462 0.7324524q-0.4631958 0.39245605 -0.40872192 0.9365845q0.046691895 0.46643066 0.51464844 0.7488098q0.63430786 0.37545776 4.1958313 0.8154907q3.5770874 0.43844604 5.0758057 1.4487305q1.4847107 1.0274048 1.6932983 3.1107483q0.22723389 2.2698975 -1.5058899 4.094574q-1.7331238 1.8246765 -5.448456 2.2011719q-3.373352 0.34188843 -5.4845886 -0.8262024q-2.0956726 -1.1696777 -2.9369507 -3.4558716zm25.63443 -14.517975l0.34866333 3.482605l-2.9847107 0.30245972l0.6661377 6.6542664q0.20233154 2.0211487 0.31430054 2.3553162q0.12594604 0.3170166 0.44311523 0.50476074q0.33270264 0.18615723 0.76797485 0.14202881q0.6062622 -0.061431885 1.7145996 -0.5977783l0.7123718 3.3515015q-1.4580688 0.80737305 -3.3856812 1.0027161q-1.1814575 0.11972046 -2.1686401 -0.17285156q-0.988739 -0.308136 -1.5018005 -0.8843384q-0.49908447 -0.59332275 -0.77749634 -1.6487732q-0.216156 -0.7476196 -0.44805908 -3.0641785l-0.7206421 -7.198395l-2.0053406 0.20321655l-0.3486328 -3.4825745l2.0053406 -0.20324707l-0.32839966 -3.2804565l4.12854 -2.994049l0.5836487 5.830261l2.9847107 -0.30249023zm2.807251 -2.5460205l-0.4046936 -4.0422974l4.3682556 -0.442688l0.4046631 4.0422974l-4.368225 0.442688zm1.8770447 18.750061l-1.6529236 -16.51123l4.3682556 -0.442688l1.6528931 16.51123l-4.368225 0.442688zm23.862152 -2.4182434l-4.3682556 0.442688l-0.8435974 -8.426636q-0.2677002 -2.6741333 -0.6253357 -3.4231567q-0.3591919 -0.7645569 -1.0401306 -1.1352844q-0.6654053 -0.37231445 -1.5514832 -0.28250122q-1.1348267 0.114990234 -1.9741821 0.8282471q-0.839386 0.71328735 -1.0786438 1.7740479q-0.22375488 1.0592041 0.05331421 3.8266296l0.7486267 7.4782715l-4.3682556 0.442688l-1.6529236 -16.51123l4.0573425 -0.41119385l0.24279785 2.4253845q1.8806763 -3.017517 5.160736 -3.3499146q1.4457092 -0.1465149 2.6956482 0.26080322q1.248352 0.39175415 1.9355469 1.1387634q0.7027588 0.7454529 1.0386658 1.7479248q0.35144043 1.0009155 0.5428772 2.9132385l1.0272522 10.26123zm4.135193 0.68026733l5.0507507 0.10064697q0.21154785 0.8580322 0.69503784 1.138855q0.66851807 0.40341187 2.0054016 0.26791382q1.7099915 -0.17330933 2.5136414 -0.77301025q0.5409241 -0.4003296 0.76000977 -1.1920776q0.14764404 -0.56463623 0.0013122559 -2.0260925l-0.24124146 -2.4098206q-1.6910095 2.8726501 -4.67572 3.1751099q-3.3266907 0.3371582 -5.5515747 -2.2799988q-1.7460327 -2.0688782 -2.0775452 -5.380432q-0.41555786 -4.1511536 1.3547974 -6.5449524q1.7858887 -2.3954163 4.755066 -2.6963196q3.062439 -0.31033325 5.3215027 2.1777039l-0.23190308 -2.3165588l4.0884094 -0.41433716l1.4832764 14.816589q0.29260254 2.922882 -0.044555664 4.417633q-0.3371582 1.4947205 -1.1252136 2.406952q-0.7880249 0.91223145 -2.2026062 1.5267334q-1.3990173 0.61294556 -3.6220093 0.8382263q-4.1972656 0.425354 -6.098633 -0.8425293q-1.8998108 -1.2523193 -2.120819 -3.4600525q-0.021820068 -0.21765137 -0.037384033 -0.5301819zm2.9322205 -10.08139q0.26306152 2.6275024 1.3964539 3.7533264q1.1473999 1.1087036 2.63974 0.957489q1.6011963 -0.16229248 2.5803833 -1.5179138q0.97766113 -1.3711853 0.7317505 -3.8276672q-0.25680542 -2.5653076 -1.4384155 -3.7019653q-1.1815796 -1.1366577 -2.7983093 -0.97280884q-1.5700989 0.15911865 -2.473114 1.491333q-0.8890686 1.315094 -0.63848877 3.8182068z" fill-rule="nonzero"/><path fill="#6aa84f" d="m256.47162 227.34595l0 0c0 -34.14598 27.680817 -61.826767 61.826782 -61.826767l0 0c16.397491 0 32.123352 6.5138702 43.71814 18.108643c11.594757 11.594772 18.108643 27.320648 18.108643 43.718124l0 0c0 34.145996 -27.680786 61.826782 -61.826782 61.826782l0 0c-34.145966 0 -61.826782 -27.680786 -61.826782 -61.826782z" fill-rule="evenodd"/><path stroke="#38761d" stroke-width="8.0" stroke-linejoin="round" stroke-linecap="butt" d="m256.47162 227.34595l0 0c0 -34.14598 27.680817 -61.826767 61.826782 -61.826767l0 0c16.397491 0 32.123352 6.5138702 43.71814 18.108643c11.594757 11.594772 18.108643 27.320648 18.108643 43.718124l0 0c0 34.145996 -27.680786 61.826782 -61.826782 61.826782l0 0c-34.145966 0 -61.826782 -27.680786 -61.826782 -61.826782z" fill-rule="evenodd"/><path fill="#000000" fill-opacity="0.0" d="m252.46199 201.30046l140.7874 -14.267715l5.0078735 49.826767l-140.78741 14.267715z" fill-rule="evenodd"/><path fill="#f3f3f3" d="m277.45 225.55273l3.6568604 0.76016235q-0.5270386 3.0373688 -2.2782593 4.675415q-1.7372437 1.6209106 -4.628662 1.9139404q-3.6065369 0.36549377 -6.1696777 -1.8561554q-2.5476074 -2.2232056 -2.9757385 -6.4830017q-0.453125 -4.5085297 1.6131287 -7.2307434q2.081787 -2.7237701 5.874878 -3.1081696q3.3111572 -0.3355713 5.5755615 1.4137878q1.3437195 1.026001 2.1671753 3.1255493l-3.5190125 1.2360992q-0.4515381 -1.367691 -1.5587769 -2.0721436q-1.0932617 -0.7215729 -2.5390015 -0.575058q-2.0053406 0.20323181 -3.1192017 1.7766724q-1.099884 1.5563354 -0.7748718 4.790039q0.34375 3.4202728 1.7187195 4.757202q1.3734131 1.3213806 3.3476562 1.1213074q1.4612732 -0.14808655 2.410614 -1.1708984q0.9477844 -1.0383453 1.1986084 -3.0740051zm5.8315735 -0.6695099q-0.1734314 -1.7256775 0.5050659 -3.4120636q0.6925049 -1.7035065 2.1611023 -2.7161102q1.4685974 -1.0126038 3.3962097 -1.207962q2.9691772 -0.30090332 5.043915 1.436264q2.0903015 1.7355957 2.38562 4.6739197q0.2984314 2.9694061 -1.4167786 5.1220703q-1.7167664 2.1371002 -4.623749 2.4317017q-1.7877197 0.18118286 -3.5012207 -0.46183777q-1.7135315 -0.6430054 -2.7263489 -2.1265717q-0.9972534 -1.4851379 -1.2238159 -3.7394104zm3.5630798 -0.17263794q0.19534302 1.9433441 1.2171936 2.8920135q1.0358582 0.93156433 2.3883057 0.7944946q1.3524475 -0.13705444 2.166504 -1.2560883q0.8124695 -1.1345673 0.6140442 -3.1090088q-0.1921997 -1.9122314 -1.2124939 -2.8453674q-1.0218811 -0.9486847 -2.3743286 -0.811615q-1.3524475 0.13705444 -2.180481 1.2732086q-0.8140564 1.1190338 -0.6187439 3.0623627zm16.888336 4.884613l-6.568451 -12.542267l3.6220703 -0.36706543l3.1420593 6.419037l0.92453 2.1678162q0.20944214 -0.8849945 0.24505615 -1.1555939q0.114746094 -0.5770111 0.2605896 -1.1571655l1.816925 -6.921585l3.559906 -0.3607788l-3.8780823 13.600952l-3.1246033 0.3166504zm17.575378 -5.990082l3.510437 0.24104309q-0.47781372 1.9644318 -1.8079834 3.1043549q-1.3317566 1.1243896 -3.4925537 1.3433685q-3.4044495 0.34501648 -5.260132 -1.7127533q-1.4855042 -1.6555328 -1.7589722 -4.3762054q-0.3265686 -3.2492523 1.1835022 -5.255478q1.5240479 -2.023346 4.1201477 -2.286438q2.9069824 -0.29460144 4.7796326 1.4630432q1.8881836 1.756073 2.2260132 5.742325l-8.674316 0.8790741q0.20132446 1.5343933 1.0800781 2.3091125q0.8943176 0.7731476 2.0757446 0.65341187q0.8239136 -0.083496094 1.3242493 -0.5739441q0.51431274 -0.50756836 0.69415283 -1.5309143zm-0.1479187 -3.5029297q-0.19821167 -1.5032959 -1.022522 -2.205017q-0.80874634 -0.70329285 -1.8658447 -0.5961609q-1.1192627 0.11343384 -1.7826233 1.0130157q-0.64782715 0.8980255 -0.50564575 2.3127747l5.1766357 -0.5246124zm10.321747 6.680847l-3.4510803 0.34973145l-1.3140869 -13.074753l3.202362 -0.32453918l0.1875 1.8656006q0.6911011 -1.404953 1.3018188 -1.8908844q0.6262512 -0.48750305 1.4656982 -0.5725708q1.1814575 -0.11973572 2.335266 0.42294312l-0.7539673 3.1231842q-0.9423218 -0.46987915 -1.6885071 -0.3942566q-0.73065186 0.074035645 -1.2030029 0.5302429q-0.45840454 0.4390869 -0.647522 1.5261841q-0.17510986 1.0699921 0.15927124 4.3969727l0.40625 4.042145zm8.178864 -10.00061l-3.1979675 -0.25698853q0.33947754 -1.9347076 1.5375671 -2.982727q1.1980591 -1.0480194 3.7474976 -1.3063812q2.3162842 -0.23472595 3.4917908 0.21151733q1.1894836 0.42912292 1.7402344 1.2213898q0.55075073 0.7922516 0.77731323 3.046524l0.35961914 4.0468597q0.1734314 1.7256927 0.4272461 2.5323334q0.2522583 0.7910919 0.79681396 1.6782074l-3.419983 0.34658813q-0.17428589 -0.32785034 -0.42956543 -0.9929962q-0.12295532 -0.28593445 -0.16500854 -0.39160156q-0.798584 0.96040344 -1.7652588 1.4981079q-0.9682617 0.522171 -2.1186218 0.63874817q-2.0209045 0.20480347 -3.296173 -0.76530457q-1.261322 -0.98724365 -1.4300537 -2.666275q-0.110961914 -1.1038208 0.33166504 -2.0124512q0.44104004 -0.9241791 1.3424072 -1.4866791q0.91696167 -0.56407166 2.670288 -1.0872803q2.3797607 -0.6966095 3.271881 -1.195343l-0.03439331 -0.34202576q-0.1000061 -0.9949951 -0.63964844 -1.3643341q-0.52407837 -0.3709259 -1.8920898 -0.2322998q-0.9171753 0.09295654 -1.4097595 0.50408936q-0.4770813 0.40956116 -0.6958008 1.3583221zm4.8982544 2.3305054q-0.64501953 0.3009491 -2.0594788 0.75839233q-1.4005127 0.44032288 -1.8060913 0.77983093q-0.6355591 0.5512543 -0.5605469 1.2975006q0.0718689 0.7151489 0.6690979 1.1885986q0.5971985 0.4734497 1.4366455 0.3883667q0.93273926 -0.09451294 1.7112427 -0.78590393q0.5904846 -0.53100586 0.7082825 -1.233963q0.09616089 -0.44947815 -0.028839111 -1.693222l-0.0703125 -0.6996002zm7.2077637 6.4781647l3.9969482 0.08180237q0.16357422 0.6901398 0.5461426 0.9026489q0.5349426 0.32270813 1.592041 0.21559143q1.3524475 -0.1370697 1.9802551 -0.60902405q0.43823242 -0.32710266 0.61206055 -0.94151306q0.111694336 -0.4510498 -0.0039367676 -1.6015015l-0.1921997 -1.9122467q-1.342041 2.271881 -3.7049255 2.5113525q-2.6271667 0.26623535 -4.3895874 -1.8009644q-1.3891296 -1.6338959 -1.6531982 -4.2612915q-0.3296814 -3.2803497 1.0809326 -5.182266q1.4106445 -1.9019165 3.7579956 -2.139801q2.4250793 -0.24577332 4.2092285 1.7250061l-0.1843872 -1.8345032l3.233429 -0.3276825l1.179718 11.737747q0.2328186 2.316452 -0.041748047 3.490738q-0.2574768 1.1882629 -0.875824 1.910553q-0.6183777 0.7222748 -1.7327881 1.1964264q-1.1128845 0.48970032 -2.8695068 0.6677246q-3.3266907 0.3371277 -4.8398438 -0.6559906q-1.4976196 -0.99468994 -1.6741638 -2.7514648q-0.017211914 -0.17102051 -0.026641846 -0.42134094zm2.3076477 -7.9764404q0.2093811 2.083252 1.114624 2.9652252q0.9052124 0.88197327 2.08667 0.76223755q1.2747192 -0.12918091 2.046814 -1.1968384q0.77053833 -1.0832062 0.57522583 -3.0265503q-0.2046814 -2.0366058 -1.1425781 -2.9309845q-0.9378967 -0.8943634 -2.212616 -0.7651825q-1.2436218 0.1260376 -1.9551086 1.1718445q-0.7114868 1.0458221 -0.513031 3.0202484zm20.461731 0.59620667l3.5104675 0.24104309q-0.47784424 1.9644318 -1.8080139 3.1043549q-1.3317261 1.1243896 -3.4925232 1.3433685q-3.4044495 0.34500122 -5.2601624 -1.7127533q-1.4855042 -1.6555328 -1.7589417 -4.3762054q-0.3265686 -3.2492523 1.1835022 -5.255478q1.5240479 -2.023346 4.1201477 -2.286438q2.9069824 -0.29460144 4.7796326 1.4630432q1.8881836 1.756073 2.2260132 5.742325l-8.674316 0.8790741q0.20132446 1.5343933 1.0800781 2.3091125q0.8942871 0.7731476 2.0757446 0.65341187q0.8239136 -0.083496094 1.3242493 -0.5739441q0.51431274 -0.50756836 0.6941223 -1.5309143zm-0.1479187 -3.5029297q-0.19818115 -1.5032959 -1.0224915 -2.205017q-0.80874634 -0.70329285 -1.8658447 -0.5961609q-1.1192627 0.11343384 -1.7826233 1.0130157q-0.64782715 0.8980255 -0.50564575 2.3127747l5.176605 -0.5246124z" fill-rule="nonzero"/><path fill="#e69138" d="m358.87753 116.40882l0 0c0 -34.14598 27.680786 -61.82677 61.826782 -61.82677l0 0c16.39746 0 32.123352 6.513874 43.71811 18.108646c11.594788 11.594765 18.108643 27.320648 18.108643 43.718124l0 0c0 34.14599 -27.680786 61.826775 -61.82675 61.826775l0 0c-34.145996 0 -61.826782 -27.680786 -61.826782 -61.826775z" fill-rule="evenodd"/><path stroke="#b45f06" stroke-width="8.0" stroke-linejoin="round" stroke-linecap="butt" d="m358.87753 116.40882l0 0c0 -34.14598 27.680786 -61.82677 61.826782 -61.82677l0 0c16.39746 0 32.123352 6.513874 43.71811 18.108646c11.594788 11.594765 18.108643 27.320648 18.108643 43.718124l0 0c0 34.14599 -27.680786 61.826775 -61.82675 61.826775l0 0c-34.145996 0 -61.826782 -27.680786 -61.826782 -61.826775z" fill-rule="evenodd"/><path fill="#000000" fill-opacity="0.0" d="m365.53912 75.42583l113.102356 -11.464569l8.944885 90.04724l-113.102356 11.464569z" fill-rule="evenodd"/><path fill="#ffffff" d="m378.22034 90.3832l8.363403 -0.8477478q2.4717102 -0.2505417 3.7058716 -0.15576935q1.248169 0.07764435 2.2612915 0.63455963q1.0286865 0.5553436 1.7756958 1.5946808q0.76104736 1.0222092 0.89541626 2.3749313q0.14517212 1.4615631 -0.52563477 2.770256q-0.67077637 1.3086929 -1.9629822 2.0521774q1.9676819 0.36592865 3.1264954 1.5990982q1.1588135 1.2331772 1.3379822 3.0368042q0.14208984 1.4304581 -0.39196777 2.850937q-0.52008057 1.4033508 -1.5901184 2.3284836q-1.0700378 0.9251251 -2.7304077 1.2818909q-1.0462646 0.21598816 -5.0694275 0.6552048l-7.1197815 0.7216873l-2.0758362 -20.897194zm4.5743103 3.054268l0.48034668 4.8355865l2.7670898 -0.28048706q2.4561462 -0.24897003 3.0546875 -0.3881607q1.0602722 -0.23311615 1.6203308 -0.9180908q0.5600281 -0.68496704 0.45962524 -1.6956177q-0.09576416 -0.96401215 -0.70007324 -1.5152512q-0.58877563 -0.5528183 -1.6582336 -0.5700531q-0.6295166 -0.014709473 -3.5986938 0.28625488l-2.4250793 0.24581909zm0.82476807 8.302902l0.5560303 5.597458l3.901886 -0.3955078q2.2851562 -0.23163605 2.877533 -0.43302917q0.91574097 -0.26557922 1.4415894 -0.97849274q0.5243225 -0.7284622 0.41464233 -1.8324051q-0.09420776 -0.94846344 -0.6098938 -1.5558014q-0.51568604 -0.60733795 -1.4155579 -0.8145218q-0.8858948 -0.2243042 -3.7617798 0.06720734l-3.4044495 0.34509277zm25.990753 1.700058l4.0615845 0.26361847q-0.5439453 2.2695465 -2.0930176 3.588745q-1.5490417 1.319191 -4.0362854 1.571312q-3.9485168 0.40023804 -6.1014404 -1.9885712q-1.6977844 -1.9166794 -2.0097656 -5.05748q-0.3737793 -3.7627335 1.3733215 -6.091423q1.7626648 -2.3302689 4.762909 -2.6343842q3.373352 -0.34194183 5.53891 1.7000732q2.179596 2.0248947 2.5590515 6.635132l-10.026764 1.0163574q0.20718384 1.7693787 1.2232056 2.6715164q1.0315552 0.9005585 2.4151 0.76031494q0.9482727 -0.09612274 1.534668 -0.6738281q0.58636475 -0.5777054 0.79852295 -1.761383zm-0.16836548 -4.066246q-0.21963501 -1.7367096 -1.1642151 -2.551857q-0.9445801 -0.8151474 -2.1726685 -0.6906662q-1.3057861 0.13236237 -2.0665894 1.1674881q-0.7592163 1.0506744 -0.58151245 2.681694l5.9849854 -0.60665894zm21.880524 6.7339706l-3.9951477 0.40496826l-0.76760864 -7.7276077q-0.24249268 -2.4411163 -0.5778198 -3.1295624q-0.32131958 -0.7055664 -0.9506531 -1.0344009q-0.6153259 -0.3459549 -1.4236755 -0.2640152q-1.041565 0.10557556 -1.8083191 0.7643814q-0.76828 0.6432648 -0.98498535 1.6232376q-0.2182312 0.96442413 0.03353882 3.4988327l0.6811218 6.856888l-3.9951477 0.40496826l-1.5028381 -15.1287l3.7153625 -0.37660217l0.22085571 2.2234344q1.7194214 -2.7656174 4.735199 -3.071312q1.3213501 -0.13394165 2.457428 0.23776245q1.1500549 0.3545761 1.7838135 1.0441742q0.6477661 0.6724777 0.95962524 1.598877q0.31030273 0.9108505 0.48483276 2.6678314l0.9344177 9.406845zm16.188751 -12.414635l-3.861908 1.1138916q-0.31948853 -1.1612015 -1.0932617 -1.6795578q-0.7597656 -0.5354843 -1.8790283 -0.42203522q-1.507904 0.15284729 -2.2904968 1.2844162q-0.78414917 1.1160202 -0.5432129 3.5415878q0.2672119 2.689888 1.2800293 3.717987q1.0112915 1.012558 2.534729 0.8581314q1.1503601 -0.116607666 1.802124 -0.82657623q0.6657715 -0.72709656 0.80358887 -2.342987l3.9993896 0.26992035q-0.3375244 2.766899 -1.9411316 4.327194q-1.6036377 1.5603027 -4.5261536 1.8565445q-3.3111572 0.33563232 -5.4923706 -1.5477448q-2.1827698 -1.8989334 -2.5519104 -5.6150208q-0.3722229 -3.7471924 1.39505 -6.030815q1.7828369 -2.2851944 5.156189 -2.6271286q2.7670593 -0.28048706 4.5182495 0.751297q1.7496338 1.0162354 2.6901245 3.3708954zm6.0086365 -10.943001l0.7630005 7.6809616q1.7192078 -2.4515 4.408539 -2.7241058q1.3835449 -0.1402359 2.5382385 0.26098633q1.170227 0.39964294 1.8086243 1.1358948q0.6383972 0.7362442 0.9378052 1.6953125q0.313385 0.94194794 0.51571655 2.9788055l0.8819275 8.878197l-3.9951477 0.40496826l-0.7938843 -7.9919357q-0.23632812 -2.3789215 -0.5328369 -2.992775q-0.29803467 -0.62940216 -0.9102783 -0.94425964q-0.61224365 -0.3148651 -1.4827881 -0.22662354q-0.99490356 0.10085297 -1.7398376 0.66321564q-0.7293701 0.560791 -1.0051575 1.5781708q-0.2602539 1.0157928 -0.07180786 2.912712l0.75372314 7.5876694l-3.9951477 0.40496826l-2.0758362 -20.897194l3.9951477 -0.40496826z" fill-rule="nonzero"/><path fill="#ffffff" d="m381.93085 131.21405l3.6997986 -0.37503052l0.20541382 2.0679474q1.7348633 -2.610138 4.4708557 -2.8874664q1.4612427 -0.14811707 2.5785828 0.35112q1.1313171 0.4821167 1.935791 1.6255646q0.87442017 -1.3136292 1.966095 -2.0210724q1.1056519 -0.72457886 2.4114685 -0.8569336q1.6633301 -0.16860962 2.8816528 0.39891052q1.2323303 0.55041504 1.9216919 1.7997589q0.5154724 0.921463 0.73172 3.0982513l0.96069336 9.671173l-3.9951477 0.40496826l-0.85876465 -8.644974q-0.22393799 -2.2545319 -0.7085571 -2.8650208q-0.64456177 -0.79844666 -1.7949219 -0.681839q-0.839447 0.08509827 -1.534668 0.6738281q-0.679657 0.5871582 -0.9227905 1.6169281q-0.2291565 1.0126495 -0.016021729 3.1583405l0.72128296 7.261154l-3.9951477 0.40496826l-0.82321167 -8.2873535q-0.21932983 -2.2078857 -0.5003052 -2.8233185q-0.28250122 -0.63098145 -0.7641907 -0.8962555q-0.466156 -0.2668457 -1.2434387 -0.18804932q-0.9171753 0.09295654 -1.6139221 0.66615295q-0.6967468 0.57318115 -0.9289856 1.5547333q-0.2182312 0.96443176 -0.0020141602 3.14122l0.7305603 7.3544464l-4.010681 0.40653992l-1.5028381 -15.128693zm29.698822 1.6539917l-3.7040405 -0.29985046q0.40405273 -2.255371 1.7929077 -3.4483948q1.3873291 -1.2085724 4.3409424 -1.5079651q2.6737976 -0.2710266 4.042938 0.23410034q1.3831177 0.4880066 2.0089722 1.4139862q0.64138794 0.9243927 0.9008789 3.5365448l0.41671753 4.669281q0.19769287 1.9902039 0.4784546 2.919754q0.29629517 0.9279785 0.9329529 1.9627991l-3.9640503 0.4018097q-0.19561768 -0.38850403 -0.50601196 -1.1422882q-0.1288147 -0.3481598 -0.18624878 -0.4522705q-0.92715454 1.0991058 -2.0436096 1.7148285q-1.1164856 0.6157379 -2.4533997 0.7512512q-2.331787 0.23635864 -3.8093262 -0.88597107q-1.463562 -1.1394653 -1.6566162 -3.083023q-0.12664795 -1.2749786 0.38076782 -2.331543q0.52142334 -1.0736847 1.5726013 -1.7142029q1.0496826 -0.65608215 3.0925903 -1.2714996q2.7456665 -0.8122711 3.789032 -1.3734894l-0.040161133 -0.4042511q-0.11428833 -1.150589 -0.7373352 -1.574295q-0.6246033 -0.43925476 -2.1947021 -0.2801056q-1.0726318 0.10873413 -1.6371765 0.58999634q-0.54904175 0.47969055 -0.81707764 1.5747986zm5.6859436 2.706009q-0.7525635 0.32756042 -2.3804016 0.8537903q-1.6278076 0.5262146 -2.106842 0.9202881q-0.73721313 0.6401062 -0.6522522 1.4952698q0.08340454 0.83961487 0.7669983 1.398529q0.6976013 0.5417938 1.6614075 0.4440918q1.0881653 -0.110305786 1.9964905 -0.9248047q0.6765747 -0.6182556 0.83096313 -1.4348755q0.10449219 -0.52885437 -0.037597656 -1.9593201l-0.07876587 -0.79296875zm12.425354 6.0747833l-3.9951782 0.404953l-1.5028076 -15.128693l3.715332 -0.37660217l0.21316528 2.145691q0.7969055 -1.619873 1.5107422 -2.1790848q0.71383667 -0.55921936 1.6931763 -0.6584854q1.3680115 -0.13867188 2.7013245 0.48002625l-0.8805847 3.6228943q-1.0908508 -0.54904175 -1.9458618 -0.46237183q-0.85498047 0.08666992 -1.399353 0.6130066q-0.5303955 0.50920105 -0.7519226 1.7566528q-0.20599365 1.2458801 0.17706299 5.101898l0.4649048 4.6801147zm7.391083 -0.74920654l-2.0758362 -20.897186l3.9951477 -0.40496826l1.1012573 11.08609l4.1664734 -5.7934723l4.9278564 -0.49951172l-4.628296 6.044449l6.5042114 9.0464325l-4.321594 0.43806458l-4.4835815 -6.4086456l-1.6723633 2.1326447l0.48187256 4.8511353l-3.9951477 0.40496826zm14.523682 -5.838196l3.9504395 -1.0129242q0.38012695 1.1393433 1.2176208 1.6669464q0.85305786 0.5260315 2.2521362 0.3842163q1.5545349 -0.15757751 2.2901917 -0.8132324q0.4899292 -0.44229126 0.42352295 -1.1108704q-0.0463562 -0.46646118 -0.37106323 -0.7319336q-0.32315063 -0.24993896 -1.3894043 -0.3931427q-4.941162 -0.5827942 -6.3334656 -1.3211365q-1.909729 -1.0471344 -2.1275024 -3.2394714q-0.1946106 -1.9591064 1.2270813 -3.4538498q1.4217224 -1.494751 4.670685 -1.8240814q3.1090698 -0.3151474 4.7173767 0.54265594q1.6238098 0.8562317 2.3796082 2.7741623l-3.7080078 1.0825882q-0.32122803 -0.8626251 -1.0515442 -1.2597504q-0.7147827 -0.3986969 -1.9739685 -0.27105713q-1.5856323 0.16072083 -2.2263794 0.6654129q-0.41992188 0.35666656 -0.3704834 0.8542175q0.04324341 0.43535614 0.4767456 0.6898117q0.5687256 0.35069275 3.8436584 0.75686646q3.2733765 0.390625 4.6531067 1.3187103q1.3502197 0.9467926 1.5401917 2.859253q0.20697021 2.083496 -1.3858337 3.7526398q-1.5772705 1.667572 -4.9972534 2.0142365q-3.0779724 0.31199646 -5.0047913 -0.74909973q-1.9283752 -1.0766449 -2.7026672 -3.1811676z" fill-rule="nonzero"/><path fill="#990000" d="m505.5491 122.81452l0 0c0 -34.14599 27.680817 -61.826775 61.82675 -61.826775l0 0c16.397522 0 32.123413 6.5138702 43.71814 18.108643c11.594788 11.594765 18.108643 27.320648 18.108643 43.718132l0 0c0 34.145973 -27.680786 61.826775 -61.826782 61.826775l0 0c-34.145935 0 -61.82675 -27.680801 -61.82675 -61.826775z" fill-rule="evenodd"/><path stroke="#660000" stroke-width="8.0" stroke-linejoin="round" stroke-linecap="butt" d="m505.5491 122.81452l0 0c0 -34.14599 27.680817 -61.826775 61.82675 -61.826775l0 0c16.397522 0 32.123413 6.5138702 43.71814 18.108643c11.594788 11.594765 18.108643 27.320648 18.108643 43.718132l0 0c0 34.145973 -27.680786 61.826775 -61.826782 61.826775l0 0c-34.145935 0 -61.82675 -27.680801 -61.82675 -61.826775z" fill-rule="evenodd"/><path fill="#000000" fill-opacity="0.0" d="m509.00775 78.62867l113.102356 -11.464561l9.322815 93.25984l-113.102356 11.464569z" fill-rule="evenodd"/><path fill="#f3f3f3" d="m536.3539 92.44381l8.052429 -0.8162384q2.720459 -0.27575684 4.19104 -0.016487122q1.9851074 0.37986755 3.4976807 1.6871185q1.5125122 1.3072586 2.437439 3.3336868q0.92333984 2.0108795 1.2294922 5.0737457q0.27044678 2.7052689 -0.20373535 4.716469q-0.5860596 2.4622803 -1.9463501 4.092148q-1.0384521 1.236023 -2.9349976 2.0564651q-1.3990479 0.6129761 -3.8552246 0.8619385l-8.285645 0.83987427l-2.182129 -21.82872zm4.767639 3.238823l1.4454346 14.459198l3.2956543 -0.33405304q1.8498535 -0.18751526 2.6535645 -0.47315216q1.0462036 -0.37303162 1.6820068 -1.0813904q0.6498413 -0.7254791 0.9390259 -2.2310638q0.3046875 -1.507164 0.051330566 -4.0414124q-0.2532959 -2.5342484 -0.83935547 -3.8411865q-0.5704956 -1.3085098 -1.4550171 -1.9884033q-0.8845215 -0.67988586 -2.138977 -0.8197098q-0.9545288 -0.12312317 -3.6438599 0.14948273l-1.9898071 0.20169067zm21.450806 5.049988l-3.8614502 -0.29961395q0.40734863 -2.3656387 1.8530884 -3.611534q1.4597168 -1.263031 4.5376587 -1.5750275q2.8137207 -0.28520966 4.248535 0.24466705q1.4332886 0.51433563 2.09552 1.4837418q0.66064453 0.95386505 0.9326172 3.6746826l0.44293213 4.902191q0.20825195 2.083374 0.50982666 3.05793q0.30004883 0.95900726 0.95758057 2.038826l-4.135071 0.4191513q-0.21295166 -0.40245056 -0.5285034 -1.2028351q-0.14459229 -0.34656525 -0.20367432 -0.46621704q-0.96850586 1.1504135 -2.1437378 1.8035126q-1.1611938 0.63597107 -2.5447388 0.7762146q-2.4406128 0.24739075 -3.9873657 -0.9307556q-1.5327759 -1.1952667 -1.7348022 -3.216446q-0.13366699 -1.3370895 0.39953613 -2.4433746q0.53167725 -1.1218414 1.6260986 -1.7981567q1.1099243 -0.67788696 3.2443237 -1.3182755q2.868164 -0.8404083 3.954773 -1.4374084l-0.041992188 -0.41978455q-0.119628906 -1.1971588 -0.7616577 -1.6503448q-0.6420288 -0.45319366 -2.305359 -0.28458405q-1.1192627 0.1134491 -1.6975708 0.6118088q-0.5783081 0.49835968 -0.8565674 1.6416321zm5.9351196 2.8220901q-0.7803955 0.36179352 -2.4841309 0.9114151q-1.7037964 0.5496292 -2.1965942 0.96079254q-0.76641846 0.6587753 -0.6777954 1.5449829q0.08856201 0.8862076 0.8052368 1.4574738q0.71661377 0.5712738 1.7426147 0.4672699q1.1192627 -0.1134491 2.0706177 -0.96372986q0.70581055 -0.63692474 0.87213135 -1.4861526q0.1026001 -0.54437256 -0.04815674 -2.0524826l-0.08392334 -0.8395691zm14.665222 -9.778809l0.33258057 3.3271713l-2.8603516 0.28993988l0.63726807 6.374481q0.1942749 1.9434433 0.30462646 2.262062q0.12432861 0.3014984 0.42590332 0.49079895q0.3156128 0.17218018 0.7352905 0.12963104q0.5907593 -0.05987549 1.6384888 -0.5744171l0.68237305 3.2131958q-1.3835449 0.76844025 -3.2333984 0.9559555q-1.1348267 0.11502838 -2.0892944 -0.16513824q-0.9404907 -0.29729462 -1.4348145 -0.8439865q-0.48034668 -0.5638046 -0.7399292 -1.5897293q-0.21295166 -0.71655273 -0.4336548 -2.9243011l-0.6901245 -6.903099l-1.9120483 0.19381714l-0.33258057 -3.3271713l1.9120483 -0.19381714l-0.31549072 -3.1561508l3.953186 -2.8664093l0.5595703 5.597107l2.8603516 -0.28993988zm6.518982 4.207779l-3.8614502 -0.29961395q0.40734863 -2.3656387 1.8530884 -3.611534q1.4597168 -1.263031 4.5377197 -1.5750275q2.8136597 -0.28520966 4.248535 0.24466705q1.4332275 0.51433563 2.095459 1.4837418q0.66064453 0.95386505 0.9326172 3.6746826l0.44299316 4.902191q0.20825195 2.083374 0.50982666 3.05793q0.2999878 0.95900726 0.95751953 2.038826l-4.135071 0.41914368q-0.21295166 -0.40244293 -0.5285034 -1.2028275q-0.14453125 -0.34656525 -0.20361328 -0.46621704q-0.96850586 1.1504135 -2.1437378 1.8035126q-1.1612549 0.63597107 -2.5447998 0.7762146q-2.4406128 0.24739075 -3.9873657 -0.9307556q-1.5327148 -1.1952667 -1.7348022 -3.216446q-0.13366699 -1.3370895 0.39959717 -2.4433746q0.53167725 -1.1218414 1.6260376 -1.7981567q1.1099854 -0.67788696 3.2443848 -1.3182755q2.868103 -0.8404083 3.954712 -1.4374084l-0.041931152 -0.41978455q-0.11968994 -1.1971588 -0.76171875 -1.6503448q-0.6419678 -0.45319366 -2.305359 -0.28459167q-1.1192627 0.113456726 -1.6975708 0.6118164q-0.5782471 0.49835968 -0.8565674 1.6416321zm5.9351807 2.8220901q-0.7803955 0.36179352 -2.484192 0.9114151q-1.7037964 0.5496292 -2.1965332 0.96079254q-0.76641846 0.6587753 -0.67785645 1.5449829q0.08862305 0.8862076 0.8052368 1.4574738q0.71661377 0.5712738 1.7426147 0.4672699q1.1192627 -0.1134491 2.0706787 -0.96372986q0.7057495 -0.63692474 0.87213135 -1.4861526q0.1026001 -0.5443802 -0.04815674 -2.0524826l-0.08392334 -0.8395691z" fill-rule="nonzero"/><path fill="#f3f3f3" d="m539.38574 151.17496l-4.1972046 0.42544556l-1.5806885 -15.811829l3.8863525 -0.39393616l0.22381592 2.2388458q0.8519287 -1.6882629 1.5949707 -2.266159q0.7415161 -0.59342957 1.7520142 -0.69584656q1.4301147 -0.14497375 2.8292236 0.49847412l-0.9250488 3.7844543q-1.1254272 -0.5769501 -2.0270996 -0.48554993q-0.88604736 0.08981323 -1.4441528 0.63323975q-0.55810547 0.5434265 -0.788208 1.8545685q-0.21606445 1.2940216 0.18798828 5.3363647l0.4880371 4.8819275zm9.88446 -12.105408l-3.8614502 -0.29962158q0.40734863 -2.365631 1.8530884 -3.6115265q1.4597168 -1.263031 4.5377197 -1.5750275q2.8136597 -0.2852173 4.248474 0.24465942q1.4332886 0.51434326 2.09552 1.4837494q0.66064453 0.9538574 0.9326172 3.6746826l0.44293213 4.902191q0.20831299 2.083374 0.50982666 3.0579224q0.30004883 0.9590149 0.95758057 2.0388336l-4.135071 0.41914368q-0.21295166 -0.40245056 -0.5285034 -1.2028351q-0.14459229 -0.34655762 -0.20361328 -0.46621704q-0.96850586 1.1504211 -2.1437378 1.8035126q-1.1612549 0.6359863 -2.5447998 0.7762146q-2.4406128 0.24739075 -3.9873657 -0.9307556q-1.5327148 -1.1952667 -1.7348022 -3.216446q-0.13366699 -1.3370819 0.39959717 -2.4433746q0.53167725 -1.1218414 1.6260376 -1.7981567q1.1099854 -0.67788696 3.2443237 -1.3182678q2.868164 -0.8404083 3.954773 -1.4374084l-0.041931152 -0.41978455q-0.11968994 -1.1971588 -0.76171875 -1.6503448q-0.6420288 -0.4532013 -2.305359 -0.28459167q-1.1192627 0.1134491 -1.6975708 0.6118164q-0.5783081 0.49835205 -0.8565674 1.6416321zm5.9351196 2.8220825q-0.7803345 0.36180115 -2.4841309 0.9114227q-1.7037964 0.5496216 -2.1965942 0.9607849q-0.7663574 0.65878296 -0.6777954 1.5449829q0.08862305 0.8862152 0.8052368 1.457489q0.71661377 0.57125854 1.7426147 0.46725464q1.1192627 -0.1134491 2.0706787 -0.96372986q0.7057495 -0.6369171 0.8720703 -1.486145q0.10266113 -0.54437256 -0.04815674 -2.0524902l-0.08392334 -0.8395691zm21.676086 -5.777939l-4.044922 1.1638641q-0.3404541 -1.206192 -1.1488037 -1.7524567q-0.7943115 -0.56340027 -1.9602051 -0.44522095q-1.5701294 0.15916443 -2.394043 1.3420258q-0.82543945 1.1673279 -0.57214355 3.7015686q0.28131104 2.8141022 1.3461914 3.8840485q1.0648193 1.0699463 2.6504517 0.90922546q1.1969604 -0.12133789 1.8903198 -0.88264465q0.69329834 -0.76130676 0.83947754 -2.440857l4.173889 0.28364563q-0.35443115 2.8942566 -2.0287476 4.524536q-1.6742554 1.6302795 -4.7211304 1.9391327q-3.4666138 0.35139465 -5.753296 -1.6312408q-2.2866821 -1.9826202 -2.673645 -5.853958q-0.3916626 -3.9179688 1.458252 -6.304199q1.8654785 -2.3878021 5.394287 -2.7454987q2.8914185 -0.29309082 4.710205 0.7789612q1.8343506 1.0704651 2.8338623 3.529068zm12.940918 4.8603516l4.236084 0.2773285q-0.5628052 2.3814087 -2.184204 3.7550507q-1.6213989 1.373642 -4.2174683 1.6367798q-4.135071 0.41915894 -6.378174 -2.0704498q-1.7861328 -2.0019531 -2.1156616 -5.2980347q-0.39318848 -3.9335175 1.4365234 -6.364807q1.8452759 -2.4328766 4.9854736 -2.751175q3.5287476 -0.35769653 5.79834 1.7680054q2.2680054 2.1101685 2.6721191 6.9377747l-10.493103 1.0636292q0.2331543 1.8609772 1.3010864 2.8049622q1.0819092 0.9268646 2.527649 0.7803192q0.9793701 -0.09927368 1.5949707 -0.6956482q0.6140137 -0.61190796 0.83636475 -1.8437347zm-0.1895752 -4.2525635q-0.22851562 -1.814331 -1.2233887 -2.6557922q-0.980896 -0.85858154 -2.2556152 -0.7293701q-1.367981 0.13865662 -2.170105 1.2250977q-0.7866211 1.0848541 -0.60009766 2.793518l6.2492065 -0.63345337zm6.5720215 4.139572l4.133484 -1.0628967q0.38555908 1.1859131 1.2731323 1.7398529q0.8876343 0.5539398 2.364441 0.40423584q1.6167603 -0.1638794 2.380005 -0.8537445q0.50213623 -0.4749298 0.43218994 -1.1745758q-0.04663086 -0.4664154 -0.37304688 -0.7474365q-0.34197998 -0.2794342 -1.4550781 -0.41789246q-5.1796875 -0.60572815 -6.6237793 -1.3859406q-2.0100098 -1.0997772 -2.2369385 -3.3697205q-0.20513916 -2.0522614 1.2716675 -3.6154175q1.4924316 -1.564743 4.9123535 -1.9114075q3.2334595 -0.32774353 4.9247437 0.5687561q1.6913452 0.89649963 2.4887695 2.9044495l-3.8754883 1.1309662q-0.34197998 -0.90763855 -1.1052246 -1.3171234q-0.7492676 -0.42660522 -2.0706177 -0.29267883q-1.6478271 0.16703796 -2.3162842 0.7059479q-0.4492798 0.37535095 -0.39794922 0.8884125q0.045043945 0.45088196 0.4958496 0.71928406q0.61712646 0.3614807 4.0355835 0.78453064q3.418396 0.42303467 4.8500977 1.3929749q1.4177246 0.98706055 1.6166382 2.9771423q0.21759033 2.176651 -1.4442139 3.931305q-1.6478271 1.7375488 -5.2077637 2.0983887q-3.2333984 0.3277588 -5.260498 -0.7859955q-2.0130615 -1.1308746 -2.8120728 -3.3114166z" fill-rule="nonzero"/><path fill="#741b47" d="m642.6118 176.68878l0 0c0 -34.14598 27.680847 -61.826775 61.826782 -61.826775l0 0c16.397522 0 32.123352 6.5138702 43.71814 18.108635c11.594788 11.594772 18.108643 27.320663 18.108643 43.71814l0 0c0 34.14598 -27.680786 61.826767 -61.826782 61.826767l0 0c-34.145935 0 -61.826782 -27.680786 -61.826782 -61.826767z" fill-rule="evenodd"/><path stroke="#4c1130" stroke-width="8.0" stroke-linejoin="round" stroke-linecap="butt" d="m642.6118 176.68878l0 0c0 -34.14598 27.680847 -61.826775 61.826782 -61.826775l0 0c16.397522 0 32.123352 6.5138702 43.71814 18.108635c11.594788 11.594772 18.108643 27.320663 18.108643 43.71814l0 0c0 34.14598 -27.680786 61.826767 -61.826782 61.826767l0 0c-34.145935 0 -61.826782 -27.680786 -61.826782 -61.826767z" fill-rule="evenodd"/><path fill="#000000" fill-opacity="0.0" d="m646.0705 128.76865l113.102356 -11.464561l10.2677 102.89764l-113.102356 11.464569z" fill-rule="evenodd"/><path fill="#f3f3f3" d="m670.0532 168.8343l-2.463684 -24.68991l8.005859 -0.8115082q4.5392456 -0.46012878 5.960022 -0.22721863q2.169983 0.3454132 3.786316 2.0661926q1.6303711 1.7036438 1.9251099 4.657715q0.2265625 2.269989 -0.45776367 3.909851q-0.6702881 1.622757 -1.8565674 2.6381836q-1.1707764 1.0138702 -2.4641724 1.4276581q-1.7365112 0.5372467 -5.125366 0.88075256l-3.2490234 0.32933044l0.9293213 9.313141l-4.9900513 0.5058136zm2.9437256 -21.013367l0.6981201 6.9965057l2.720459 -0.27575684q2.9536133 -0.2993927 3.911255 -0.7733917q0.9561157 -0.48953247 1.4335327 -1.3703003q0.47583008 -0.89630127 0.36724854 -1.9846497q-0.13494873 -1.3526611 -1.0146484 -2.1429749q-0.8796997 -0.7903137 -2.1139526 -0.8850708q-0.9031372 -0.081207275 -3.5925293 0.19139099l-2.4094849 0.24424744zm24.562012 18.22525l-4.741272 0.48060608l-1.7841797 -17.879974l4.399292 -0.4459381l0.2529297 2.5343018q0.93927 -1.9170074 1.7850342 -2.5681152q0.8442383 -0.66667175 1.9946289 -0.78326416q1.6166992 -0.1638794 3.1974487 0.57107544l-1.048523 4.2838287q-1.2745972 -0.65605164 -2.3005981 -0.552063q-0.99487305 0.10084534 -1.6401367 0.7159271q-0.6296997 0.61351013 -0.87561035 2.0832977q-0.24584961 1.4698029 0.21026611 6.040848l0.5507202 5.51947zm6.8737793 -9.978439q-0.23583984 -2.363266 0.69421387 -4.687668q0.9456177 -2.3259583 2.9605103 -3.6923828q2.0133667 -1.381958 4.640503 -1.6482544q4.057373 -0.41127014 6.9171753 1.9687042q2.8582764 2.3644257 3.2600708 6.3913116q0.40496826 4.057968 -1.9553833 6.9984894q-2.3463135 2.9234009 -6.3259277 3.3267975q-2.4561157 0.2489624 -4.8048096 -0.62802124q-2.3347168 -0.894104 -3.7147217 -2.921524q-1.3644409 -2.0289917 -1.6716309 -5.1074524zm4.875 -0.24287415q0.2652588 2.6586761 1.6656494 3.9458923q1.4003296 1.2872162 3.2502441 1.0997009q1.8498535 -0.18751526 2.9678955 -1.7299957q1.117981 -1.5424957 0.84954834 -4.232254q-0.26220703 -2.6275787 -1.6625366 -3.914795q-1.4003296 -1.2872162 -3.2502441 -1.0997009q-1.8499146 0.18751526 -2.9678955 1.7299957q-1.117981 1.5424805 -0.85266113 4.2011566zm14.339905 -10.483963l2.6271362 -0.26631165l-0.13494873 -1.3526611q-0.22497559 -2.254425 0.14678955 -3.4071655q0.37017822 -1.1682892 1.5750732 -1.9971466q1.220459 -0.83044434 3.1947021 -1.0305634q2.020935 -0.20484924 4.024597 0.20454407l-0.32403564 3.36232q-1.1456299 -0.15086365 -2.1871338 -0.045288086q-1.026001 0.104003906 -1.4287109 0.63168335q-0.402771 0.52767944 -0.26623535 1.8958893l0.12567139 1.2593689l3.5443726 -0.3592682l0.37078857 3.7159271l-3.5443726 0.3592682l1.4133911 14.164047l-4.725769 0.47901917l-1.4133911 -14.164047l-2.6271362 0.26631165l-0.37078857 -3.7159271zm13.307434 -3.7989044l-0.4375 -4.3844757l4.741333 -0.48060608l0.4375 4.3844757l-4.741333 0.48060608zm2.026184 20.305435l-1.7841187 -17.879974l4.741272 -0.48060608l1.7841797 17.879974l-4.741333 0.48060608z" fill-rule="nonzero"/><path fill="#f3f3f3" d="m682.781 209.35732l-2.463684 -24.68991l4.741333 -0.48060608l2.463684 24.689926l-4.741333 0.48059082zm7.5533447 -21.276443l-0.4375 -4.384491l4.741333 -0.48060608l0.4375 4.384491l-4.741333 0.48060608zm2.026184 20.30542l-1.7841187 -17.879974l4.741333 -0.48059082l1.7841187 17.879974l-4.741333 0.48059082zm25.839966 -2.6192474l-4.725769 0.47901917l-0.91070557 -9.126556q-0.28857422 -2.8918915 -0.68481445 -3.7154999q-0.38067627 -0.8251953 -1.111206 -1.22229q-0.7305298 -0.39711 -1.678833 -0.3009796q-1.2280884 0.1244812 -2.140686 0.89230347q-0.9126587 0.76782227 -1.1740723 1.9250946q-0.24737549 1.1401367 0.05206299 4.140854l0.8082886 8.100403l-4.725769 0.47903442l-1.7841797 -17.879974l4.399353 -0.4459381l0.26220703 2.6275787q2.0292358 -3.2681885 5.5891113 -3.6290283q1.5545654 -0.15757751 2.9006958 0.2713623q1.3616333 0.4273529 2.1185303 1.2458191q0.75531006 0.8029175 1.1157227 1.8971558q0.37445068 1.0771027 0.58081055 3.1449585l1.1092529 11.116684zm4.4837036 0.73908997l5.4749756 0.104660034q0.21899414 0.9358063 0.7505493 1.2274323q0.7196655 0.4453125 2.1654053 0.29878235q1.8498535 -0.18751526 2.7267456 -0.8417816q0.5845947 -0.43618774 0.8287964 -1.2933044q0.1586914 -0.6128845 0.0020141602 -2.1832123l-0.26068115 -2.61203q-1.8411255 3.1077728 -5.074585 3.4355316q-3.6065063 0.36557007 -6.0092163 -2.4690704q-1.8882446 -2.2428894 -2.246643 -5.834427q-0.44836426 -4.4933167 1.4766235 -7.0756073q1.9234009 -2.5978546 5.1412964 -2.9240265q3.3267212 -0.33720398 5.762085 2.3527832l-0.24975586 -2.5032043l4.43042 -0.44908142l1.6010742 16.045334q0.3164673 3.171753 -0.056884766 4.7801056q-0.35632324 1.6223297 -1.2161255 2.6046753q-0.84277344 0.9963074 -2.3787231 1.6545715q-1.5189209 0.67222595 -3.9284058 0.9164734q-4.5392456 0.46011353 -6.608032 -0.9163971q-2.0516968 -1.3625488 -2.2890625 -3.7413635q-0.024841309 -0.24876404 -0.041870117 -0.57684326zm3.1811523 -10.92337q0.2838745 2.8452454 1.5194702 4.0549316q1.2355957 1.2096863 2.852295 1.0458069q1.7255859 -0.17489624 2.7875977 -1.6488953q1.0620117 -1.4739838 0.7966919 -4.13266q-0.27770996 -2.7830658 -1.5614624 -4.0035706q-1.2698364 -1.2376251 -3.0264282 -1.0595703q-1.694458 0.17176819 -2.6663208 1.6052094q-0.97180176 1.4334412 -0.70184326 4.138748z" fill-rule="nonzero"/><path fill="#ffff00" d="m696.4716 296.68878l0 0c0 -34.145996 27.680786 -61.826782 61.826782 -61.826782l0 0c16.39746 0 32.123352 6.5138855 43.71814 18.108643c11.594788 11.594788 18.108643 27.320648 18.108643 43.71814l0 0c0 34.145966 -27.680786 61.826782 -61.826782 61.826782l0 0c-34.145996 0 -61.826782 -27.680817 -61.826782 -61.826782z" fill-rule="evenodd"/><path stroke="#e69138" stroke-width="8.0" stroke-linejoin="round" stroke-linecap="butt" d="m696.4716 296.68878l0 0c0 -34.145996 27.680786 -61.826782 61.826782 -61.826782l0 0c16.39746 0 32.123352 6.5138855 43.71814 18.108643c11.594788 11.594788 18.108643 27.320648 18.108643 43.71814l0 0c0 34.145966 -27.680786 61.826782 -61.826782 61.826782l0 0c-34.145996 0 -61.826782 -27.680817 -61.826782 -61.826782z" fill-rule="evenodd"/><path fill="#000000" fill-opacity="0.0" d="m696.196 256.2372l113.102356 -11.464569l9.007874 90.04724l-113.102356 11.464569z" fill-rule="evenodd"/><path fill="#b45f06" d="m716.42615 291.53702l-2.090332 -20.895721l14.317261 -1.4512634l0.35461426 3.5447998l-10.088928 1.022644l0.49456787 4.944092l8.720947 -0.8840027l0.35308838 3.5292664l-8.720947 0.8840027l0.8880615 8.877563l-4.2283325 0.42861938zm17.776794 -1.8019409l-2.090271 -20.895721l3.9951172 -0.40496826l2.090332 20.895721l-3.9951782 0.40496826zm10.0401 -11.634338l-3.7044678 -0.2998047q0.40252686 -2.2552185 1.7906494 -3.4481812q1.3865967 -1.2084961 4.34021 -1.5078735q2.6738281 -0.2710266 4.043396 0.2340393q1.3835449 0.48797607 2.0100708 1.4138794q0.64208984 0.9243164 0.90338135 3.5362854l0.41992188 4.668976q0.19909668 1.9900513 0.4805298 2.9195251q0.29693604 0.9279175 0.9343262 1.962677l-3.9640503 0.40179443q-0.19586182 -0.38845825 -0.50683594 -1.1422119q-0.12902832 -0.348114 -0.18652344 -0.45224q-0.92645264 1.0990295 -2.0426025 1.7147522q-1.1161499 0.61569214 -2.453064 0.7511902q-2.331787 0.23638916 -3.8101807 -0.88586426q-1.4644775 -1.1393738 -1.6588745 -3.0828247q-0.12750244 -1.2748718 0.37921143 -2.3313599q0.5206909 -1.0736084 1.5715332 -1.7141113q1.0493164 -0.6560364 3.091919 -1.2714233q2.7453003 -0.81222534 3.788391 -1.3734131l-0.04046631 -0.40423584q-0.11505127 -1.1505127 -0.73846436 -1.5741882q-0.62493896 -0.43920898 -2.1950073 -0.2800598q-1.0726318 0.10873413 -1.6369019 0.5899658q-0.5487671 0.4796753 -0.8161011 1.574707zm5.6882324 2.70578q-0.7523804 0.32754517 -2.380005 0.85372925q-1.6275635 0.5262146 -2.1063232 0.92025757q-0.7368164 0.64004517 -0.65130615 1.4951782q0.083984375 0.8395386 0.7680054 1.398407q0.6980591 0.54174805 1.6618652 0.44406128q1.0881348 -0.110321045 1.9959717 -0.92477417q0.6762085 -0.6181946 0.8300781 -1.4347534q0.10412598 -0.5288391 -0.039001465 -1.959198l-0.07928467 -0.7929077zm6.7819824 -8.634216l3.699829 -0.37503052l0.20684814 2.06781q1.7332153 -2.6099854 4.4691772 -2.8872986q1.4612427 -0.14813232 2.5789795 0.35107422q1.1317139 0.48205566 1.9370728 1.6254272q0.87353516 -1.3135376 1.9648438 -2.020935q1.1052246 -0.72454834 2.4110107 -0.8569031q1.6633911 -0.16860962 2.882141 0.39886475q1.2327881 0.550354 1.9230957 1.7996216q0.5161133 0.9213867 0.7338867 3.0980225l0.9673462 9.670502l-3.9951172 0.40496826l-0.8647461 -8.644348q-0.2255249 -2.2543945 -0.7105713 -2.8648376q-0.6451416 -0.79837036 -1.7955322 -0.6817627q-0.8394165 0.08508301 -1.5343018 0.6737671q-0.6793213 0.5871277 -0.9217529 1.6168518q-0.22845459 1.0125732 -0.0138549805 3.1581116l0.72631836 7.2606506l-3.9951172 0.40496826l-0.8289795 -8.286774q-0.22088623 -2.2077332 -0.5022583 -2.82312q-0.28295898 -0.6309509 -0.7648926 -0.8961792q-0.46636963 -0.2668457 -1.2436523 -0.18804932q-0.9171753 0.09295654 -1.6135864 0.6661072q-0.69641113 0.57315063 -0.9279785 1.554657q-0.21759033 0.96435547 1.8310547E-4 3.1409912l0.73565674 7.3539124l-4.010742 0.40655518l-1.5133057 -15.1276245zm36.038574 6.75943l4.0620117 0.2635498q-0.54241943 2.2694092 -2.0906372 3.5885315q-1.5482788 1.3190918 -4.0355225 1.571228q-3.9485474 0.40023804 -6.1032715 -1.9884033q-1.6991577 -1.9165344 -2.0133667 -5.0570984q-0.37634277 -3.7624817 1.3692627 -6.091034q1.7612305 -2.3301086 4.7614746 -2.6342163q3.373291 -0.34194946 5.5404663 1.6999207q2.1810913 2.0247192 2.5637207 6.6346436l-10.026733 1.0163574q0.20837402 1.7692566 1.2250977 2.6713257q1.0322876 0.9004822 2.4158325 0.7602539q0.9482422 -0.09613037 1.5343018 -0.6737976q0.58599854 -0.57766724 0.7973633 -1.761261zm-0.17120361 -4.065979q-0.2208252 -1.7365723 -1.1660156 -2.5516663q-0.9451904 -0.815094 -2.1732788 -0.6906128q-1.3057861 0.13238525 -2.065918 1.16745q-0.75860596 1.0505981 -0.5797119 2.681488l5.9849243 -0.60665894z" fill-rule="nonzero"/><path fill="#b45f06" d="m721.24817 327.43372l4.6262817 0.09643555q0.18817139 0.78189087 0.6374512 1.0347595q0.6187134 0.37701416 1.8312378 0.25411987q1.5700684 -0.15914917 2.3162231 -0.7059326q0.49743652 -0.36453247 0.6917114 -1.0909424q0.13677979 -0.516449 0.0014648438 -1.8690491l-0.2208252 -2.2077332q-1.5575562 2.6392517 -4.293518 2.9165955q-3.046875 0.3088379 -5.0772095 -2.0923767q-1.6028442 -1.8948975 -1.9061279 -4.9266663q-0.38104248 -3.8091125 1.2526855 -6.0006714q1.633728 -2.1915283 4.354126 -2.4672852q2.7982178 -0.2836609 4.862732 1.9884949l-0.21154785 -2.1144714l3.74646 -0.37973022l1.357727 13.572876q0.2675171 2.6741638 -0.03552246 4.0398254q-0.30151367 1.3811951 -1.0352173 2.2094116q-0.71661377 0.8421631 -2.0115356 1.3974609q-1.277771 0.5692749 -3.314209 0.7756958q-3.8552856 0.3907776 -5.604187 -0.7668762q-1.7333374 -1.1592102 -1.9355469 -3.1803894q-0.020202637 -0.20211792 -0.03265381 -0.48355103zm2.687317 -9.23999q0.24108887 2.409851 1.2857666 3.434723q1.0447388 1.0248718 2.4127197 0.88619995q1.4612427 -0.1481018 2.3566284 -1.401062q0.9108887 -1.2544861 0.6869507 -3.4933167q-0.2364502 -2.3632202 -1.3293457 -3.3988953q-1.0773315 -1.037262 -2.5541382 -0.88757324q-1.4456787 0.14654541 -2.2664185 1.3605042q-0.82073975 1.2139587 -0.5921631 3.4994202zm19.233826 6.012848l-3.9951172 0.40496826l-1.5133057 -15.1276245l3.715332 -0.37661743l0.21459961 2.1455383q0.7958374 -1.619751 1.5093994 -2.178955q0.713501 -0.5591736 1.69281 -0.65844727q1.368042 -0.13867188 2.7018433 0.47998047l-0.8781128 3.6226501q-1.0913696 -0.5489807 -1.9463501 -0.4623108q-0.85498047 0.08666992 -1.3990479 0.61294556q-0.53009033 0.5091858 -0.7507324 1.7565613q-0.20513916 1.2457886 0.18054199 5.101532l0.46813965 4.679779zm9.464355 -11.575958l-3.7045288 -0.2998352q0.40252686 -2.2552185 1.7907104 -3.4481506q1.3865967 -1.2084961 4.34021 -1.507904q2.673767 -0.2710266 4.043335 0.23406982q1.383606 0.48794556 2.0101318 1.4138489q0.6420288 0.9243469 0.9033203 3.536316l0.4199829 4.6689453q0.19903564 1.9900818 0.48046875 2.9195557q0.29699707 0.9279175 0.9343872 1.9626465l-3.9640503 0.40182495q-0.19592285 -0.38848877 -0.50683594 -1.1422119q-0.12902832 -0.34814453 -0.18658447 -0.45224q-0.92645264 1.0990295 -2.0426025 1.7147217q-1.1160889 0.61572266 -2.453003 0.7512207q-2.331787 0.23635864 -3.8102417 -0.8858948q-1.4644165 -1.1393738 -1.6588135 -3.0827942q-0.12756348 -1.2748718 0.3791504 -2.3313904q0.52075195 -1.0736084 1.5715942 -1.7140808q1.0492554 -0.6560364 3.091919 -1.2714233q2.7453003 -0.81225586 3.78833 -1.3734131l-0.040405273 -0.40423584q-0.115112305 -1.1505127 -0.7385254 -1.5741882q-0.62493896 -0.43920898 -2.1950073 -0.2800598q-1.0726318 0.10873413 -1.6369019 0.5899658q-0.54870605 0.47964478 -0.81604004 1.574707zm5.6881714 2.7057495q-0.7523804 0.32754517 -2.3799438 0.85375977q-1.6275635 0.5261841 -2.1063843 0.92022705q-0.7368164 0.6400757 -0.6512451 1.4951782q0.083984375 0.8395691 0.7680054 1.3984375q0.69799805 0.54174805 1.6618042 0.44403076q1.0881958 -0.11029053 1.9959717 -0.92474365q0.6762085 -0.6182251 0.8300781 -1.4347839q0.10412598 -0.5288086 -0.03894043 -1.9591675l-0.0793457 -0.79293823zm6.968567 -8.653107l3.74646 -0.37976074l0.22241211 2.2232666q0.5999756 -1.222992 1.7736206 -2.0486755q1.1720581 -0.84124756 2.6799927 -0.9940796q2.6271362 -0.2662964 4.668335 1.6155701q2.0552368 1.8647461 2.425354 5.565033q0.3795166 3.7935486 -1.260437 6.079956q-1.6399536 2.286438 -4.282654 2.5542908q-1.2591553 0.12765503 -2.3349 -0.26586914q-1.0602417 -0.39508057 -2.3007812 -1.4943237l0.76208496 7.618225l-4.010742 0.40652466l-2.088745 -20.880157zm4.6950684 6.9054565q0.25506592 2.5497742 1.3883667 3.6755981q1.1317749 1.1102905 2.5930176 0.9621582q1.3991089 -0.14181519 2.2042847 -1.354187q0.82073975 -1.2139587 0.5656738 -3.763733q-0.23797607 -2.3787537 -1.3168335 -3.4315796q-1.0649414 -1.0699463 -2.4795532 -0.9265442q-1.4612427 0.14813232 -2.3270874 1.3823547q-0.85028076 1.232666 -0.62786865 3.4559326zm16.655396 -14.89621l0.76831055 7.68042q1.7176514 -2.451355 4.4069824 -2.7239685q1.3835449 -0.14022827 2.5385742 0.2609558q1.1705933 0.3996277 1.8095093 1.1358032q0.63897705 0.73620605 0.9390259 1.6951904q0.3140869 0.94189453 0.51782227 2.9786072l0.8880615 8.877563l-3.9951172 0.40496826l-0.7994385 -7.9913635q-0.23797607 -2.3787537 -0.5349121 -2.9925842q-0.29852295 -0.6293335 -0.91101074 -0.94418335q-0.6124878 -0.31481934 -1.4830322 -0.22659302q-0.99487305 0.100860596 -1.739502 0.6631775q-0.72906494 0.5607605 -1.0041504 1.578064q-0.25958252 1.0157471 -0.06982422 2.912506l0.75897217 7.587158l-3.9951172 0.40496826l-2.090332 -20.895721l3.9951782 -0.40496826z" fill-rule="nonzero"/><path fill="#38761d" d="m624.2778 430.01736l0 0c0 -34.145996 27.680786 -61.826782 61.82672 -61.826782l0 0c16.397522 0 32.123413 6.5138855 43.71814 18.108643c11.594788 11.594788 18.108643 27.320648 18.108643 43.71814l0 0c0 34.145996 -27.680786 61.826782 -61.826782 61.826782l0 0c-34.145935 0 -61.82672 -27.680786 -61.82672 -61.826782z" fill-rule="evenodd"/><path stroke="#274e13" stroke-width="8.0" stroke-linejoin="round" stroke-linecap="butt" d="m624.2778 430.01736l0 0c0 -34.145996 27.680786 -61.826782 61.82672 -61.826782l0 0c16.397522 0 32.123413 6.5138855 43.71814 18.108643c11.594788 11.594788 18.108643 27.320648 18.108643 43.71814l0 0c0 34.145996 -27.680786 61.826782 -61.826782 61.826782l0 0c-34.145935 0 -61.82672 -27.680786 -61.82672 -61.826782z" fill-rule="evenodd"/><path fill="#000000" fill-opacity="0.0" d="m624.0021 404.50293l113.102356 -11.464569l6.2991943 62.70868l-113.102356 11.464539z" fill-rule="evenodd"/><path fill="#ffffff" d="m646.4867 446.007l-2.1395264 -21.299072l-7.6016235 0.77053833l-0.43572998 -4.3375244l20.36438 -2.0642395l0.43572998 4.337555l-7.5861206 0.7689514l2.1395264 21.299072l-5.1766357 0.52471924zm18.798218 -1.9054565l-4.9122925 0.4979248l-1.866272 -18.57837l4.5703735 -0.46328735l0.2654419 2.6429443q0.9785156 -1.9837952 1.8518677 -2.669098q0.8718262 -0.7008667 2.0688477 -0.8222046q1.678894 -0.17019653 3.3270874 0.6050415l-1.0939331 4.429779q-1.3233032 -0.6668091 -2.380371 -0.55966187q-1.041565 0.1055603 -1.6988525 0.7532959q-0.6588745 0.63217163 -0.9286499 2.1672058q-0.25579834 1.5179138 0.22052002 6.259674l0.5762329 5.7367554zm11.61615 -14.212677l-4.5427246 -0.35620117q0.47601318 -2.7652283 2.180725 -4.2415466q1.703186 -1.4918518 5.3252563 -1.8590088q3.2955933 -0.3340454 4.9748535 0.28097534q1.6948242 0.61346436 2.4679565 1.7443848q0.7731323 1.1309204 1.0948486 4.333557l0.5296631 5.7414856q0.2467041 2.4563904 0.5970459 3.598755q0.34875488 1.126831 1.1359253 2.3976746l-4.8656616 0.49319458q-0.23651123 -0.47857666 -0.61157227 -1.3985596q-0.16967773 -0.43826294 -0.24591064 -0.5718689q-1.1358032 1.3558044 -2.503479 2.1226501q-1.3693237 0.75131226 -3.0015259 0.91674805q-2.8603516 0.2899475 -4.6798706 -1.0961304q-1.8040161 -1.3876343 -2.0429688 -3.7662964q-0.15924072 -1.5857849 0.463562 -2.889618q0.63830566 -1.3053894 1.9251709 -2.095459q1.2852783 -0.805603 3.80188 -1.5475464q3.369934 -1.0011902 4.6505737 -1.6963806l-0.04840088 -0.4819641q-0.14208984 -1.4147644 -0.9025879 -1.9501648q-0.760437 -0.5354309 -2.7036133 -0.33843994q-1.3213501 0.13394165 -2.0004272 0.7210388q-0.67907715 0.58709717 -0.99871826 1.9387207zm6.975464 3.313446q-0.9169922 0.40704346 -2.923706 1.0658875q-1.9927368 0.64175415 -2.5878906 1.1260986q-0.8951416 0.7817688 -0.7904663 1.8233948q0.103027344 1.0260925 0.9412842 1.7106628q0.8522339 0.66744995 2.0492554 0.5461426q1.3213501 -0.13394165 2.4464111 -1.1274719q0.8189087 -0.7583313 1.0019531 -1.7506104q0.1395874 -0.642334 -0.03845215 -2.4146729l-0.09838867 -0.97943115zm25.439209 -6.7875977l-4.7456055 1.3762207q-0.3955078 -1.4361877 -1.3394165 -2.0786438q-0.9439697 -0.64245605 -2.3119507 -0.5037842q-1.8499146 0.1875 -2.8099976 1.5726318q-0.9616699 1.3695984 -0.6633911 4.33902q0.3326416 3.3114624 1.5737915 4.5677185q1.255127 1.2391052 3.1205444 1.0500183q1.3991089 -0.14181519 2.2055054 -1.0245056q0.8220215 -0.88427734 0.98431396 -2.8638916l4.9174194 0.33392334q-0.4119873 3.402649 -2.387024 5.3146973q-1.9594727 1.910492 -5.550476 2.274475q-4.072876 0.4128418 -6.755615 -1.9065552q-2.6687622 -2.3365173 -3.124817 -6.8761597q-0.46221924 -4.6018677 1.7051392 -7.412903q2.1674194 -2.8110046 6.317993 -3.2317505q3.388916 -0.34350586 5.5410767 0.9146118q2.1520996 1.2581482 3.3225098 4.1548767z" fill-rule="nonzero"/><path fill="#ffffff" d="m724.5158 432.1297l4.979553 0.3276062q-0.66259766 2.7841492 -2.5724487 4.406891q-1.895874 1.6056213 -4.942749 1.9144897q-4.8501587 0.49163818 -7.5005493 -2.4435425q-2.0889282 -2.3482056 -2.4761963 -6.2037964q-0.4638672 -4.617401 1.6832886 -7.47348q2.1611938 -2.87323 5.845398 -3.2466736q4.150635 -0.42071533 6.819458 2.0728455q2.6688843 2.4935608 3.128479 8.163605l-12.31189 1.2479858q0.28082275 2.1702576 1.5390015 3.2834167q1.2566528 1.0976257 2.9510498 0.9258728q1.1503906 -0.116607666 1.8651733 -0.81726074q0.72875977 -0.71777344 0.99243164 -2.157959zm-0.2199707 -5.0033264q-0.26055908 -2.125183 -1.4285278 -3.1218567q-1.1539917 -1.013794 -2.6618652 -0.8609619q-1.6011963 0.162323 -2.5411377 1.4354858q-0.92285156 1.2871094 -0.7058716 3.2910767l7.3374023 -0.7437439z" fill-rule="nonzero"/><path fill="#434343" d="m477.8148 456.67453l0 0c0 -34.145966 27.680786 -61.82675 61.82675 -61.82675l0 0c16.397522 0 32.123413 6.513855 43.71814 18.108643c11.594788 11.594757 18.108643 27.320648 18.108643 43.71811l0 0c0 34.145996 -27.680786 61.826813 -61.826782 61.826813l0 0c-34.145966 0 -61.82675 -27.680817 -61.82675 -61.826813z" fill-rule="evenodd"/><path stroke="#000000" stroke-width="8.0" stroke-linejoin="round" stroke-linecap="butt" d="m477.8148 456.67453l0 0c0 -34.145966 27.680786 -61.82675 61.82675 -61.82675l0 0c16.397522 0 32.123413 6.513855 43.71814 18.108643c11.594788 11.594757 18.108643 27.320648 18.108643 43.71811l0 0c0 34.145996 -27.680786 61.826813 -61.826782 61.826813l0 0c-34.145966 0 -61.82675 -27.680817 -61.82675 -61.826813z" fill-rule="evenodd"/><path fill="#000000" fill-opacity="0.0" d="m481.27344 438.62866l113.102356 -11.464569l5.0078735 49.826782l-113.102356 11.464569z" fill-rule="evenodd"/><path fill="#f3f3f3" d="m496.13696 470.61276l-1.8125305 -18.03415l12.358551 -1.2527161l0.3062439 3.0471497l-8.720947 0.8840027l0.42971802 4.2753296l7.523926 -0.7626648l0.3062744 3.0471497l-7.5239563 0.7626648l0.7703247 7.6645203l-3.6376038 0.36871338zm23.942505 -2.4269104l-0.19689941 -1.9588623q-0.6104126 1.1141052 -1.715332 1.8385925q-1.1049805 0.7245178 -2.3952637 0.85528564q-1.3213501 0.13394165 -2.4207153 -0.33569336q-1.0993042 -0.46966553 -1.6703796 -1.4640198q-0.5726013 -1.0098877 -0.7585449 -2.8599548l-0.8312683 -8.2708435l3.4510498 -0.34979248l0.6047363 6.0165405q0.2765503 2.75177 0.52557373 3.3547363q0.2645874 0.6013794 0.79956055 0.92407227q0.53338623 0.30715942 1.310669 0.22836304q0.88604736 -0.08981323 1.5371704 -0.6426697q0.6651001 -0.5699768 0.84191895 -1.3103333q0.19085693 -0.7574768 -0.09039307 -3.5558777l-0.5546875 -5.5190735l3.4510498 -0.349823l1.3140869 13.074768l-3.2023315 0.32458496zm5.3969116 -0.5470581l-0.2703247 -2.6895752l4.3311157 -6.124237q1.0579224 -1.5050049 1.5908813 -2.1401062q-0.6031494 0.092559814 -1.5809937 0.20736694l-4.6138306 0.49908447l-0.2890625 -2.8761292l10.804016 -1.0951538l0.2468872 2.4563904l-4.42749 6.2596436l-1.5643921 2.0903015q1.4363403 -0.23980713 1.7783203 -0.2744751l5.347595 -0.5420532l0.3062744 3.0471497l-11.658997 1.1817932zm12.599487 -1.2771301l-0.2703247 -2.6895752l4.3311768 -6.1242676q1.0579224 -1.5049744 1.5908203 -2.1400757q-0.6031494 0.0925293 -1.5809326 0.20736694l-4.6138306 0.49908447l-0.28912354 -2.8761292l10.804016 -1.0951538l0.2468872 2.4563599l-4.427429 6.259674l-1.5644531 2.0903015q1.4363403 -0.23983765 1.7783203 -0.27450562l5.347595 -0.5420532l0.3062744 3.0471497l-11.658997 1.1818237zm12.490784 -16.264465l-0.3203125 -3.1870728l3.4666138 -0.3513794l0.3203125 3.1870728l-3.4666138 0.3513794zm1.4922485 14.847076l-1.3140869 -13.074768l3.4666138 -0.3513794l1.3140869 13.074768l-3.4666138 0.3513794zm18.89325 -1.9151001l-3.4510498 0.349823l-0.6702881 -6.669525q-0.21252441 -2.1143494 -0.50823975 -2.7125854q-0.28009033 -0.599823 -0.8119507 -0.89141846q-0.5317993 -0.29159546 -1.2313232 -0.22070312q-0.90167236 0.09140015 -1.5667114 0.66137695q-0.666687 0.55444336 -0.8496704 1.3896484q-0.18304443 0.8352051 0.03729248 3.0272827l0.5952759 5.9233093l-3.4510498 0.34979248l-1.3140869 -13.074738l3.2023315 -0.32461548l0.19378662 1.9277954q1.4865112 -2.396515 4.0825806 -2.659668q1.1503906 -0.116607666 2.140808 0.20703125q0.9888916 0.30810547 1.536438 0.91223145q0.5459595 0.588562 0.81378174 1.3780823q0.2833252 0.78793335 0.4364624 2.311493l0.8156128 8.115387zm3.2754517 0.5317688l3.9969482 0.08169556q0.16357422 0.690155 0.5461426 0.9026489q0.5349121 0.32269287 1.592041 0.21554565q1.352417 -0.13708496 1.9802246 -0.6090393q0.43823242 -0.32711792 0.61206055 -0.9415283q0.111694336 -0.45108032 -0.00390625 -1.601532l-0.1921997 -1.9122314q-1.342041 2.2719116 -3.704956 2.511444q-2.6271362 0.2662964 -4.3895874 -1.8009033q-1.3890991 -1.6338501 -1.6531372 -4.2612305q-0.3297119 -3.280365 1.0809326 -5.182312q1.4105835 -1.901947 3.7579346 -2.1398926q2.4251099 -0.24581909 4.2092285 1.7249146l-0.1843872 -1.8345032l3.2334595 -0.3277588l1.1796875 11.737762q0.23278809 2.3164368 -0.041748047 3.4907532q-0.2574463 1.1882629 -0.8758545 1.910553q-0.61834717 0.72229004 -1.7327881 1.1964722q-1.112854 0.4897461 -2.8694458 0.66778564q-3.3267212 0.33721924 -4.8398438 -0.6558838q-1.4976196 -0.9946594 -1.6741943 -2.7514343q-0.017150879 -0.17102051 -0.026611328 -0.42132568zm2.3076172 -7.976532q0.20941162 2.0832825 1.114624 2.96521q0.9052124 0.881958 2.08667 0.76220703q1.2747192 -0.12921143 2.046814 -1.1968994q0.77056885 -1.0832214 0.57525635 -3.0265503q-0.20471191 -2.036621 -1.1425781 -2.9309692q-0.93792725 -0.89434814 -2.2126465 -0.7651367q-1.2435913 0.12606812 -1.9550781 1.1719055q-0.7114868 1.0458069 -0.5130615 3.0202332z" fill-rule="nonzero"/></g></svg>