<svg version="1.1" viewBox="0.0 0.0 960.0 540.0" fill="none" stroke="none" stroke-linecap="square" stroke-miterlimit="10" xmlns:xlink="http://www.w3.org/1999/xlink" xmlns="http://www.w3.org/2000/svg"><clipPath id="g63fdbc5693_0_169.0"><path d="m0 0l960.0 0l0 540.0l-960.0 0l0 -540.0z" clip-rule="nonzero"/></clipPath><g clip-path="url(#g63fdbc5693_0_169.0)"><path fill="#ffffff" d="m0 0l960.0 0l0 540.0l-960.0 0z" fill-rule="evenodd"/><path fill="#000000" fill-opacity="0.0" d="m127.338585 480.80316l0 -431.81104" fill-rule="evenodd"/><path stroke="#4285f4" stroke-width="2.0" stroke-linejoin="round" stroke-linecap="butt" d="m127.338585 480.80316l0 -431.81104" fill-rule="evenodd"/><path fill="#ffffff" d="m111.74803 482.8924l0 0c0 -8.601746 6.9801254 -15.574799 15.590553 -15.574799l0 0c4.134865 0 8.10038 1.6408997 11.024178 4.561737c2.9237976 2.9208374 4.5663757 6.8823547 4.5663757 11.013062l0 0c0 8.601715 -6.980133 15.574799 -15.590553 15.574799l0 0c-8.610428 0 -15.590553 -6.9730835 -15.590553 -15.574799z" fill-rule="evenodd"/><path stroke="#4285f4" stroke-width="2.0" stroke-linejoin="round" stroke-linecap="butt" d="m111.74803 482.8924l0 0c0 -8.601746 6.9801254 -15.574799 15.590553 -15.574799l0 0c4.134865 0 8.10038 1.6408997 11.024178 4.561737c2.9237976 2.9208374 4.5663757 6.8823547 4.5663757 11.013062l0 0c0 8.601715 -6.980133 15.574799 -15.590553 15.574799l0 0c-8.610428 0 -15.590553 -6.9730835 -15.590553 -15.574799z" fill-rule="evenodd"/><path fill="#000000" fill-opacity="0.0" d="m317.83466 41.97113l20.850372 0l0 22.83464l-20.850372 0z" fill-rule="evenodd"/><path fill="#000000" fill-opacity="0.0" d="m493.83466 89.97113l20.850403 0l0 22.83464l-20.850403 0z" fill-rule="evenodd"/><path fill="#ffffff" d="m111.74803 434.8924l0 0c0 -8.601746 6.9801254 -15.574799 15.590553 -15.574799l0 0c4.134865 0 8.10038 1.6408997 11.024178 4.561737c2.9237976 2.9208374 4.5663757 6.8823547 4.5663757 11.013062l0 0c0 8.601715 -6.980133 15.574799 -15.590553 15.574799l0 0c-8.610428 0 -15.590553 -6.9730835 -15.590553 -15.574799z" fill-rule="evenodd"/><path stroke="#4285f4" stroke-width="2.0" stroke-linejoin="round" stroke-linecap="butt" d="m111.74803 434.8924l0 0c0 -8.601746 6.9801254 -15.574799 15.590553 -15.574799l0 0c4.134865 0 8.10038 1.6408997 11.024178 4.561737c2.9237976 2.9208374 4.5663757 6.8823547 4.5663757 11.013062l0 0c0 8.601715 -6.980133 15.574799 -15.590553 15.574799l0 0c-8.610428 0 -15.590553 -6.9730835 -15.590553 -15.574799z" fill-rule="evenodd"/><path fill="#ffffff" d="m111.74803 386.8924l0 0c0 -8.601746 6.9801254 -15.574799 15.590553 -15.574799l0 0c4.134865 0 8.10038 1.6408997 11.024178 4.561737c2.9237976 2.9208374 4.5663757 6.8823547 4.5663757 11.013062l0 0c0 8.601715 -6.980133 15.574799 -15.590553 15.574799l0 0c-8.610428 0 -15.590553 -6.9730835 -15.590553 -15.574799z" fill-rule="evenodd"/><path stroke="#4285f4" stroke-width="2.0" stroke-linejoin="round" stroke-linecap="butt" d="m111.74803 386.8924l0 0c0 -8.601746 6.9801254 -15.574799 15.590553 -15.574799l0 0c4.134865 0 8.10038 1.6408997 11.024178 4.561737c2.9237976 2.9208374 4.5663757 6.8823547 4.5663757 11.013062l0 0c0 8.601715 -6.980133 15.574799 -15.590553 15.574799l0 0c-8.610428 0 -15.590553 -6.9730835 -15.590553 -15.574799z" fill-rule="evenodd"/><path fill="#ffffff" d="m111.74803 338.8924l0 0c0 -8.601746 6.9801254 -15.574799 15.590553 -15.574799l0 0c4.134865 0 8.10038 1.6408997 11.024178 4.561737c2.9237976 2.9208374 4.5663757 6.8823547 4.5663757 11.013062l0 0c0 8.601715 -6.980133 15.574799 -15.590553 15.574799l0 0c-8.610428 0 -15.590553 -6.9730835 -15.590553 -15.574799z" fill-rule="evenodd"/><path stroke="#4285f4" stroke-width="2.0" stroke-linejoin="round" stroke-linecap="butt" d="m111.74803 338.8924l0 0c0 -8.601746 6.9801254 -15.574799 15.590553 -15.574799l0 0c4.134865 0 8.10038 1.6408997 11.024178 4.561737c2.9237976 2.9208374 4.5663757 6.8823547 4.5663757 11.013062l0 0c0 8.601715 -6.980133 15.574799 -15.590553 15.574799l0 0c-8.610428 0 -15.590553 -6.9730835 -15.590553 -15.574799z" fill-rule="evenodd"/><path fill="#ffffff" d="m111.74803 290.8924l0 0c0 -8.601746 6.9801254 -15.574799 15.590553 -15.574799l0 0c4.134865 0 8.10038 1.6408997 11.024178 4.561737c2.9237976 2.9208374 4.5663757 6.8823547 4.5663757 11.013062l0 0c0 8.601715 -6.980133 15.574799 -15.590553 15.574799l0 0c-8.610428 0 -15.590553 -6.9730835 -15.590553 -15.574799z" fill-rule="evenodd"/><path stroke="#4285f4" stroke-width="2.0" stroke-linejoin="round" stroke-linecap="butt" d="m111.74803 290.8924l0 0c0 -8.601746 6.9801254 -15.574799 15.590553 -15.574799l0 0c4.134865 0 8.10038 1.6408997 11.024178 4.561737c2.9237976 2.9208374 4.5663757 6.8823547 4.5663757 11.013062l0 0c0 8.601715 -6.980133 15.574799 -15.590553 15.574799l0 0c-8.610428 0 -15.590553 -6.9730835 -15.590553 -15.574799z" fill-rule="evenodd"/><path fill="#ffffff" d="m111.74803 242.89238l0 0c0 -8.601715 6.9801254 -15.574799 15.590553 -15.574799l0 0c4.134865 0 8.10038 1.6409149 11.024178 4.5617523c2.9237976 2.9208527 4.5663757 6.8823547 4.5663757 11.013046l0 0c0 8.60173 -6.980133 15.574814 -15.590553 15.574814l0 0c-8.610428 0 -15.590553 -6.9730835 -15.590553 -15.574814z" fill-rule="evenodd"/><path stroke="#4285f4" stroke-width="2.0" stroke-linejoin="round" stroke-linecap="butt" d="m111.74803 242.89238l0 0c0 -8.601715 6.9801254 -15.574799 15.590553 -15.574799l0 0c4.134865 0 8.10038 1.6409149 11.024178 4.5617523c2.9237976 2.9208527 4.5663757 6.8823547 4.5663757 11.013046l0 0c0 8.60173 -6.980133 15.574814 -15.590553 15.574814l0 0c-8.610428 0 -15.590553 -6.9730835 -15.590553 -15.574814z" fill-rule="evenodd"/><path fill="#ffffff" d="m111.74803 194.89238l0 0c0 -8.601715 6.9801254 -15.574799 15.590553 -15.574799l0 0c4.134865 0 8.10038 1.6409149 11.024178 4.5617523c2.9237976 2.9208527 4.5663757 6.8823547 4.5663757 11.013046l0 0c0 8.60173 -6.980133 15.574814 -15.590553 15.574814l0 0c-8.610428 0 -15.590553 -6.9730835 -15.590553 -15.574814z" fill-rule="evenodd"/><path stroke="#4285f4" stroke-width="2.0" stroke-linejoin="round" stroke-linecap="butt" d="m111.74803 194.89238l0 0c0 -8.601715 6.9801254 -15.574799 15.590553 -15.574799l0 0c4.134865 0 8.10038 1.6409149 11.024178 4.5617523c2.9237976 2.9208527 4.5663757 6.8823547 4.5663757 11.013046l0 0c0 8.60173 -6.980133 15.574814 -15.590553 15.574814l0 0c-8.610428 0 -15.590553 -6.9730835 -15.590553 -15.574814z" fill-rule="evenodd"/><path fill="#ffffff" d="m111.74803 146.89238l0 0c0 -8.601715 6.9801254 -15.574799 15.590553 -15.574799l0 0c4.134865 0 8.10038 1.6409149 11.024178 4.5617523c2.9237976 2.9208527 4.5663757 6.8823547 4.5663757 11.013046l0 0c0 8.60173 -6.980133 15.574814 -15.590553 15.574814l0 0c-8.610428 0 -15.590553 -6.9730835 -15.590553 -15.574814z" fill-rule="evenodd"/><path stroke="#4285f4" stroke-width="2.0" stroke-linejoin="round" stroke-linecap="butt" d="m111.74803 146.89238l0 0c0 -8.601715 6.9801254 -15.574799 15.590553 -15.574799l0 0c4.134865 0 8.10038 1.6409149 11.024178 4.5617523c2.9237976 2.9208527 4.5663757 6.8823547 4.5663757 11.013046l0 0c0 8.60173 -6.980133 15.574814 -15.590553 15.574814l0 0c-8.610428 0 -15.590553 -6.9730835 -15.590553 -15.574814z" fill-rule="evenodd"/><path fill="#ffffff" d="m111.74803 98.89239l0 0c0 -8.601723 6.9801254 -15.574806 15.590553 -15.574806l0 0c4.134865 0 8.10038 1.6409149 11.024178 4.56176c2.9237976 2.9208374 4.5663757 6.8823547 4.5663757 11.013046l0 0c0 8.601723 -6.980133 15.574806 -15.590553 15.574806l0 0c-8.610428 0 -15.590553 -6.9730835 -15.590553 -15.574806z" fill-rule="evenodd"/><path stroke="#4285f4" stroke-width="2.0" stroke-linejoin="round" stroke-linecap="butt" d="m111.74803 98.89239l0 0c0 -8.601723 6.9801254 -15.574806 15.590553 -15.574806l0 0c4.134865 0 8.10038 1.6409149 11.024178 4.56176c2.9237976 2.9208374 4.5663757 6.8823547 4.5663757 11.013046l0 0c0 8.601723 -6.980133 15.574806 -15.590553 15.574806l0 0c-8.610428 0 -15.590553 -6.9730835 -15.590553 -15.574806z" fill-rule="evenodd"/><path fill="#ffffff" d="m111.74803 50.892387l0 0c0 -8.601727 6.9801254 -15.574802 15.590553 -15.574802l0 0c4.134865 0 8.10038 1.6409111 11.024178 4.5617523c2.9237976 2.9208412 4.5663757 6.8823547 4.5663757 11.01305l0 0c0 8.601727 -6.980133 15.574806 -15.590553 15.574806l0 0c-8.610428 0 -15.590553 -6.9730797 -15.590553 -15.574806z" fill-rule="evenodd"/><path stroke="#4285f4" stroke-width="2.0" stroke-linejoin="round" stroke-linecap="butt" d="m111.74803 50.892387l0 0c0 -8.601727 6.9801254 -15.574802 15.590553 -15.574802l0 0c4.134865 0 8.10038 1.6409111 11.024178 4.5617523c2.9237976 2.9208412 4.5663757 6.8823547 4.5663757 11.01305l0 0c0 8.601727 -6.980133 15.574806 -15.590553 15.574806l0 0c-8.610428 0 -15.590553 -6.9730797 -15.590553 -15.574806z" fill-rule="evenodd"/><path fill="#000000" fill-opacity="0.0" d="m503.99475 84.99475l533.3544 0l0 36.97638l-533.3544 0z" fill-rule="evenodd"/><path fill="#3c4043" d="m510.61975 115.71475l-6.078125 -22.90625l4.796875 0l3.140625 12.859375l0.375 2.40625l0.265625 0l0.5 -2.40625l4.03125 -12.859375l4.265625 0l3.9375 12.859375l0.515625 2.328125l0.25 0l0.390625 -2.328125l3.09375 -12.859375l4.796875 0l-5.921875 22.90625l-4.625 0l-3.90625 -13.828125l-0.515625 -2.453125l-0.25 0l-0.515625 2.453125l-4.09375 13.828125l-4.453125 0zm26.909912 0l0 -22.90625l4.1875 0l0 5.78125l-0.25 2.859375l0.25 0q0.703125 -1.125 2.03125 -1.84375q1.328125 -0.71875 2.9375 -0.71875q2.015625 0 3.390625 0.8125q1.375 0.8125 2.0625 2.328125q0.6875 1.5 0.6875 3.546875l0 10.140625l-4.1875 0l0 -9.625q0 -1.09375 -0.40625 -1.8125q-0.390625 -0.71875 -1.09375 -1.09375q-0.6875 -0.390625 -1.609375 -0.390625q-1.125 0 -1.984375 0.625q-0.859375 0.609375 -1.34375 1.671875q-0.484375 1.0625 -0.484375 2.34375l0 8.28125l-4.1875 0zm24.104065 0.515625q-1.734375 0 -3.0625 -0.6875q-1.328125 -0.6875 -2.09375 -1.9375q-0.765625 -1.25 -0.765625 -2.875q0 -1.703125 0.875 -2.921875q0.875 -1.21875 2.359375 -1.890625q1.5 -0.671875 3.328125 -0.671875q0.984375 0 1.796875 0.125q0.8125 0.109375 1.453125 0.265625q0.640625 0.15625 1.0625 0.34375l0 -0.703125q0 -1.3125 -1.0 -2.15625q-0.984375 -0.84375 -2.71875 -0.84375q-1.140625 0 -2.21875 0.53125q-1.078125 0.515625 -1.78125 1.390625l-2.6875 -2.109375q0.8125 -1.03125 1.859375 -1.75q1.0625 -0.71875 2.34375 -1.078125q1.28125 -0.375 2.6875 -0.375q3.734375 0 5.6875 1.734375q1.953125 1.71875 1.953125 5.046875l0 10.046875l-4.125 0l0 -1.65625l-0.25 0q-0.453125 0.5625 -1.125 1.0625q-0.671875 0.5 -1.578125 0.796875q-0.890625 0.3125 -2.0 0.3125zm0.984375 -3.265625q1.28125 0 2.15625 -0.5625q0.890625 -0.5625 1.34375 -1.453125q0.46875 -0.890625 0.46875 -1.890625q-0.703125 -0.359375 -1.609375 -0.5625q-0.890625 -0.203125 -1.8125 -0.203125q-1.859375 0 -2.5625 0.703125q-0.703125 0.703125 -0.703125 1.734375q0 0.953125 0.6875 1.59375q0.6875 0.640625 2.03125 0.640625zm10.491394 -13.5625l11.046875 0l0 3.578125l-11.046875 0l0 -3.578125zm2.859375 11.09375l0 -15.703125l4.1875 0l0 14.9375q0 1.125 0.46875 1.71875q0.484375 0.578125 1.609375 0.578125q0.640625 0 1.0625 -0.1875q0.4375 -0.1875 0.984375 -0.515625l0 4.109375q-0.671875 0.25 -1.390625 0.390625q-0.71875 0.140625 -1.515625 0.140625q-2.53125 0 -3.96875 -1.453125q-1.4375 -1.453125 -1.4375 -4.015625zm19.41095 5.21875l0 -16.3125l4.203125 0l0 16.3125l-4.203125 0zm2.125 -18.109375q-1.125 0 -1.921875 -0.796875q-0.796875 -0.8125 -0.796875 -1.921875q0 -1.125 0.796875 -1.90625q0.796875 -0.78125 1.921875 -0.78125q1.109375 0 1.890625 0.78125q0.796875 0.78125 0.796875 1.90625q0 1.109375 -0.796875 1.921875q-0.78125 0.796875 -1.890625 0.796875zm12.628113 18.625q-2.109375 0 -3.59375 -0.609375q-1.484375 -0.609375 -2.421875 -1.59375q-0.921875 -1.0 -1.375 -2.1875l3.75 -1.625q0.546875 1.140625 1.46875 1.734375q0.9375 0.59375 2.171875 0.59375q1.03125 0 1.859375 -0.328125q0.828125 -0.34375 0.828125 -1.234375q0 -0.640625 -0.4375 -1.0q-0.421875 -0.375 -1.0625 -0.578125q-0.640625 -0.21875 -1.3125 -0.34375l-1.921875 -0.421875q-1.171875 -0.25 -2.234375 -0.90625q-1.0625 -0.65625 -1.71875 -1.65625q-0.65625 -1.015625 -0.65625 -2.328125q0 -1.46875 0.84375 -2.546875q0.859375 -1.09375 2.3125 -1.703125q1.453125 -0.609375 3.21875 -0.609375q1.625 0 2.9375 0.390625q1.3125 0.375 2.265625 1.15625q0.96875 0.78125 1.546875 2.0l-3.578125 1.5625q-0.515625 -0.953125 -1.34375 -1.328125q-0.8125 -0.390625 -1.734375 -0.390625q-1.09375 0 -1.734375 0.421875q-0.625 0.40625 -0.625 0.984375q0 0.609375 0.625 1.0625q0.640625 0.4375 1.546875 0.671875l2.390625 0.5625q2.4375 0.578125 3.671875 1.859375q1.234375 1.28125 1.234375 3.078125q0 1.59375 -0.9375 2.796875q-0.921875 1.203125 -2.5 1.859375q-1.5625 0.65625 -3.484375 0.65625zm25.101196 0q-2.46875 0 -4.40625 -1.125q-1.9375 -1.125 -3.046875 -3.0625q-1.09375 -1.953125 -1.09375 -4.453125q0 -2.34375 1.078125 -4.328125q1.09375 -1.984375 2.984375 -3.171875q1.890625 -1.203125 4.3125 -1.203125q2.625 0 4.421875 1.125q1.796875 1.109375 2.71875 2.984375q0.921875 1.875 0.921875 4.140625q0 0.515625 -0.03125 0.890625q-0.03125 0.359375 -0.0625 0.515625l-14.015625 0l0 -2.96875l10.078125 0q-0.03125 -0.546875 -0.328125 -1.125q-0.28125 -0.578125 -0.796875 -1.046875q-0.5 -0.484375 -1.21875 -0.78125q-0.71875 -0.3125 -1.65625 -0.3125q-1.203125 0 -2.21875 0.640625q-1.0 0.640625 -1.578125 1.78125q-0.578125 1.125 -0.578125 2.703125q0 1.625 0.609375 2.765625q0.609375 1.125 1.640625 1.71875q1.046875 0.59375 2.328125 0.59375q1.5 0 2.515625 -0.65625q1.03125 -0.65625 1.609375 -1.640625l3.390625 1.65625q-1.15625 2.015625 -3.015625 3.1875q-1.84375 1.171875 -4.5625 1.171875zm9.1828 -0.515625l6.90625 -10.109375l0.421875 0l3.859375 -6.203125l5.125 0l-6.9375 9.71875l-0.171875 0l-4.25 6.59375l-4.953125 0zm0.03125 -16.3125l4.953125 0l4.21875 6.328125l0.203125 0l6.90625 9.984375l-4.953125 0l-4.390625 -6.65625l-0.15625 0l-6.78125 -9.65625zm18.620789 23.21875l0 -23.21875l3.9375 0l0 1.96875l0.25 0q0.421875 -0.625 1.109375 -1.203125q0.6875 -0.578125 1.640625 -0.921875q0.96875 -0.359375 2.15625 -0.359375q2.234375 0 4.0 1.109375q1.78125 1.09375 2.8125 3.046875q1.046875 1.953125 1.046875 4.515625q0 2.5625 -1.046875 4.515625q-1.03125 1.9375 -2.8125 3.046875q-1.765625 1.109375 -4.0 1.109375q-1.765625 0 -3.03125 -0.75q-1.265625 -0.75 -1.875 -1.71875l-0.25 0l0.25 2.3125l0 6.546875l-4.1875 0zm8.34375 -10.265625q1.1875 0 2.1875 -0.59375q1.015625 -0.59375 1.640625 -1.671875q0.625 -1.09375 0.625 -2.53125q0 -1.46875 -0.625 -2.53125q-0.625 -1.0625 -1.640625 -1.640625q-1.0 -0.59375 -2.1875 -0.59375q-1.140625 0 -2.15625 0.59375q-1.0 0.578125 -1.625 1.65625q-0.625 1.078125 -0.625 2.515625q0 1.4375 0.625 2.515625q0.625 1.0625 1.625 1.671875q1.015625 0.609375 2.15625 0.609375zm19.501526 3.875q-2.46875 0 -4.40625 -1.125q-1.9375 -1.125 -3.046875 -3.0625q-1.09375 -1.953125 -1.09375 -4.453125q0 -2.34375 1.078125 -4.328125q1.09375 -1.984375 2.984375 -3.171875q1.890625 -1.203125 4.3125 -1.203125q2.625 0 4.421875 1.125q1.796875 1.109375 2.71875 2.984375q0.921875 1.875 0.921875 4.140625q0 0.515625 -0.03125 0.890625q-0.03125 0.359375 -0.0625 0.515625l-14.015625 0l0 -2.96875l10.078125 0q-0.03125 -0.546875 -0.328125 -1.125q-0.28125 -0.578125 -0.796875 -1.046875q-0.5 -0.484375 -1.21875 -0.78125q-0.71875 -0.3125 -1.65625 -0.3125q-1.203125 0 -2.21875 0.640625q-1.0 0.640625 -1.578125 1.78125q-0.578125 1.125 -0.578125 2.703125q0 1.625 0.609375 2.765625q0.609375 1.125 1.640625 1.71875q1.046875 0.59375 2.328125 0.59375q1.5 0 2.515625 -0.65625q1.03125 -0.65625 1.609375 -1.640625l3.390625 1.65625q-1.15625 2.015625 -3.015625 3.1875q-1.84375 1.171875 -4.5625 1.171875zm11.127808 -0.515625l0 -16.3125l3.9375 0l0 2.046875l0.25 0q0.734375 -1.1875 2.078125 -1.875q1.34375 -0.6875 2.921875 -0.6875q3.0 0 4.5 1.828125q1.515625 1.8125 1.515625 4.859375l0 10.140625l-4.1875 0l0 -9.625q0 -1.609375 -0.828125 -2.453125q-0.8125 -0.84375 -2.21875 -0.84375q-1.15625 0 -2.0 0.625q-0.84375 0.609375 -1.3125 1.65625q-0.46875 1.046875 -0.46875 2.328125l0 8.3125l-4.1875 0zm25.21112 0.515625q-2.109375 0 -3.59375 -0.609375q-1.484375 -0.609375 -2.421875 -1.59375q-0.921875 -1.0 -1.375 -2.1875l3.75 -1.625q0.546875 1.140625 1.46875 1.734375q0.9375 0.59375 2.171875 0.59375q1.03125 0 1.859375 -0.328125q0.828125 -0.34375 0.828125 -1.234375q0 -0.640625 -0.4375 -1.0q-0.421875 -0.375 -1.0625 -0.578125q-0.640625 -0.21875 -1.3125 -0.34375l-1.921875 -0.421875q-1.171875 -0.25 -2.234375 -0.90625q-1.0625 -0.65625 -1.71875 -1.65625q-0.65625 -1.015625 -0.65625 -2.328125q0 -1.46875 0.84375 -2.546875q0.859375 -1.09375 2.3125 -1.703125q1.453125 -0.609375 3.21875 -0.609375q1.625 0 2.9375 0.390625q1.3125 0.375 2.265625 1.15625q0.96875 0.78125 1.546875 2.0l-3.578125 1.5625q-0.515625 -0.953125 -1.34375 -1.328125q-0.8125 -0.390625 -1.734375 -0.390625q-1.09375 0 -1.734375 0.421875q-0.625 0.40625 -0.625 0.984375q0 0.609375 0.625 1.0625q0.640625 0.4375 1.546875 0.671875l2.390625 0.5625q2.4375 0.578125 3.671875 1.859375q1.234375 1.28125 1.234375 3.078125q0 1.59375 -0.9375 2.796875q-0.921875 1.203125 -2.5 1.859375q-1.5625 0.65625 -3.484375 0.65625zm10.046936 -0.515625l0 -16.3125l4.203125 0l0 16.3125l-4.203125 0zm2.125 -18.109375q-1.125 0 -1.921875 -0.796875q-0.796875 -0.8125 -0.796875 -1.921875q0 -1.125 0.796875 -1.90625q0.796875 -0.78125 1.921875 -0.78125q1.109375 0 1.890625 0.78125q0.796875 0.78125 0.796875 1.90625q0 1.109375 -0.796875 1.921875q-0.78125 0.796875 -1.890625 0.796875zm11.518738 18.109375l-6.921875 -16.3125l4.765625 0l4.140625 10.609375l0.25 0l4.1875 -10.609375l4.703125 0l-6.96875 16.3125l-4.15625 0zm20.578552 0.515625q-2.46875 0 -4.40625 -1.125q-1.9375 -1.125 -3.046875 -3.0625q-1.09375 -1.953125 -1.09375 -4.453125q0 -2.34375 1.078125 -4.328125q1.09375 -1.984375 2.984375 -3.171875q1.890625 -1.203125 4.3125 -1.203125q2.625 0 4.421875 1.125q1.796875 1.109375 2.71875 2.984375q0.921875 1.875 0.921875 4.140625q0 0.515625 -0.03125 0.890625q-0.03125 0.359375 -0.0625 0.515625l-14.015625 0l0 -2.96875l10.078125 0q-0.03125 -0.546875 -0.328125 -1.125q-0.28125 -0.578125 -0.796875 -1.046875q-0.5 -0.484375 -1.21875 -0.78125q-0.71875 -0.3125 -1.65625 -0.3125q-1.203125 0 -2.21875 0.640625q-1.0 0.640625 -1.578125 1.78125q-0.578125 1.125 -0.578125 2.703125q0 1.625 0.609375 2.765625q0.609375 1.125 1.640625 1.71875q1.046875 0.59375 2.328125 0.59375q1.5 0 2.515625 -0.65625q1.03125 -0.65625 1.609375 -1.640625l3.390625 1.65625q-1.15625 2.015625 -3.015625 3.1875q-1.84375 1.171875 -4.5625 1.171875zm15.346558 -8.390625l0 -1.046875q0 -1.0625 0.28125 -1.875q0.296875 -0.8125 0.953125 -1.609375q0.65625 -0.8125 1.71875 -1.734375q0.578125 -0.515625 0.984375 -0.953125q0.421875 -0.453125 0.625 -0.9375q0.21875 -0.484375 0.21875 -1.09375q0 -0.953125 -0.734375 -1.65625q-0.71875 -0.703125 -1.953125 -0.703125q-0.90625 0 -1.5625 0.390625q-0.65625 0.375 -1.078125 0.96875q-0.40625 0.59375 -0.625 1.265625l-3.6875 -1.546875q0.359375 -1.203125 1.234375 -2.359375q0.875 -1.15625 2.28125 -1.90625q1.421875 -0.75 3.328125 -0.75q2.046875 0 3.59375 0.796875q1.5625 0.796875 2.4375 2.171875q0.890625 1.375 0.890625 3.109375q0 1.21875 -0.375 2.15625q-0.359375 0.921875 -1.0 1.6875q-0.640625 0.765625 -1.40625 1.5q-0.703125 0.671875 -1.125 1.203125q-0.421875 0.53125 -0.59375 1.09375q-0.171875 0.546875 -0.171875 1.3125l0 0.515625l-4.234375 0zm2.09375 8.0625q-1.15625 0 -1.984375 -0.8125q-0.8125 -0.8125 -0.8125 -1.96875q0 -1.15625 0.8125 -1.953125q0.828125 -0.796875 1.984375 -0.796875q1.140625 0 1.9375 0.796875q0.8125 0.796875 0.8125 1.953125q0 1.15625 -0.8125 1.96875q-0.796875 0.8125 -1.9375 0.8125z" fill-rule="nonzero"/><path fill="#000000" fill-opacity="0.0" d="m504.00262 158.97375l387.0551 0l0 296.0315l-387.0551 0z" fill-rule="evenodd"/><path fill="#3c4043" d="m512.862 173.425l-5.546875 0l-1.25 3.46875l-1.8125 0l5.0625 -13.265625l1.53125 0l5.078125 13.265625l-1.796875 0l-1.265625 -3.46875zm-5.03125 -1.4375l4.515625 0l-2.265625 -6.203125l-2.25 6.203125zm11.217163 -4.953125l0.046875 1.234375q1.125 -1.40625 2.953125 -1.40625q3.125 0 3.15625 3.515625l0 6.515625l-1.6875 0l0 -6.515625q-0.015625 -1.078125 -0.5 -1.578125q-0.46875 -0.515625 -1.484375 -0.515625q-0.8125 0 -1.4375 0.4375q-0.609375 0.4375 -0.96875 1.15625l0 7.015625l-1.671875 0l0 -9.859375l1.59375 0zm8.278137 4.84375q0 -2.265625 1.078125 -3.640625q1.078125 -1.375 2.8125 -1.375q1.734375 0 2.75 1.171875l0 -5.140625l1.6875 0l0 14.0l-1.546875 0l-0.09375 -1.0625q-1.0 1.25 -2.8125 1.25q-1.703125 0 -2.796875 -1.40625q-1.078125 -1.40625 -1.078125 -3.65625l0 -0.140625zm1.6875 0.203125q0 1.671875 0.6875 2.625q0.703125 0.9375 1.921875 0.9375q1.609375 0 2.34375 -1.4375l0 -4.53125q-0.765625 -1.390625 -2.328125 -1.390625q-1.234375 0 -1.9375 0.953125q-0.6875 0.953125 -0.6875 2.84375zm22.593079 2.484375l1.890625 -7.53125l1.6875 0l-2.859375 9.859375l-1.375 0l-2.390625 -7.46875l-2.328125 7.46875l-1.375 0l-2.859375 -9.859375l1.671875 0l1.953125 7.375l2.28125 -7.375l1.359375 0l2.34375 7.53125zm6.9726562 -6.328125q1.125 -1.375 2.921875 -1.375q3.125 0 3.15625 3.515625l0 6.515625l-1.6875 0l0 -6.515625q-0.015625 -1.078125 -0.5 -1.578125q-0.46875 -0.515625 -1.484375 -0.515625q-0.8125 0 -1.4375 0.4375q-0.609375 0.4375 -0.96875 1.15625l0 7.015625l-1.671875 0l0 -14.0l1.671875 0l0 5.34375zm14.681763 8.65625q-0.140625 -0.296875 -0.234375 -1.03125q-1.171875 1.21875 -2.8125 1.21875q-1.453125 0 -2.390625 -0.828125q-0.921875 -0.828125 -0.921875 -2.09375q0 -1.53125 1.15625 -2.375q1.171875 -0.859375 3.296875 -0.859375l1.640625 0l0 -0.78125q0 -0.890625 -0.53125 -1.40625q-0.515625 -0.53125 -1.546875 -0.53125q-0.90625 0 -1.515625 0.46875q-0.609375 0.453125 -0.609375 1.09375l-1.703125 0q0 -0.734375 0.515625 -1.421875q0.53125 -0.6875 1.421875 -1.078125q0.90625 -0.40625 1.984375 -0.40625q1.703125 0 2.671875 0.859375q0.96875 0.84375 1.0 2.328125l0 4.53125q0 1.359375 0.34375 2.171875l0 0.140625l-1.765625 0zm-2.796875 -1.28125q0.796875 0 1.5 -0.40625q0.71875 -0.421875 1.03125 -1.078125l0 -2.015625l-1.3125 0q-3.109375 0 -3.109375 1.8125q0 0.796875 0.53125 1.25q0.53125 0.4375 1.359375 0.4375zm9.147949 -10.96875l0 2.390625l1.84375 0l0 1.3125l-1.84375 0l0 6.109375q0 0.59375 0.234375 0.890625q0.25 0.296875 0.84375 0.296875q0.296875 0 0.8125 -0.109375l0 1.359375q-0.671875 0.1875 -1.296875 0.1875q-1.125 0 -1.703125 -0.6875q-0.578125 -0.6875 -0.578125 -1.9375l0 -6.109375l-1.796875 0l0 -1.3125l1.796875 0l0 -2.390625l1.6875 0zm12.384644 11.0625q0.890625 0 1.5625 -0.546875q0.6875 -0.546875 0.75 -1.375l1.59375 0q-0.046875 0.84375 -0.578125 1.609375q-0.53125 0.765625 -1.4375 1.234375q-0.890625 0.453125 -1.890625 0.453125q-2.015625 0 -3.203125 -1.34375q-1.1875 -1.34375 -1.1875 -3.6875l0 -0.28125q0 -1.4375 0.515625 -2.546875q0.53125 -1.125 1.515625 -1.734375q1.0 -0.625 2.34375 -0.625q1.65625 0 2.75 1.0q1.109375 0.984375 1.171875 2.5625l-1.59375 0q-0.0625 -0.953125 -0.71875 -1.5625q-0.65625 -0.625 -1.609375 -0.625q-1.28125 0 -2.0 0.921875q-0.703125 0.921875 -0.703125 2.671875l0 0.328125q0 1.703125 0.703125 2.625q0.703125 0.921875 2.015625 0.921875zm11.890381 1.1875q-0.140625 -0.296875 -0.234375 -1.03125q-1.171875 1.21875 -2.8125 1.21875q-1.453125 0 -2.390625 -0.828125q-0.921875 -0.828125 -0.921875 -2.09375q0 -1.53125 1.15625 -2.375q1.171875 -0.859375 3.296875 -0.859375l1.640625 0l0 -0.78125q0 -0.890625 -0.53125 -1.40625q-0.515625 -0.53125 -1.546875 -0.53125q-0.90625 0 -1.515625 0.46875q-0.609375 0.453125 -0.609375 1.09375l-1.703125 0q0 -0.734375 0.515625 -1.421875q0.53125 -0.6875 1.421875 -1.078125q0.90625 -0.40625 1.984375 -0.40625q1.703125 0 2.671875 0.859375q0.96875 0.84375 1.0 2.328125l0 4.53125q0 1.359375 0.34375 2.171875l0 0.140625l-1.765625 0zm-2.796875 -1.28125q0.796875 0 1.5 -0.40625q0.71875 -0.421875 1.03125 -1.078125l0 -2.015625l-1.3125 0q-3.109375 0 -3.109375 1.8125q0 0.796875 0.53125 1.25q0.53125 0.4375 1.359375 0.4375zm8.46051 -8.578125l0.046875 1.234375q1.125 -1.40625 2.953125 -1.40625q3.125 0 3.15625 3.515625l0 6.515625l-1.6875 0l0 -6.515625q-0.015625 -1.078125 -0.5 -1.578125q-0.46875 -0.515625 -1.484375 -0.515625q-0.8125 0 -1.4375 0.4375q-0.609375 0.4375 -0.96875 1.15625l0 7.015625l-1.671875 0l0 -9.859375l1.59375 0zm22.037231 7.53125l1.890625 -7.53125l1.6875 0l-2.859375 9.859375l-1.375 0l-2.390625 -7.46875l-2.328125 7.46875l-1.375 0l-2.859375 -9.859375l1.671875 0l1.953125 7.375l2.28125 -7.375l1.359375 0l2.34375 7.53125zm9.378906 2.515625q-2.0 0 -3.265625 -1.3125q-1.25 -1.328125 -1.25 -3.53125l0 -0.3125q0 -1.46875 0.5625 -2.609375q0.5625 -1.15625 1.5625 -1.796875q1.015625 -0.65625 2.1875 -0.65625q1.921875 0 2.984375 1.265625q1.0625 1.265625 1.0625 3.625l0 0.6875l-6.671875 0q0.03125 1.46875 0.84375 2.375q0.828125 0.890625 2.078125 0.890625q0.890625 0 1.515625 -0.359375q0.625 -0.375 1.078125 -0.96875l1.03125 0.796875q-1.234375 1.90625 -3.71875 1.90625zm-0.203125 -8.84375q-1.015625 0 -1.71875 0.75q-0.6875 0.734375 -0.84375 2.078125l4.9375 0l0 -0.125q-0.078125 -1.28125 -0.703125 -1.984375q-0.609375 -0.71875 -1.671875 -0.71875zm10.205444 3.640625q0 -2.265625 1.078125 -3.640625q1.078125 -1.375 2.8125 -1.375q1.734375 0 2.75 1.171875l0 -5.140625l1.6875 0l0 14.0l-1.546875 0l-0.09375 -1.0625q-1.0 1.25 -2.8125 1.25q-1.703125 0 -2.796875 -1.40625q-1.078125 -1.40625 -1.078125 -3.65625l0 -0.140625zm1.6875 0.203125q0 1.671875 0.6875 2.625q0.703125 0.9375 1.921875 0.9375q1.609375 0 2.34375 -1.4375l0 -4.53125q-0.765625 -1.390625 -2.328125 -1.390625q-1.234375 0 -1.9375 0.953125q-0.6875 0.953125 -0.6875 2.84375zm8.802734 -0.203125q0 -1.453125 0.5625 -2.609375q0.578125 -1.15625 1.59375 -1.78125q1.015625 -0.625 2.3125 -0.625q2.015625 0 3.25 1.390625q1.25 1.390625 1.25 3.703125l0 0.125q0 1.4375 -0.546875 2.578125q-0.546875 1.140625 -1.578125 1.78125q-1.015625 0.640625 -2.359375 0.640625q-2.0 0 -3.25 -1.390625q-1.234375 -1.40625 -1.234375 -3.703125l0 -0.109375zm1.6875 0.203125q0 1.640625 0.765625 2.640625q0.765625 0.984375 2.03125 0.984375q1.296875 0 2.046875 -1.0q0.75 -1.015625 0.75 -2.828125q0 -1.625 -0.765625 -2.625q-0.765625 -1.015625 -2.046875 -1.015625q-1.25 0 -2.015625 1.0q-0.765625 0.984375 -0.765625 2.84375zm20.102112 4.8125q-0.140625 -0.296875 -0.234375 -1.03125q-1.171875 1.21875 -2.8125 1.21875q-1.453125 0 -2.390625 -0.828125q-0.921875 -0.828125 -0.921875 -2.09375q0 -1.53125 1.15625 -2.375q1.171875 -0.859375 3.296875 -0.859375l1.640625 0l0 -0.78125q0 -0.890625 -0.53125 -1.40625q-0.515625 -0.53125 -1.546875 -0.53125q-0.90625 0 -1.515625 0.46875q-0.609375 0.453125 -0.609375 1.09375l-1.703125 0q0 -0.734375 0.515625 -1.421875q0.53125 -0.6875 1.421875 -1.078125q0.90625 -0.40625 1.984375 -0.40625q1.703125 0 2.671875 0.859375q0.96875 0.84375 1.0 2.328125l0 4.53125q0 1.359375 0.34375 2.171875l0 0.140625l-1.765625 0zm-2.796875 -1.28125q0.796875 0 1.5 -0.40625q0.71875 -0.421875 1.03125 -1.078125l0 -2.015625l-1.3125 0q-3.109375 0 -3.109375 1.8125q0 0.796875 0.53125 1.25q0.53125 0.4375 1.359375 0.4375zm15.21051 -3.53125q0 2.25 -1.046875 3.625q-1.03125 1.375 -2.78125 1.375q-1.875 0 -2.890625 -1.328125l-0.078125 1.140625l-1.546875 0l0 -14.0l1.671875 0l0 5.234375q1.03125 -1.265625 2.8125 -1.265625q1.796875 0 2.828125 1.359375q1.03125 1.34375 1.03125 3.703125l0 0.15625zm-1.6875 -0.203125q0 -1.71875 -0.671875 -2.65625q-0.65625 -0.9375 -1.90625 -0.9375q-1.671875 0 -2.40625 1.546875l0 4.265625q0.78125 1.546875 2.421875 1.546875q1.21875 0 1.890625 -0.9375q0.671875 -0.9375 0.671875 -2.828125zm3.3574219 0q0 -1.453125 0.5625 -2.609375q0.578125 -1.15625 1.59375 -1.78125q1.015625 -0.625 2.3125 -0.625q2.015625 0 3.25 1.390625q1.25 1.390625 1.25 3.703125l0 0.125q0 1.4375 -0.546875 2.578125q-0.546875 1.140625 -1.578125 1.78125q-1.015625 0.640625 -2.359375 0.640625q-2.0 0 -3.25 -1.390625q-1.234375 -1.40625 -1.234375 -3.703125l0 -0.109375zm1.6875 0.203125q0 1.640625 0.765625 2.640625q0.765625 0.984375 2.03125 0.984375q1.296875 0 2.046875 -1.0q0.75 -1.015625 0.75 -2.828125q0 -1.625 -0.765625 -2.625q-0.765625 -1.015625 -2.046875 -1.015625q-1.25 0 -2.015625 1.0q-0.765625 0.984375 -0.765625 2.84375zm15.483643 3.84375q-0.984375 1.15625 -2.890625 1.15625q-1.578125 0 -2.40625 -0.921875q-0.8125 -0.921875 -0.828125 -2.703125l0 -6.421875l1.6875 0l0 6.375q0 2.234375 1.828125 2.234375q1.921875 0 2.5625 -1.4375l0 -7.171875l1.6875 0l0 9.859375l-1.609375 0l-0.03125 -0.96875zm6.487732 -11.28125l0 2.390625l1.84375 0l0 1.3125l-1.84375 0l0 6.109375q0 0.59375 0.234375 0.890625q0.25 0.296875 0.84375 0.296875q0.296875 0 0.8125 -0.109375l0 1.359375q-0.671875 0.1875 -1.296875 0.1875q-1.125 0 -1.703125 -0.6875q-0.578125 -0.6875 -0.578125 -1.9375l0 -6.109375l-1.796875 0l0 -1.3125l1.796875 0l0 -2.390625l1.6875 0zm10.259644 12.25l-1.6875 0l0 -9.859375l1.6875 0l0 9.859375zm-1.828125 -12.46875q0 -0.40625 0.25 -0.6875q0.25 -0.296875 0.734375 -0.296875q0.5 0 0.75 0.296875q0.265625 0.28125 0.265625 0.6875q0 0.40625 -0.265625 0.6875q-0.25 0.265625 -0.75 0.265625q-0.484375 0 -0.734375 -0.265625q-0.25 -0.28125 -0.25 -0.6875zm6.808716 0.21875l0 2.390625l1.84375 0l0 1.3125l-1.84375 0l0 6.109375q0 0.59375 0.234375 0.890625q0.25 0.296875 0.84375 0.296875q0.296875 0 0.8125 -0.109375l0 1.359375q-0.671875 0.1875 -1.296875 0.1875q-1.125 0 -1.703125 -0.6875q-0.578125 -0.6875 -0.578125 -1.9375l0 -6.109375l-1.796875 0l0 -1.3125l1.796875 0l0 -2.390625l1.6875 0zm5.7817383 8.515625q0.015625 -1.078125 0.234375 -1.703125q0.234375 -0.640625 0.9375 -1.40625l1.203125 -1.234375q0.765625 -0.859375 0.765625 -1.84375q0 -0.96875 -0.5 -1.5q-0.5 -0.546875 -1.46875 -0.546875q-0.921875 0 -1.484375 0.5q-0.5625 0.484375 -0.5625 1.3125l-1.6875 0q0.015625 -1.484375 1.046875 -2.390625q1.03125 -0.90625 2.6875 -0.90625q1.734375 0 2.6875 0.9375q0.96875 0.921875 0.96875 2.53125q0 1.59375 -1.484375 3.140625l-0.984375 0.984375q-0.671875 0.734375 -0.671875 2.125l-1.6875 0zm-0.078125 2.890625q0 -0.40625 0.25 -0.6875q0.265625 -0.28125 0.75 -0.28125q0.5 0 0.75 0.28125q0.25 0.28125 0.25 0.6875q0 0.40625 -0.25 0.671875q-0.25 0.265625 -0.75 0.265625q-0.484375 0 -0.75 -0.265625q-0.25 -0.265625 -0.25 -0.671875z" fill-rule="nonzero"/></g></svg>