<svg version="1.1" viewBox="0.0 0.0 960.0 540.0" fill="none" stroke="none" stroke-linecap="square" stroke-miterlimit="10" xmlns:xlink="http://www.w3.org/1999/xlink" xmlns="http://www.w3.org/2000/svg"><clipPath id="p.0"><path d="m0 0l960.0 0l0 540.0l-960.0 0l0 -540.0z" clip-rule="nonzero"/></clipPath><g clip-path="url(#p.0)"><path fill="#ffffff" d="m0 0l960.0 0l0 540.0l-960.0 0z" fill-rule="evenodd"/><path fill="#fff2cc" d="m474.13123 67.661415l358.6457 0l0 96.59843l-358.6457 0z" fill-rule="evenodd"/><path stroke="#bf9000" stroke-width="4.0" stroke-linejoin="round" stroke-linecap="butt" d="m474.13123 67.661415l358.6457 0l0 96.59843l-358.6457 0z" fill-rule="evenodd"/><path fill="#000000" d="m610.6181 133.04063l-7.546875 0l-3.0 -7.8125076l-13.734375 0l-2.84375 7.8125076l-7.359375 0l13.390625 -34.359383l7.328125 0l13.765625 34.359383zm-12.78125 -13.593758l-4.734375 -12.75l-4.640625 12.75l9.375 0zm16.226562 -11.296875l6.140625 0l0 3.65625q1.1875 -1.875 3.21875 -3.046875q2.046875 -1.171875 4.53125 -1.171875q4.34375 0 7.359375 3.40625q3.03125 3.390625 3.03125 9.453125q0 6.234375 -3.046875 9.703133q-3.046875 3.453125 -7.390625 3.453125q-2.0625 0 -3.734375 -0.8125q-1.671875 -0.828125 -3.53125 -2.828125l0 12.546875l-6.578125 0l0 -34.359383zm6.515625 12.015625q0 4.203125 1.65625 6.203125q1.671875 2.0000076 4.0625 2.0000076q2.296875 0 3.8125 -1.8281326q1.53125 -1.84375 1.53125 -6.046875q0 -3.90625 -1.578125 -5.796875q-1.5625 -1.90625 -3.890625 -1.90625q-2.40625 0 -4.0 1.859375q-1.59375 1.859375 -1.59375 5.515625zm22.804688 -12.015625l6.140625 0l0 3.65625q1.1875 -1.875 3.21875 -3.046875q2.046875 -1.171875 4.53125 -1.171875q4.34375 0 7.359375 3.40625q3.03125 3.390625 3.03125 9.453125q0 6.234375 -3.046875 9.703133q-3.046875 3.453125 -7.390625 3.453125q-2.0625 0 -3.734375 -0.8125q-1.671875 -0.828125 -3.53125 -2.828125l0 12.546875l-6.578125 0l0 -34.359383zm6.515625 12.015625q0 4.203125 1.65625 6.203125q1.671875 2.0000076 4.0625 2.0000076q2.296875 0 3.8125 -1.8281326q1.53125 -1.84375 1.53125 -6.046875q0 -3.90625 -1.578125 -5.796875q-1.5625 -1.90625 -3.890625 -1.90625q-2.40625 0 -4.0 1.859375q-1.59375 1.859375 -1.59375 5.515625zm36.328125 -21.484375l6.9375 0l0 18.609375q0 4.421875 0.25 5.734375q0.453125 2.109375 2.125 3.390625q1.671875 1.28125 4.578125 1.28125q2.953125 0 4.453125 -1.203125q1.5 -1.21875 1.796875 -2.96875q0.3125 -1.765625 0.3125 -5.84375l0 -19.0l6.9375 0l0 18.046875q0 6.1875 -0.5625 8.75q-0.5625 2.5468826 -2.078125 4.3125076q-1.5 1.75 -4.03125 2.796875q-2.53125 1.046875 -6.609375 1.046875q-4.921875 0 -7.46875 -1.140625q-2.546875 -1.140625 -4.03125 -2.953125q-1.46875 -1.8281326 -1.9375 -3.8125076q-0.671875 -2.953125 -0.671875 -8.71875l0 -18.328125zm34.492188 34.359383l0 -34.359383l6.9375 0l0 34.359383l-6.9375 0z" fill-rule="nonzero"/><path fill="#fce5cd" d="m474.13123 246.82939l358.6457 0l0 83.622055l-358.6457 0z" fill-rule="evenodd"/><path stroke="#b45f06" stroke-width="4.0" stroke-linejoin="round" stroke-linecap="butt" d="m474.13123 246.82939l358.6457 0l0 83.622055l-358.6457 0z" fill-rule="evenodd"/><path fill="#000000" d="m583.9228 305.72043l-7.546875 0l-3.0 -7.8125l-13.734375 0l-2.84375 7.8125l-7.359375 0l13.390625 -34.359375l7.328125 0l13.765625 34.359375zm-12.78125 -13.59375l-4.734375 -12.75l-4.640625 12.75l9.375 0zm16.226562 -11.296875l6.140625 0l0 3.65625q1.1875 -1.875 3.21875 -3.046875q2.046875 -1.171875 4.53125 -1.171875q4.34375 0 7.359375 3.40625q3.03125 3.390625 3.03125 9.453125q0 6.234375 -3.046875 9.703125q-3.046875 3.453125 -7.390625 3.453125q-2.0625 0 -3.734375 -0.8125q-1.671875 -0.828125 -3.53125 -2.828125l0 12.546875l-6.578125 0l0 -34.359375zm6.515625 12.015625q0 4.203125 1.65625 6.203125q1.671875 2.0 4.0625 2.0q2.296875 0 3.8125 -1.828125q1.53125 -1.84375 1.53125 -6.046875q0 -3.90625 -1.578125 -5.796875q-1.5625 -1.90625 -3.890625 -1.90625q-2.40625 0 -4.0 1.859375q-1.59375 1.859375 -1.59375 5.515625zm22.804688 -12.015625l6.140625 0l0 3.65625q1.1875 -1.875 3.21875 -3.046875q2.046875 -1.171875 4.53125 -1.171875q4.34375 0 7.359375 3.40625q3.03125 3.390625 3.03125 9.453125q0 6.234375 -3.046875 9.703125q-3.046875 3.453125 -7.390625 3.453125q-2.0625 0 -3.734375 -0.8125q-1.671875 -0.828125 -3.53125 -2.828125l0 12.546875l-6.578125 0l0 -34.359375zm6.515625 12.015625q0 4.203125 1.65625 6.203125q1.671875 2.0 4.0625 2.0q2.296875 0 3.8125 -1.828125q1.53125 -1.84375 1.53125 -6.046875q0 -3.90625 -1.578125 -5.796875q-1.5625 -1.90625 -3.890625 -1.90625q-2.40625 0 -4.0 1.859375q-1.59375 1.859375 -1.59375 5.515625zm58.03125 -4.65625l-6.5 1.171875q-0.328125 -1.953125 -1.484375 -2.9375q-1.15625 -0.984375 -3.015625 -0.984375q-2.453125 0 -3.921875 1.703125q-1.46875 1.703125 -1.46875 5.6875q0 4.421875 1.484375 6.25q1.5 1.828125 4.0 1.828125q1.875 0 3.0625 -1.0625q1.203125 -1.0625 1.703125 -3.671875l6.46875 1.109375q-1.015625 4.453125 -3.875 6.734375q-2.859375 2.265625 -7.65625 2.265625q-5.46875 0 -8.71875 -3.4375q-3.234375 -3.453125 -3.234375 -9.546875q0 -6.171875 3.25 -9.59375q3.265625 -3.4375 8.8125 -3.4375q4.546875 0 7.234375 1.953125q2.6875 1.953125 3.859375 5.96875zm3.4609375 4.734375q0 -3.28125 1.609375 -6.34375q1.625 -3.078125 4.59375 -4.6875q2.96875 -1.625 6.625 -1.625q5.640625 0 9.25 3.671875q3.609375 3.65625 3.609375 9.265625q0 5.640625 -3.640625 9.359375q-3.640625 3.71875 -9.171875 3.71875q-3.421875 0 -6.53125 -1.546875q-3.109375 -1.546875 -4.734375 -4.53125q-1.609375 -3.0 -1.609375 -7.28125zm6.75 0.34375q0 3.703125 1.75 5.671875q1.765625 1.96875 4.34375 1.96875q2.578125 0 4.328125 -1.96875q1.75 -1.96875 1.75 -5.71875q0 -3.65625 -1.75 -5.625q-1.75 -1.96875 -4.328125 -1.96875q-2.578125 0 -4.34375 1.96875q-1.75 1.96875 -1.75 5.671875zm30.398438 12.453125l-6.578125 0l0 -24.890625l6.109375 0l0 3.53125q1.578125 -2.5 2.828125 -3.296875q1.25 -0.796875 2.84375 -0.796875q2.25 0 4.34375 1.234375l-2.046875 5.75q-1.65625 -1.078125 -3.09375 -1.078125q-1.375 0 -2.34375 0.765625q-0.953125 0.75 -1.515625 2.75q-0.546875 1.984375 -0.546875 8.34375l0 7.6875zm26.789062 -7.921875l6.5625 1.09375q-1.265625 3.609375 -4.0 5.5q-2.71875 1.890625 -6.828125 1.890625q-6.484375 0 -9.609375 -4.25q-2.453125 -3.390625 -2.453125 -8.578125q0 -6.1875 3.234375 -9.6875q3.234375 -3.5 8.171875 -3.5q5.5625 0 8.765625 3.671875q3.21875 3.65625 3.078125 11.234375l-16.5 0q0.0625 2.921875 1.578125 4.5625q1.53125 1.625 3.8125 1.625q1.546875 0 2.59375 -0.84375q1.0625 -0.84375 1.59375 -2.71875zm0.375 -6.65625q-0.0625 -2.859375 -1.46875 -4.34375q-1.40625 -1.5 -3.421875 -1.5q-2.15625 0 -3.5625 1.578125q-1.40625 1.5625 -1.390625 4.265625l9.84375 0z" fill-rule="nonzero"/><path fill="#d9d2e9" d="m474.13123 411.6614l358.6457 0l0 102.80313l-358.6457 0z" fill-rule="evenodd"/><path stroke="#351c75" stroke-width="4.0" stroke-linejoin="round" stroke-linecap="butt" d="m474.13123 411.6614l358.6457 0l0 102.80313l-358.6457 0z" fill-rule="evenodd"/><path fill="#000000" d="m506.03806 469.86923l5.3125 -0.65625q0.265625 2.03125 1.3749695 3.109375q1.109375 1.078125 2.6875 1.078125q1.703125 0 2.859375 -1.28125q1.171875 -1.296875 1.171875 -3.484375q0 -2.078125 -1.125 -3.28125q-1.109375 -1.21875 -2.703125 -1.21875q-1.0625 0 -2.515625 0.421875l0.59375 -4.484375q2.234375 0.0625 3.40625 -0.953125q1.171875 -1.03125 1.171875 -2.734375q0 -1.4375 -0.859375 -2.296875q-0.859375 -0.859375 -2.28125 -0.859375q-1.40625 0 -2.40625 0.984375q-0.9999695 0.96875 -1.2187195 2.84375l-5.046875 -0.859375q0.515625 -2.609375 1.578125 -4.15625q1.078125 -1.546875 2.96875 -2.4375q1.9062195 -0.890625 4.2812195 -0.890625q4.03125 0 6.484375 2.578125q2.0 2.109375 2.0 4.765625q0 3.765625 -4.109375 6.015625q2.453125 0.53125 3.921875 2.375q1.484375 1.828125 1.484375 4.421875q0 3.765625 -2.765625 6.421875q-2.75 2.65625 -6.84375 2.65625q-3.8905945 0 -6.4530945 -2.234375q-2.546875 -2.234375 -2.96875 -5.84375zm28.871063 7.59375l-5.484375 0l0 -20.75l5.09375 0l0 2.953125q1.3125 -2.09375 2.359375 -2.75q1.046875 -0.671875 2.375 -0.671875q1.875 0 3.609375 1.046875l-1.703125 4.78125q-1.390625 -0.90625 -2.578125 -0.90625q-1.15625 0 -1.953125 0.640625q-0.796875 0.640625 -1.265625 2.296875q-0.453125 1.65625 -0.453125 6.953125l0 6.40625zm29.332031 0l-5.09375 0l0 -3.046875q-1.265625 1.78125 -3.0 2.65625q-1.71875 0.859375 -3.484375 0.859375q-3.578125 0 -6.125 -2.875q-2.546875 -2.890625 -2.546875 -8.046875q0 -5.265625 2.484375 -8.015625q2.484375 -2.75 6.265625 -2.75q3.484375 0 6.015625 2.890625l0 -10.3125l5.484375 0l0 28.640625zm-14.640625 -10.828125q0 3.328125 0.921875 4.8125q1.328125 2.140625 3.703125 2.140625q1.890625 0 3.21875 -1.609375q1.328125 -1.609375 1.328125 -4.8125q0 -3.578125 -1.296875 -5.140625q-1.28125 -1.578125 -3.28125 -1.578125q-1.953125 0 -3.28125 1.5625q-1.3125 1.546875 -1.3125 4.625zm31.015625 -9.921875l5.109375 0l0 3.046875q1.0 -1.5625 2.703125 -2.53125q1.703125 -0.984375 3.765625 -0.984375q3.609375 0 6.125 2.84375q2.53125 2.828125 2.53125 7.890625q0 5.1875 -2.546875 8.078125q-2.53125 2.875 -6.140625 2.875q-1.71875 0 -3.125 -0.6875q-1.390625 -0.6875 -2.9375 -2.34375l0 10.453125l-5.484375 0l0 -28.640625zm5.421875 10.03125q0 3.484375 1.390625 5.15625q1.390625 1.671875 3.375 1.671875q1.921875 0 3.1875 -1.53125q1.265625 -1.53125 1.265625 -5.03125q0 -3.265625 -1.3125 -4.84375q-1.296875 -1.578125 -3.234375 -1.578125q-2.015625 0 -3.34375 1.5625q-1.328125 1.546875 -1.328125 4.59375zm23.261719 -3.703125l-4.96875 -0.890625q0.828125 -3.015625 2.875 -4.453125q2.0625 -1.453125 6.109375 -1.453125q3.671875 0 5.46875 0.875q1.796875 0.875 2.515625 2.21875q0.734375 1.328125 0.734375 4.90625l-0.046875 6.40625q0 2.734375 0.25 4.03125q0.265625 1.296875 1.0 2.78125l-5.4375 0q-0.21875 -0.546875 -0.53125 -1.625q-0.125 -0.484375 -0.1875 -0.640625q-1.40625 1.359375 -3.015625 2.046875q-1.59375 0.6875 -3.40625 0.6875q-3.203125 0 -5.0625 -1.734375q-1.84375 -1.75 -1.84375 -4.40625q0 -1.75 0.84375 -3.125q0.84375 -1.375 2.359375 -2.109375q1.515625 -0.734375 4.359375 -1.28125q3.84375 -0.71875 5.328125 -1.34375l0 -0.546875q0 -1.59375 -0.78125 -2.265625q-0.78125 -0.671875 -2.9375 -0.671875q-1.46875 0 -2.296875 0.578125q-0.8125 0.578125 -1.328125 2.015625zm7.34375 4.453125q-1.046875 0.359375 -3.34375 0.84375q-2.28125 0.484375 -2.984375 0.953125q-1.0625 0.765625 -1.0625 1.9375q0 1.15625 0.859375 2.0q0.859375 0.828125 2.1875 0.828125q1.484375 0 2.828125 -0.96875q1.0 -0.75 1.3125 -1.8125q0.203125 -0.703125 0.203125 -2.6875l0 -1.09375zm16.058594 9.96875l-5.484375 0l0 -20.75l5.09375 0l0 2.953125q1.3125 -2.09375 2.359375 -2.75q1.046875 -0.671875 2.375 -0.671875q1.875 0 3.609375 1.046875l-1.703125 4.78125q-1.390625 -0.90625 -2.578125 -0.90625q-1.15625 0 -1.953125 0.640625q-0.796875 0.640625 -1.265625 2.296875q-0.453125 1.65625 -0.453125 6.953125l0 6.40625zm19.832031 -20.75l0 4.375l-3.75 0l0 8.359375q0 2.546875 0.09375 2.96875q0.109375 0.421875 0.484375 0.703125q0.390625 0.265625 0.9375 0.265625q0.765625 0 2.203125 -0.53125l0.46875 4.25q-1.90625 0.828125 -4.328125 0.828125q-1.484375 0 -2.6875 -0.5q-1.1875 -0.5 -1.75 -1.28125q-0.546875 -0.796875 -0.765625 -2.140625q-0.171875 -0.96875 -0.171875 -3.875l0 -9.046875l-2.515625 0l0 -4.375l2.515625 0l0 -4.109375l5.515625 -3.203125l0 7.3125l3.75 0zm1.2109375 0l5.828125 0l4.96875 14.734375l4.84375 -14.734375l5.6875 0l-7.328125 19.96875l-1.3125 3.609375q-0.71875 1.828125 -1.375 2.78125q-0.65625 0.953125 -1.515625 1.546875q-0.84375 0.59375 -2.078125 0.921875q-1.234375 0.34375 -2.796875 0.34375q-1.59375 0 -3.109375 -0.328125l-0.484375 -4.296875q1.28125 0.25 2.3125 0.25q1.921875 0 2.828125 -1.125q0.921875 -1.125 1.421875 -2.859375l-7.890625 -20.8125zm35.96875 -7.890625l10.5625 0q3.578125 0 5.453125 0.546875q2.515625 0.75 4.3125 2.640625q1.796875 1.890625 2.734375 4.640625q0.9375 2.75 0.9375 6.765625q0 3.53125 -0.875 6.09375q-1.078125 3.125 -3.0625 5.0625q-1.5 1.46875 -4.0625 2.28125q-1.921875 0.609375 -5.125 0.609375l-10.875 0l0 -28.640625zm5.78125 4.84375l0 18.96875l4.3125 0q2.421875 0 3.5 -0.265625q1.40625 -0.359375 2.328125 -1.1875q0.9375 -0.84375 1.515625 -2.765625q0.59375 -1.9375 0.59375 -5.25q0 -3.328125 -0.59375 -5.09375q-0.578125 -1.78125 -1.640625 -2.78125q-1.046875 -1.0 -2.671875 -1.34375q-1.203125 -0.28125 -4.75 -0.28125l-2.59375 0zm23.152344 -4.84375l11.4375 0q3.40625 0 5.0625 0.296875q1.671875 0.28125 2.984375 1.1875q1.328125 0.890625 2.203125 2.390625q0.890625 1.484375 0.890625 3.34375q0 2.0 -1.09375 3.6875q-1.078125 1.671875 -2.9375 2.515625q2.625 0.765625 4.03125 2.609375q1.40625 1.828125 1.40625 4.3125q0 1.953125 -0.921875 3.796875q-0.90625 1.84375 -2.484375 2.953125q-1.5625 1.09375 -3.859375 1.34375q-1.453125 0.15625 -6.984375 0.203125l-9.734375 0l0 -28.640625zm5.78125 4.765625l0 6.625l3.78125 0q3.375 0 4.203125 -0.09375q1.484375 -0.171875 2.328125 -1.015625q0.859375 -0.859375 0.859375 -2.25q0 -1.328125 -0.734375 -2.15625q-0.734375 -0.828125 -2.1875 -1.0q-0.859375 -0.109375 -4.9375 -0.109375l-3.3125 0zm0 11.390625l0 7.65625l5.34375 0q3.125 0 3.96875 -0.171875q1.28125 -0.234375 2.09375 -1.140625q0.8125 -0.90625 0.8125 -2.4375q0 -1.28125 -0.625 -2.171875q-0.625 -0.90625 -1.8125 -1.3125q-1.171875 -0.421875 -5.125 -0.421875l-4.65625 0zm34.15625 12.484375l0 -28.640625l5.484375 0l0 28.640625l-5.484375 0zm11.113281 -23.5625l0 -5.078125l5.484375 0l0 5.078125l-5.484375 0zm0 23.5625l0 -20.75l5.484375 0l0 20.75l-5.484375 0zm10.878906 0l0 -28.640625l5.484375 0l0 10.3125q2.546875 -2.890625 6.015625 -2.890625q3.796875 0 6.265625 2.75q2.484375 2.75 2.484375 7.875q0 5.3125 -2.53125 8.1875q-2.53125 2.875 -6.140625 2.875q-1.78125 0 -3.515625 -0.890625q-1.71875 -0.890625 -2.96875 -2.625l0 3.046875l-5.09375 0zm5.453125 -10.828125q0 3.234375 1.015625 4.765625q1.421875 2.1875 3.78125 2.1875q1.8125 0 3.09375 -1.546875q1.28125 -1.546875 1.28125 -4.890625q0 -3.5625 -1.296875 -5.125q-1.28125 -1.578125 -3.296875 -1.578125q-1.96875 0 -3.28125 1.53125q-1.296875 1.53125 -1.296875 4.65625z" fill-rule="nonzero"/><path fill="#6aa84f" d="m488.32022 206.98425l19.921234 0l0 -43.779526l39.84253 0l0 43.779526l19.921265 0l-39.84253 39.842514z" fill-rule="evenodd"/><path stroke="#38761d" stroke-width="4.0" stroke-linejoin="round" stroke-linecap="butt" d="m488.32022 206.98425l19.921234 0l0 -43.779526l39.84253 0l0 43.779526l19.921265 0l-39.84253 39.842514z" fill-rule="evenodd"/><path fill="#000000" fill-opacity="0.0" d="m232.0 164.86613l256.31497 0l0 81.133865l-256.31497 0z" fill-rule="evenodd"/><path fill="#274e13" d="m261.76562 212.26614l-5.3125 0l0.46875 -2.25q-1.53125 1.46875 -3.0 2.109375q-1.46875 0.625 -3.328125 0.625q-3.21875 0 -5.234375 -2.1875q-2.0 -2.203125 -2.0 -6.5q0 -4.984375 2.8125 -9.0q2.8125 -4.03125 7.453125 -4.03125q4.171875 0 6.265625 3.328125l2.25 -10.734375l5.59375 0l-5.96875 28.640625zm-12.953125 -8.4375q0 2.21875 1.125 3.46875q1.125 1.25 2.765625 1.25q1.515625 0 2.828125 -1.03125q1.328125 -1.046875 2.109375 -3.1875q0.796875 -2.15625 0.796875 -4.140625q0 -2.234375 -1.21875 -3.625q-1.203125 -1.390625 -2.78125 -1.390625q-2.453125 0 -4.046875 2.734375q-1.578125 2.734375 -1.578125 5.921875zm38.41797 -0.203125l-14.0625 0q-0.015625 0.34375 -0.015625 0.515625q0 2.0625 1.171875 3.34375q1.1875 1.265625 2.890625 1.265625q2.796875 0 4.359375 -2.890625l5.015625 0.84375q-1.46875 3.015625 -3.921875 4.53125q-2.453125 1.515625 -5.5 1.515625q-4.171875 0 -6.796875 -2.640625q-2.609375 -2.65625 -2.609375 -7.0q0 -4.265625 2.359375 -7.578125q3.21875 -4.5 9.203125 -4.5q3.8125 0 6.046875 2.359375q2.25 2.34375 2.25 6.59375q0 2.03125 -0.390625 3.640625zm-4.71875 -3.40625q0.015625 -0.375 0.015625 -0.578125q0 -2.296875 -1.046875 -3.453125q-1.03125 -1.15625 -2.765625 -1.15625q-1.734375 0 -3.109375 1.3125q-1.375 1.3125 -1.875 3.875l8.78125 0zm10.933594 -8.703125l5.3125 0l-0.453125 2.140625q1.703125 -1.40625 3.1875 -2.015625q1.484375 -0.609375 3.1875 -0.609375q3.25 0 5.234375 2.25q1.984375 2.25 1.984375 6.703125q0 5.59375 -3.421875 9.46875q-2.921875 3.296875 -6.921875 3.296875q-4.125 0 -6.234375 -3.34375l-2.25 10.765625l-5.609375 0l5.984375 -28.65625zm3.375 11.90625q0 2.421875 1.171875 3.765625q1.1875 1.328125 2.796875 1.328125q1.390625 0 2.671875 -1.0q1.296875 -1.015625 2.140625 -3.34375q0.84375 -2.34375 0.84375 -4.328125q0 -2.328125 -1.109375 -3.5625q-1.109375 -1.25 -2.828125 -1.25q-1.609375 0 -2.921875 1.15625q-1.3125 1.140625 -2.046875 3.359375q-0.71875 2.203125 -0.71875 3.875zm37.089844 0.203125l-14.0625 0q-0.015625 0.34375 -0.015625 0.515625q0 2.0625 1.171875 3.34375q1.1875 1.265625 2.890625 1.265625q2.796875 0 4.359375 -2.890625l5.015625 0.84375q-1.46875 3.015625 -3.921875 4.53125q-2.453125 1.515625 -5.5 1.515625q-4.171875 0 -6.796875 -2.640625q-2.609375 -2.65625 -2.609375 -7.0q0 -4.265625 2.359375 -7.578125q3.21875 -4.5 9.203125 -4.5q3.8125 0 6.046875 2.359375q2.25 2.34375 2.25 6.59375q0 2.03125 -0.390625 3.640625zm-4.71875 -3.40625q0.015625 -0.375 0.015625 -0.578125q0 -2.296875 -1.046875 -3.453125q-1.03125 -1.15625 -2.765625 -1.15625q-1.734375 0 -3.109375 1.3125q-1.375 1.3125 -1.875 3.875l8.78125 0zm11.183594 -8.703125l5.3125 0l-0.546875 2.703125q2.0 -1.71875 3.71875 -2.453125q1.734375 -0.734375 3.640625 -0.734375q2.5625 0 4.03125 1.46875q1.484375 1.46875 1.484375 3.890625q0 1.09375 -0.640625 4.140625l-2.453125 11.734375l-5.59375 0l2.453125 -11.78125q0.546875 -2.640625 0.546875 -3.140625q0 -1.078125 -0.640625 -1.6875q-0.625 -0.625 -1.765625 -0.625q-1.21875 0 -2.734375 1.046875q-1.5 1.03125 -2.359375 2.734375q-0.625 1.203125 -1.40625 4.9375l-1.78125 8.515625l-5.59375 0l4.328125 -20.75zm39.183594 20.75l-5.3125 0l0.46875 -2.25q-1.53125 1.46875 -3.0 2.109375q-1.46875 0.625 -3.328125 0.625q-3.21875 0 -5.234375 -2.1875q-2.0 -2.203125 -2.0 -6.5q0 -4.984375 2.8125 -9.0q2.8125 -4.03125 7.453125 -4.03125q4.171875 0 6.265625 3.328125l2.25 -10.734375l5.59375 0l-5.96875 28.640625zm-12.953125 -8.4375q0 2.21875 1.125 3.46875q1.125 1.25 2.765625 1.25q1.515625 0 2.828125 -1.03125q1.328125 -1.046875 2.109375 -3.1875q0.796875 -2.15625 0.796875 -4.140625q0 -2.234375 -1.21875 -3.625q-1.203125 -1.390625 -2.78125 -1.390625q-2.453125 0 -4.046875 2.734375q-1.578125 2.734375 -1.578125 5.921875zm17.496094 2.640625l5.4375 -0.859375q0.71875 1.71875 1.796875 2.4375q1.078125 0.703125 2.921875 0.703125q1.921875 0 3.078125 -0.859375q0.796875 -0.59375 0.796875 -1.421875q0 -0.578125 -0.40625 -1.015625q-0.4375 -0.4375 -2.328125 -1.0625q-5.078125 -1.671875 -6.296875 -2.65625q-1.890625 -1.515625 -1.890625 -3.984375q0 -2.453125 1.84375 -4.234375q2.546875 -2.484375 7.59375 -2.484375q4.0 0 6.046875 1.46875q2.0625 1.46875 2.609375 3.96875l-5.1875 0.890625q-0.40625 -1.125 -1.328125 -1.703125q-1.25 -0.75 -3.0 -0.75q-1.765625 0 -2.53125 0.59375q-0.765625 0.578125 -0.765625 1.328125q0 0.78125 0.78125 1.296875q0.484375 0.3125 3.140625 1.09375q4.09375 1.1875 5.484375 2.34375q1.953125 1.625 1.953125 3.90625q0 2.953125 -2.484375 5.125q-2.46875 2.15625 -6.984375 2.15625q-4.5 0 -6.953125 -1.640625q-2.4375 -1.65625 -3.328125 -4.640625zm34.90625 -2.8125q0 -5.765625 3.25 -9.1875q3.25 -3.4375 8.546875 -3.4375q4.59375 0 7.171875 2.53125q2.578125 2.53125 2.578125 6.8125q0 5.03125 -3.234375 8.703125q-3.21875 3.671875 -8.625 3.671875q-2.921875 0 -5.1875 -1.171875q-2.265625 -1.171875 -3.390625 -3.3125q-1.109375 -2.15625 -1.109375 -4.609375zm15.984375 -4.015625q0 -1.984375 -1.171875 -3.1875q-1.15625 -1.203125 -3.0 -1.203125q-1.8125 0 -3.21875 1.125q-1.40625 1.125 -2.1875 3.265625q-0.78125 2.140625 -0.78125 3.9375q0 2.21875 1.203125 3.53125q1.21875 1.3125 3.0625 1.3125q2.296875 0 3.859375 -1.984375q2.234375 -2.78125 2.234375 -6.796875zm12.042969 -8.125l5.3125 0l-0.546875 2.703125q2.0 -1.71875 3.71875 -2.453125q1.734375 -0.734375 3.640625 -0.734375q2.5625 0 4.03125 1.46875q1.484375 1.46875 1.484375 3.890625q0 1.09375 -0.640625 4.140625l-2.453125 11.734375l-5.59375 0l2.453125 -11.78125q0.546875 -2.640625 0.546875 -3.140625q0 -1.078125 -0.640625 -1.6875q-0.625 -0.625 -1.765625 -0.625q-1.21875 0 -2.734375 1.046875q-1.5 1.03125 -2.359375 2.734375q-0.625 1.203125 -1.40625 4.9375l-1.78125 8.515625l-5.59375 0l4.328125 -20.75z" fill-rule="nonzero"/><path fill="#000000" fill-opacity="0.0" d="m232.0 340.86615l297.07086 0l0 81.13385l-297.07086 0z" fill-rule="evenodd"/><path fill="#274e13" d="m261.76562 388.26614l-5.3125 0l0.46875 -2.25q-1.53125 1.46875 -3.0 2.109375q-1.46875 0.625 -3.328125 0.625q-3.21875 0 -5.234375 -2.1875q-2.0 -2.203125 -2.0 -6.5q0 -4.984375 2.8125 -9.0q2.8125 -4.03125 7.453125 -4.03125q4.171875 0 6.265625 3.328125l2.25 -10.734375l5.59375 0l-5.96875 28.640625zm-12.953125 -8.4375q0 2.21875 1.125 3.46875q1.125 1.25 2.765625 1.25q1.515625 0 2.828125 -1.03125q1.328125 -1.046875 2.109375 -3.1875q0.796875 -2.15625 0.796875 -4.140625q0 -2.234375 -1.21875 -3.625q-1.203125 -1.390625 -2.78125 -1.390625q-2.453125 0 -4.046875 2.734375q-1.578125 2.734375 -1.578125 5.921875zm38.41797 -0.203125l-14.0625 0q-0.015625 0.34375 -0.015625 0.515625q0 2.0625 1.171875 3.34375q1.1875 1.265625 2.890625 1.265625q2.796875 0 4.359375 -2.890625l5.015625 0.84375q-1.46875 3.015625 -3.921875 4.53125q-2.453125 1.515625 -5.5 1.515625q-4.171875 0 -6.796875 -2.640625q-2.609375 -2.65625 -2.609375 -7.0q0 -4.265625 2.359375 -7.578125q3.21875 -4.5 9.203125 -4.5q3.8125 0 6.046875 2.359375q2.25 2.34375 2.25 6.59375q0 2.03125 -0.390625 3.640625zm-4.71875 -3.40625q0.015625 -0.375 0.015625 -0.578125q0 -2.296875 -1.046875 -3.453125q-1.03125 -1.15625 -2.765625 -1.15625q-1.734375 0 -3.109375 1.3125q-1.375 1.3125 -1.875 3.875l8.78125 0zm10.933594 -8.703125l5.3125 0l-0.453125 2.140625q1.703125 -1.40625 3.1875 -2.015625q1.484375 -0.609375 3.1875 -0.609375q3.25 0 5.234375 2.25q1.984375 2.25 1.984375 6.703125q0 5.59375 -3.421875 9.46875q-2.921875 3.296875 -6.921875 3.296875q-4.125 0 -6.234375 -3.34375l-2.25 10.765625l-5.609375 0l5.984375 -28.65625zm3.375 11.90625q0 2.421875 1.171875 3.765625q1.1875 1.328125 2.796875 1.328125q1.390625 0 2.671875 -1.0q1.296875 -1.015625 2.140625 -3.34375q0.84375 -2.34375 0.84375 -4.328125q0 -2.328125 -1.109375 -3.5625q-1.109375 -1.25 -2.828125 -1.25q-1.609375 0 -2.921875 1.15625q-1.3125 1.140625 -2.046875 3.359375q-0.71875 2.203125 -0.71875 3.875zm37.089844 0.203125l-14.0625 0q-0.015625 0.34375 -0.015625 0.515625q0 2.0625 1.171875 3.34375q1.1875 1.265625 2.890625 1.265625q2.796875 0 4.359375 -2.890625l5.015625 0.84375q-1.46875 3.015625 -3.921875 4.53125q-2.453125 1.515625 -5.5 1.515625q-4.171875 0 -6.796875 -2.640625q-2.609375 -2.65625 -2.609375 -7.0q0 -4.265625 2.359375 -7.578125q3.21875 -4.5 9.203125 -4.5q3.8125 0 6.046875 2.359375q2.25 2.34375 2.25 6.59375q0 2.03125 -0.390625 3.640625zm-4.71875 -3.40625q0.015625 -0.375 0.015625 -0.578125q0 -2.296875 -1.046875 -3.453125q-1.03125 -1.15625 -2.765625 -1.15625q-1.734375 0 -3.109375 1.3125q-1.375 1.3125 -1.875 3.875l8.78125 0zm11.183594 -8.703125l5.3125 0l-0.546875 2.703125q2.0 -1.71875 3.71875 -2.453125q1.734375 -0.734375 3.640625 -0.734375q2.5625 0 4.03125 1.46875q1.484375 1.46875 1.484375 3.890625q0 1.09375 -0.640625 4.140625l-2.453125 11.734375l-5.59375 0l2.453125 -11.78125q0.546875 -2.640625 0.546875 -3.140625q0 -1.078125 -0.640625 -1.6875q-0.625 -0.625 -1.765625 -0.625q-1.21875 0 -2.734375 1.046875q-1.5 1.03125 -2.359375 2.734375q-0.625 1.203125 -1.40625 4.9375l-1.78125 8.515625l-5.59375 0l4.328125 -20.75zm39.183594 20.75l-5.3125 0l0.46875 -2.25q-1.53125 1.46875 -3.0 2.109375q-1.46875 0.625 -3.328125 0.625q-3.21875 0 -5.234375 -2.1875q-2.0 -2.203125 -2.0 -6.5q0 -4.984375 2.8125 -9.0q2.8125 -4.03125 7.453125 -4.03125q4.171875 0 6.265625 3.328125l2.25 -10.734375l5.59375 0l-5.96875 28.640625zm-12.953125 -8.4375q0 2.21875 1.125 3.46875q1.125 1.25 2.765625 1.25q1.515625 0 2.828125 -1.03125q1.328125 -1.046875 2.109375 -3.1875q0.796875 -2.15625 0.796875 -4.140625q0 -2.234375 -1.21875 -3.625q-1.203125 -1.390625 -2.78125 -1.390625q-2.453125 0 -4.046875 2.734375q-1.578125 2.734375 -1.578125 5.921875zm17.496094 2.640625l5.4375 -0.859375q0.71875 1.71875 1.796875 2.4375q1.078125 0.703125 2.921875 0.703125q1.921875 0 3.078125 -0.859375q0.796875 -0.59375 0.796875 -1.421875q0 -0.578125 -0.40625 -1.015625q-0.4375 -0.4375 -2.328125 -1.0625q-5.078125 -1.671875 -6.296875 -2.65625q-1.890625 -1.515625 -1.890625 -3.984375q0 -2.453125 1.84375 -4.234375q2.546875 -2.484375 7.59375 -2.484375q4.0 0 6.046875 1.46875q2.0625 1.46875 2.609375 3.96875l-5.1875 0.890625q-0.40625 -1.125 -1.328125 -1.703125q-1.25 -0.75 -3.0 -0.75q-1.765625 0 -2.53125 0.59375q-0.765625 0.578125 -0.765625 1.328125q0 0.78125 0.78125 1.296875q0.484375 0.3125 3.140625 1.09375q4.09375 1.1875 5.484375 2.34375q1.953125 1.625 1.953125 3.90625q0 2.953125 -2.484375 5.125q-2.46875 2.15625 -6.984375 2.15625q-4.5 0 -6.953125 -1.640625q-2.4375 -1.65625 -3.328125 -4.640625zm34.90625 -2.8125q0 -5.765625 3.25 -9.1875q3.25 -3.4375 8.546875 -3.4375q4.59375 0 7.171875 2.53125q2.578125 2.53125 2.578125 6.8125q0 5.03125 -3.234375 8.703125q-3.21875 3.671875 -8.625 3.671875q-2.921875 0 -5.1875 -1.171875q-2.265625 -1.171875 -3.390625 -3.3125q-1.109375 -2.15625 -1.109375 -4.609375zm15.984375 -4.015625q0 -1.984375 -1.171875 -3.1875q-1.15625 -1.203125 -3.0 -1.203125q-1.8125 0 -3.21875 1.125q-1.40625 1.125 -2.1875 3.265625q-0.78125 2.140625 -0.78125 3.9375q0 2.21875 1.203125 3.53125q1.21875 1.3125 3.0625 1.3125q2.296875 0 3.859375 -1.984375q2.234375 -2.78125 2.234375 -6.796875zm12.042969 -8.125l5.3125 0l-0.546875 2.703125q2.0 -1.71875 3.71875 -2.453125q1.734375 -0.734375 3.640625 -0.734375q2.5625 0 4.03125 1.46875q1.484375 1.46875 1.484375 3.890625q0 1.09375 -0.640625 4.140625l-2.453125 11.734375l-5.59375 0l2.453125 -11.78125q0.546875 -2.640625 0.546875 -3.140625q0 -1.078125 -0.640625 -1.6875q-0.625 -0.625 -1.765625 -0.625q-1.21875 0 -2.734375 1.046875q-1.5 1.03125 -2.359375 2.734375q-0.625 1.203125 -1.40625 4.9375l-1.78125 8.515625l-5.59375 0l4.328125 -20.75z" fill-rule="nonzero"/><path fill="#6aa84f" d="m488.32022 374.98425l19.921234 0l0 -43.77954l39.84253 0l0 43.77954l19.921265 0l-39.84253 39.84253z" fill-rule="evenodd"/><path stroke="#38761d" stroke-width="4.0" stroke-linejoin="round" stroke-linecap="butt" d="m488.32022 374.98425l19.921234 0l0 -43.77954l39.84253 0l0 43.77954l19.921265 0l-39.84253 39.84253z" fill-rule="evenodd"/></g></svg>